<?xml version="1.0" standalone="no"?>
<!DOCTYPE svg PUBLIC "-//W3C//DTD SVG 1.1//EN" "http://www.w3.org/Graphics/SVG/1.1/DTD/svg11.dtd" >
<svg xmlns="http://www.w3.org/2000/svg">
<metadata></metadata>
<defs>
<font id="bello-scriptregular" horiz-adv-x="899" >
<font-face units-per-em="2048" ascent="1536" descent="-512" />
<missing-glyph horiz-adv-x="450" />
<glyph horiz-adv-x="0" />
<glyph unicode="&#xd;" horiz-adv-x="303" />
<glyph unicode=" "  horiz-adv-x="450" />
<glyph unicode="&#x09;" horiz-adv-x="450" />
<glyph unicode="&#xa0;" horiz-adv-x="450" />
<glyph unicode="!" horiz-adv-x="1024" d="M664 469q39 186 78.5 335.5t88.5 293.5q55 100 81 176t26 117q0 47 -24.5 71.5t-90.5 24.5q-57 0 -110.5 -21.5t-95.5 -54.5t-67.5 -75t-25.5 -81q0 -31 6.5 -64.5t18.5 -62.5q-18 -70 -32.5 -141.5t-24 -136t-13.5 -118.5t-4 -87q0 -35 9.5 -68.5t26.5 -60.5t42 -43 t57 -16q16 0 31 4t23 8zM463 -25q41 0 76.5 27t61.5 68t41 89t15 93q0 43 -20.5 65.5t-75.5 22.5q-43 0 -89 -17.5t-85 -45t-64.5 -64.5t-25.5 -74q0 -31 13.5 -60.5t37 -52t53 -37t62.5 -14.5z" />
<glyph unicode="&#x22;" horiz-adv-x="1116" d="M319 766q6 -23 22.5 -35t51.5 -12q23 0 48.5 13t41.5 36q41 57 78 128t64.5 140.5t44 132t16.5 105.5q0 51 -39 95t-131 44q-109 0 -137 -82q6 -35 7 -65.5t1 -59.5q0 -98 -16.5 -209.5t-51.5 -230.5zM817 766q6 -23 22.5 -35t51.5 -12q23 0 48.5 13t41.5 36 q41 57 79 131t65.5 147.5t44 139t16.5 108.5q0 25 -6 53.5t-23.5 52t-47.5 39t-75 15.5q-109 0 -137 -82q6 -35 7 -65.5t1 -59.5q0 -49 -7 -108.5t-19.5 -122t-29 -127t-32.5 -123.5z" />
<glyph unicode="#" horiz-adv-x="1058" d="M365 797q-106 -10 -140.5 -39t-34.5 -62q0 -25 17 -41l129 7q-10 -47 -17.5 -83t-17.5 -85q-102 -4 -135 -28t-33 -67q0 -10 4 -22t15 -19h118q-10 -47 -16 -78.5t-6 -54.5q0 -53 25.5 -80.5t60.5 -27.5q16 0 27.5 5t19.5 11q2 25 5 46.5t8 47t12.5 57t19.5 78.5l143 9 q-10 -57 -16 -94t-6 -72q0 -49 27.5 -80t68.5 -31q31 0 47 21q2 33 5 62.5t9.5 60t14.5 65.5t20 80q127 2 173 35t46 82q0 18 -7 35.5t-25 29.5q-35 -12 -66 -18t-74 -10l45 147q121 10 176.5 43t55.5 86q0 33 -13.5 51.5t-35.5 28.5q-57 -27 -142 -43q10 41 20.5 84 t10.5 72q0 61 -36 92.5t-91 31.5q-47 0 -74 -20q-2 -78 -11 -143.5t-25 -143.5l-111 -10q8 39 16.5 83t8.5 75q0 68 -31 107.5t-82 39.5q-33 0 -53 -12q-10 -76 -23.5 -155.5t-25.5 -153.5zM643 676l-41 -160l-135 -8l45 164z" />
<glyph unicode="$" horiz-adv-x="845" d="M250 389q-78 0 -128 -54t-50 -134q0 -102 64.5 -163t152.5 -81q-12 -59 -18.5 -107.5t-6.5 -91.5q0 -70 31 -113.5t106 -43.5q29 0 51.5 11t32.5 34q-14 47 -20 94t-6 94q0 29 2 58.5t6 58.5q59 10 116.5 33.5t103.5 63.5t75 96.5t29 131.5q0 59 -34 120t-75 116 t-75 102.5t-34 79.5q0 39 22.5 59.5t76.5 20.5q37 0 82 -8t73 -21q20 18 32.5 48t12.5 65q0 53 -32.5 89t-91.5 52q31 70 44 113t13 72q0 45 -28.5 71.5t-76.5 26.5q-16 0 -36.5 -4t-34.5 -12q-4 -29 -15.5 -92.5t-40.5 -167.5q-76 -10 -128 -41t-85.5 -73t-49 -92 t-15.5 -102q0 -68 31.5 -136t69.5 -130.5t70 -117t32 -93.5q0 -27 -19.5 -37t-36.5 -10q-33 0 -64.5 20.5t-58 52.5t-45 69.5t-24.5 72.5z" />
<glyph unicode="%" horiz-adv-x="1431" d="M514 264q-61 -68 -102 -116t-63.5 -84.5t-32 -67.5t-9.5 -66q0 -51 27.5 -89t83.5 -38q27 0 50.5 12.5t31.5 41.5q-2 10 -3 23.5t-1 25.5q0 29 6 53.5t22.5 51t44 58t68.5 74.5q184 188 320.5 339t225.5 269.5t133 209t44 155.5q0 25 -10.5 51.5t-28.5 48t-44 35 t-56 13.5q-35 0 -75 -47.5t-77 -182.5q-23 -6 -70 -11t-103 -10t-112.5 -7t-95.5 -2q-20 53 -53 87.5t-72 34.5q-29 0 -44 -7t-25 -19q-16 10 -41 10q-49 0 -99.5 -40t-90.5 -102.5t-65.5 -142.5t-25.5 -159q0 -53 12.5 -100.5t38 -83.5t66.5 -56t100 -20q55 0 110.5 30.5 t100.5 87t75 137t34 181.5q37 0 79.5 2t86 4t80 6t59.5 8q-37 -61 -93.5 -134t-124 -151.5t-140 -158.5t-142.5 -154zM1014 -285q57 0 112.5 28t99.5 81t70.5 131t26.5 178q0 113 -42 178.5t-95 65.5q-47 0 -76 -29q-8 4 -20.5 7t-20.5 3q-47 0 -95 -39.5t-89 -101 t-66.5 -136.5t-25.5 -144q0 -109 55 -165.5t166 -56.5zM373 700q0 35 9 72t22.5 71t30 63.5t30.5 49.5q4 -23 14 -47t21 -37q2 -23 3 -51t1 -39q0 -63 -16.5 -116.5t-51.5 -53.5q-25 0 -44 22.5t-19 65.5zM993 -31q0 33 9.5 68t22.5 64.5t28.5 53t29.5 35.5q16 -20 23.5 -66 t7.5 -77q0 -59 -22.5 -100t-57.5 -41q-10 0 -25.5 13t-15.5 50z" />
<glyph unicode="&#x26;" horiz-adv-x="1607" d="M330 696q-82 -80 -139.5 -146.5t-92.5 -125.5t-51 -115.5t-16 -113.5q0 -129 81 -205t222 -76q86 0 185 37t194 112q106 -143 181 -228t136.5 -129t119.5 -56t132 -12q55 0 111.5 17t102.5 48t76 74t30 96q0 18 -9.5 35.5t-27.5 23.5q-33 -10 -66 -17t-61 -7 q-53 0 -100.5 13t-101.5 54t-124 118t-168 206q90 102 177 239.5t143 282.5q16 0 39.5 -2t48 -4t46 -6t38.5 -8q10 -45 27.5 -60.5t39.5 -15.5q25 0 55.5 29.5t57 72.5t44 91.5t17.5 85.5q0 63 -39 87.5t-131 24.5q-61 0 -131.5 -7t-137.5 -19.5t-124 -26.5t-94 -29 q-53 -23 -88 -62.5t-35 -94.5q0 -20 13.5 -41t45.5 -21q16 0 38 1t34 3q-27 -78 -80 -174t-125 -180q-47 55 -97 128t-91 142q84 104 140 184t91 144.5t49.5 120t14.5 110.5q0 41 -15.5 80t-42 69t-65.5 47t-84 17q-57 0 -97 -23.5t-63 -62.5q-6 16 -22.5 24.5t-32.5 8.5 q-68 0 -117 -45t-80.5 -110.5t-47 -137t-15.5 -125.5q0 -84 20.5 -174t61.5 -166zM449 211q-53 0 -73 24.5t-20 59.5q0 45 21.5 96t60.5 107q37 -66 75 -121t83 -113q-29 -23 -71.5 -38t-75.5 -15zM537 1321q0 -25 12 -39t43 -25q55 -16 76.5 -33.5t21.5 -47.5 q0 -84 -139 -275q-31 53 -46.5 118.5t-15.5 121.5q0 41 12.5 93t35.5 87z" />
<glyph unicode="'" horiz-adv-x="604" d="M319 786q6 -23 22.5 -35t51.5 -12q51 0 90 49q51 66 91 134.5t66 133t39 121t13 97.5q0 25 -10 53.5t-31.5 52t-55.5 39t-79 15.5q-109 0 -137 -82q6 -35 7 -66t1 -59q0 -98 -16.5 -210t-51.5 -231z" />
<glyph unicode="(" horiz-adv-x="972" d="M629 193q0 154 32.5 315.5t98 309t164 266t229.5 186.5q10 14 10 37q0 29 -20.5 46t-67.5 17q-82 0 -169 -48t-170 -134t-156.5 -203t-130 -253t-89 -286.5t-32.5 -302.5q0 -154 26.5 -257t69.5 -165.5t97 -89t108 -26.5q70 0 110.5 32.5t42.5 79.5q-78 70 -115.5 191 t-37.5 285z" />
<glyph unicode=")" horiz-adv-x="952" d="M539 786q0 -154 -33 -315.5t-98.5 -309t-164 -266t-229.5 -186.5q-10 -16 -10 -37q0 -29 20.5 -46t67.5 -17q82 0 169 48t170 134t157 203t130 253t89 286.5t33 302.5q0 154 -27 257t-70 165.5t-97 89t-107 26.5q-70 0 -111 -32.5t-43 -79.5q78 -70 116 -191t38 -285z " />
<glyph unicode="*" horiz-adv-x="1046" d="M944 1354q0 59 -41 105t-119 46q-86 0 -118 -57q4 -29 5 -59.5t1 -53.5q0 -37 -1 -96t-7 -100q-76 86 -120 122.5t-87 36.5q-55 0 -97.5 -43t-42.5 -104q0 -31 7.5 -53.5t19.5 -38.5q41 -10 86 -35t100 -70q-92 -74 -133 -121t-41 -100q0 -49 32 -83t89 -34q43 0 76 23 q8 29 16.5 50.5t20.5 41t30.5 43t47.5 53.5q43 -135 88 -195.5t114 -60.5q29 0 57.5 11.5t52.5 30t38 43t14 53.5q0 10 -2 22t-6 25q-45 29 -77 68.5t-66 103.5q147 25 212.5 63.5t65.5 102.5q0 39 -20.5 68.5t-59.5 43.5q-16 -14 -41.5 -28.5t-54.5 -27.5t-57.5 -25.5 t-53.5 -20.5q35 88 53.5 148.5t18.5 101.5z" />
<glyph unicode="+" horiz-adv-x="1069" d="M379 522q-111 -8 -155 -45t-44 -84q0 -12 5 -27.5t16 -25.5q45 -4 119.5 -6t144.5 -2q-8 -39 -14.5 -88t-6.5 -78q0 -72 27 -109t72 -37q47 0 65 19q6 23 16.5 59.5t21.5 77.5t22.5 83t19.5 75q100 6 168 19.5t110 35t60 50t18 65.5q0 29 -14 54.5t-43 35.5 q-49 -23 -114.5 -33t-139.5 -16q16 53 24.5 106.5t8.5 71.5q0 84 -41 125t-96 41q-27 0 -49.5 -7.5t-34.5 -23.5q0 -29 -3 -68.5t-8.5 -85t-11.5 -90.5t-14 -84q-29 -2 -61.5 -4t-67.5 -4z" />
<glyph unicode="," horiz-adv-x="796" d="M203 -211q-6 -23 -6 -39q0 -39 24.5 -61.5t71.5 -22.5q55 0 119.5 39t120 102.5t93.5 144.5t38 167q0 47 -14.5 89t-42 74.5t-66.5 51t-88 18.5q-82 0 -130.5 -51t-48.5 -127q0 -39 17 -70q59 -25 80.5 -56.5t21.5 -65.5q0 -20 -16.5 -46t-42 -51.5t-60 -51.5t-71.5 -44z " />
<glyph unicode="-" horiz-adv-x="946" d="M440 520q-74 -27 -100.5 -53.5t-26.5 -69.5q0 -29 15.5 -50t38.5 -30q272 33 399 90.5t127 159.5q0 49 -34 87t-75 40q-45 -33 -82.5 -56.5t-76.5 -44t-83.5 -38t-101.5 -35.5z" />
<glyph unicode="." horiz-adv-x="759" d="M442 -35q41 0 77 27.5t61.5 70.5t41 93.5t15.5 95.5q0 39 -36 63.5t-107 24.5q-43 0 -82 -12.5t-69 -35t-48.5 -54t-18.5 -68.5q0 -41 12.5 -78t34 -65.5t52 -45t67.5 -16.5z" />
<glyph unicode="/" horiz-adv-x="1105" d="M1051 1270q-57 -106 -133 -227t-159 -245t-167 -243t-158 -221t-117 -168t-66.5 -111t-30.5 -78.5t-7 -70.5q0 -53 28.5 -94t86.5 -41q45 0 61 26q2 49 14.5 97.5t39 103.5t71.5 123.5t117 161.5q117 150 202 262t144 196t96 142.5t58.5 103.5t28.5 79t7 69 q0 66 -32.5 101.5t-67.5 35.5h-8t-8 -2z" />
<glyph unicode="0" horiz-adv-x="839" d="M389 -14q86 0 168 42t147.5 121.5t105.5 196.5t40 266q0 82 -17.5 144.5t-46 103.5t-64.5 61.5t-75 20.5q-41 0 -69.5 -14.5t-47.5 -36.5q-25 25 -63 24q-68 0 -139.5 -54t-130 -141t-95 -194.5t-36.5 -212.5q0 -160 81.5 -243.5t241.5 -83.5zM340 373q0 61 15.5 116.5 t39 101.5t51 80t50.5 52q35 -35 54 -102.5t19 -124.5q0 -49 -12 -94.5t-31.5 -78t-46 -52t-57.5 -19.5q-27 0 -54.5 24.5t-27.5 96.5z" />
<glyph unicode="1" horiz-adv-x="598" d="M156 143q0 -31 16 -59.5t44 -52t67 -36.5t84 -13t68.5 10t33.5 28q4 98 32.5 243t100.5 341q27 74 44.5 123t27.5 83t13 57.5t3 45.5q0 23 -7 46.5t-21.5 43t-37 32t-51.5 12.5h-12q-6 0 -12 -3q-70 -111 -180.5 -213t-284.5 -213q0 -115 96 -114q10 0 28.5 6t38 16.5 t39 22.5t31.5 26q-47 -98 -78.5 -167.5t-50 -118.5t-25.5 -84t-7 -62z" />
<glyph unicode="2" horiz-adv-x="792" d="M811 696q0 53 -16.5 102.5t-51 86.5t-89 59.5t-130.5 22.5q-90 0 -156.5 -24.5t-109.5 -65.5t-64.5 -94.5t-21.5 -110.5q0 -78 35 -115t92 -37q37 0 53 12q10 127 34 175.5t54 48.5q33 0 53.5 -25.5t20.5 -68.5q0 -37 -15.5 -72t-53 -75t-100 -86t-157.5 -101 q-51 -31 -82.5 -57.5t-49 -53.5t-23.5 -56.5t-6 -66.5q82 -63 143 -104t110.5 -64.5t89.5 -33t79 -9.5q45 0 99 21.5t101 56.5t78 79t31 91q0 31 -13.5 57.5t-35.5 36.5q-115 -66 -160 -65q-37 0 -76 16.5t-113 61.5q137 74 225.5 133t138.5 112.5t68.5 105.5t18.5 107z" />
<glyph unicode="3" horiz-adv-x="794" d="M143 29q-23 14 -51 14q-53 0 -96 -42t-43 -126q0 -47 22.5 -90t65.5 -76t103.5 -52t138.5 -19q94 0 173 28.5t134 80.5t86 124t31 158q0 35 -7.5 70.5t-26 71.5t-52 70.5t-86.5 67.5q156 94 218 184.5t62 186.5q0 53 -17.5 103.5t-53 88t-91 61t-131.5 23.5 q-90 0 -157.5 -25.5t-113.5 -67.5t-68.5 -96t-22.5 -112q0 -78 34.5 -114.5t92.5 -36.5q37 0 53 12q10 127 33.5 175t54.5 48q33 0 52.5 -26.5t19.5 -69.5q0 -47 -31 -118.5t-115 -141.5q-25 6 -49 6q-82 0 -136 -55t-54 -139q170 -78 234.5 -145.5t64.5 -125.5 q0 -37 -26 -57.5t-66 -20.5q-59 0 -113 50.5t-66 132.5z" />
<glyph unicode="4" horiz-adv-x="880" d="M807 236q-55 -35 -109 -48q20 102 46 201.5t67 214.5q35 98 46 152.5t11 99.5q0 59 -35.5 96t-91.5 37q-12 0 -20 -2q-35 -47 -90.5 -114.5t-131 -145.5t-167.5 -162t-199 -162q-66 -47 -89.5 -92t-23.5 -98q0 -35 7 -68q76 -59 160.5 -101t164.5 -64q-12 -45 -21 -77 t-14.5 -54.5t-7.5 -40t-2 -31.5q0 -33 19.5 -62.5t51.5 -51t73 -35t84 -13.5q84 0 104 51q0 41 7 118t18 175q94 23 144 74t50 114q0 31 -14 55t-37 34zM270 307q82 70 135.5 123t108.5 119q-31 -86 -54.5 -162t-39.5 -147q-78 26 -150 67z" />
<glyph unicode="5" horiz-adv-x="759" d="M709 31q0 55 -18.5 106t-60.5 100.5t-111.5 94.5t-170.5 86q18 41 39 100.5t31 106.5q59 -29 96 -39.5t74 -10.5q49 0 93 18.5t78 50.5t54.5 72t20.5 83q0 29 -14.5 55.5t-37.5 38.5q-49 -10 -114.5 -17.5t-114.5 -7.5q-33 0 -67.5 10.5t-67.5 21.5t-59.5 21.5 t-41.5 10.5q-31 0 -45 -20.5t-24 -94.5q-8 -51 -21.5 -120.5t-32 -146.5t-42 -157t-48.5 -153q-4 -16 -4 -21q0 -23 27 -37t96 -20q92 -70 141.5 -124t49.5 -114q0 -37 -26 -57.5t-66 -20.5q-59 0 -112.5 50.5t-66.5 132.5q-23 14 -51 14q-53 0 -96 -42t-43 -126 q0 -47 22.5 -90t65.5 -76t103.5 -52t138.5 -19q94 0 173 28.5t135 80.5t87 125t31 159z" />
<glyph unicode="6" horiz-adv-x="819" d="M399 365q0 78 16.5 148.5t43.5 135.5q39 -59 59.5 -128.5t20.5 -135.5q0 -72 -21.5 -104.5t-52.5 -32.5q-27 0 -46.5 22.5t-19.5 94.5zM993 1100q0 55 -49 89t-158 34q-90 0 -176 -36t-162.5 -98.5t-141 -145.5t-112 -177t-73 -194.5t-25.5 -194.5q0 -201 75 -296 t224 -95q80 0 158 40t139.5 108.5t98 160.5t36.5 197q0 82 -20.5 139t-52 91t-69.5 49t-71 15q-80 0 -118 -45q37 66 78.5 122.5t97 97t128 64.5t173.5 24q8 6 14 20.5t6 30.5z" />
<glyph unicode="7" horiz-adv-x="763" d="M406 936q-59 0 -110.5 -24.5t-88.5 -65.5t-57.5 -94.5t-20.5 -110.5q0 -68 34 -103.5t73 -35.5q20 0 28 4q23 80 47.5 114.5t61.5 34.5q35 0 96 -8t125 -18q-164 -211 -266.5 -349.5t-159.5 -227.5t-77.5 -142t-20.5 -94t17 -81t46 -72t68 -51.5t80 -19.5q84 0 104 52 q0 102 27.5 222t107.5 284q55 113 116.5 206t112 169.5t84 138t33.5 110.5q0 29 -14 55.5t-37 38.5q-55 0 -109.5 10.5t-105.5 23.5t-100 23.5t-94 10.5z" />
<glyph unicode="8" horiz-adv-x="798" d="M199 831q0 -72 22.5 -130t54.5 -107q-129 -109 -188 -196t-59 -179q0 -55 22.5 -103t65.5 -85t104.5 -58.5t138.5 -21.5q92 0 168 26.5t128.5 74.5t81 112.5t28.5 142.5q0 31 -7 65t-26.5 77t-54.5 95t-88 120q8 -2 14 -2h12q39 0 81 22.5t77 60t56.5 89t21.5 110.5 q0 63 -21.5 113.5t-57.5 86.5t-84 54.5t-101 18.5q-94 0 -167 -35t-122 -90.5t-74.5 -124t-25.5 -136.5zM299 313q0 20 11.5 65.5t37.5 92.5q35 -47 55.5 -81t31.5 -58.5t15.5 -44t4.5 -39.5q0 -35 -17.5 -51.5t-40.5 -16.5q-31 0 -64.5 26.5t-33.5 106.5zM537 725 q-41 57 -56.5 101t-15.5 77q4 104 57 105q29 0 46.5 -32t17.5 -75q0 -47 -10 -88t-39 -88z" />
<glyph unicode="9" horiz-adv-x="800" d="M512 575q0 -41 -8 -106.5t-35 -138.5q-55 53 -76.5 105t-21.5 112q0 72 24.5 119t55.5 47q27 0 44 -37.5t17 -100.5zM-86 -203q0 -74 54.5 -119t154.5 -45q68 0 144.5 31t151.5 88.5t144.5 139t121.5 184t84 222.5t32 253q0 197 -76 294t-211 97q-80 0 -157.5 -40 t-139 -108.5t-98.5 -160.5t-37 -197q0 -125 83 -204.5t236 -79.5q-31 -57 -63.5 -105.5t-82.5 -84.5t-124 -57.5t-186 -27.5q-16 -16 -23.5 -39t-7.5 -41z" />
<glyph unicode=":" horiz-adv-x="907" d="M469 -35q41 0 76 18.5t60.5 46t39.5 61.5t14 65q0 20 -17 52t-47 61.5t-70 50t-85 20.5q-68 0 -102.5 -47t-34.5 -123q0 -41 12.5 -78t34 -65.5t52 -45t67.5 -16.5zM637 467q61 0 109.5 65.5t48.5 178.5q0 57 -43 99t-127 42q-86 0 -120 -39t-34 -102q0 -41 12.5 -84 t34 -79t52 -58.5t67.5 -22.5z" />
<glyph unicode=";" horiz-adv-x="907" d="M616 477q37 0 70 16.5t57.5 44t38 64.5t13.5 78q0 29 -13.5 59.5t-38 56t-59.5 42t-76 16.5q-78 0 -106.5 -36t-28.5 -99q0 -41 8 -84t26.5 -78t45 -57.5t63.5 -22.5zM217 -182q-6 -23 -6 -39q0 -35 22.5 -56.5t69.5 -21.5q49 0 110.5 29.5t117 85t92 132.5t36.5 169 q0 41 -17 75.5t-47 59t-68 39t-81 14.5q-86 0 -132 -47t-46 -106q0 -31 13 -58q59 -27 88.5 -60.5t29.5 -64.5q0 -39 -55 -75.5t-127 -75.5z" />
<glyph unicode="&#x3c;" horiz-adv-x="952" d="M317 344q82 -76 135.5 -129t87 -94t52 -73t31.5 -62q14 -6 32 -6q29 0 54.5 15t45 39.5t31 57.5t11.5 68q0 66 -44 139.5t-157 169.5q94 68 155.5 124t98.5 105.5t51 89t14 72.5q0 35 -19 63.5t-56 32.5q-223 -238 -453 -387q-104 -29 -161.5 -78t-57.5 -108 q0 -49 57 -49q41 0 92 10z" />
<glyph unicode="=" horiz-adv-x="1069" d="M342 324q-96 -6 -134 -42t-38 -83q0 -12 5 -27.5t15 -26.5q31 -2 75 -6t92.5 -7t93.5 -5t75 -2q195 0 294.5 42t99.5 138q0 72 -64 88q-47 -20 -89 -30.5t-97.5 -16.5t-133 -10t-194.5 -12zM403 731q-104 -8 -148 -43t-44 -82q0 -12 5 -27.5t15 -25.5q31 -2 79 -6 t99.5 -7t99.5 -5.5t79 -2.5q195 0 304 42t109 139q0 72 -63 88q-47 -20 -92 -30.5t-104.5 -16.5t-140.5 -10.5t-198 -12.5z" />
<glyph unicode="&#x3e;" horiz-adv-x="952" d="M741 561q-82 76 -135 129t-87 94t-52 73t-31 63q-16 6 -33 6q-29 0 -54 -15.5t-44.5 -40t-31 -57.5t-11.5 -68q0 -66 43 -140.5t158 -168.5q-94 -68 -155.5 -124t-98.5 -105t-51.5 -89t-14.5 -73q0 -35 19.5 -63.5t56.5 -32.5q223 238 453 387q104 29 161.5 78t57.5 108 q0 49 -57 49q-42 0 -93 -10z" />
<glyph unicode="?" horiz-adv-x="1024" d="M506 -27q68 0 104.5 72t36.5 180q0 53 -29.5 84t-101.5 31q-43 0 -83 -16.5t-69.5 -43t-47 -60.5t-17.5 -66q0 -41 18.5 -74t48 -56.5t66.5 -37t74 -13.5zM719 657q147 104 236 171t136.5 116t62.5 89t15 91q0 70 -28.5 133.5t-79.5 111.5t-119 76t-143 28 q-68 0 -121 -19.5t-89 -53.5t-55.5 -78t-19.5 -93q0 -35 14.5 -65.5t44.5 -47.5q41 6 84 9t72 3q82 0 106.5 -24.5t24.5 -48.5q0 -25 -8 -45.5t-32.5 -46t-69.5 -59.5t-121 -83q-53 -35 -87 -62.5t-53.5 -51t-26.5 -46t-7 -47.5q0 -37 12 -68.5t33.5 -55t49.5 -37t60 -13.5 q43 0 66.5 12.5t34.5 28.5q-6 37 -6 68q0 63 14 108z" />
<glyph unicode="@" horiz-adv-x="1929" d="M1087 330q-27 -37 -61 -37q-20 0 -30.5 13t-10.5 52q0 53 12.5 106.5t34 100.5t51 85t64.5 61zM1628 766q0 -98 -25.5 -187.5t-62.5 -155t-78 -104t-71 -38.5q-10 0 -24.5 7t-14.5 36q0 35 21.5 134t76.5 273q12 39 17.5 65.5t5.5 45.5q0 25 -19.5 50.5t-51.5 48 t-73 36.5t-84 14q-14 0 -40.5 -6t-37.5 -18l-12 -138q-12 14 -57 15q-78 0 -153 -55.5t-133 -139.5t-93 -183t-35 -185q0 -127 54.5 -199t131.5 -72q25 0 52.5 10.5t55.5 35t54.5 66.5t48.5 105q-2 -14 -3 -30.5t-1 -30.5q0 -94 39 -128t101 -34q78 0 156.5 36t150 98.5 t133 143t107.5 171t72 183.5t26 179q0 272 -157 423t-445 151q-133 0 -259.5 -46.5t-239 -127t-207.5 -191.5t-163.5 -241t-106.5 -274t-38 -292q0 -158 41 -287t118.5 -221t190.5 -142t258 -50q100 0 194.5 35.5t166 89t115.5 114t44 109.5q0 59 -63 72 q-96 -90 -182.5 -126t-178.5 -36q-217 0 -334.5 138t-117.5 400q0 94 24.5 194.5t70.5 195t110.5 179.5t144.5 148.5t174 100t197 36.5q98 0 173.5 -29.5t128 -81.5t80 -127t27.5 -163z" />
<glyph unicode="A" horiz-adv-x="1740" d="M399 438q-20 70 -108 70q-57 0 -106.5 -25.5t-86.5 -68.5t-57.5 -99.5t-20.5 -117.5q0 -158 84 -244t234 -86q70 0 132 20.5t128 69.5t137.5 132t157.5 208q78 4 170 9t158 11q-2 -37 -3 -63.5t-2.5 -47t-1.5 -40.5v-43q0 -88 42 -131t139 -43q49 0 110.5 27.5t124 71.5 t121.5 99.5t105.5 111.5t74 106.5t27.5 85.5q0 29 -24.5 48t-53.5 19h-8q-55 -78 -103.5 -128t-86 -80.5t-64.5 -43t-37 -12.5q-23 0 -27 35t-4 100q39 33 63.5 77t24.5 87q0 45 -21.5 68.5t-57.5 29.5q4 68 9 140.5t11 145.5t15.5 140.5t19.5 122.5q61 39 99 65.5t59.5 47 t28.5 35t7 30.5q-4 49 -47 93.5t-127 44.5q-63 0 -114.5 -23t-89 -62.5t-64.5 -92t-41 -111.5q-78 -111 -155.5 -223.5t-148.5 -215t-132.5 -189.5t-106.5 -144q-111 -6 -204 -10.5t-179 -6.5zM418 137q-35 0 -56.5 23.5t-21.5 72.5q0 8 1 21.5t5 24.5h133t158 4 q-72 -84 -120 -115t-99 -31zM1024 471q25 43 60.5 103.5t73.5 127t74 130t60 110.5q-10 -45 -18 -106.5t-15.5 -126t-13.5 -124t-10 -98.5q-41 -4 -100.5 -8t-110.5 -8z" />
<glyph unicode="B" horiz-adv-x="1413" d="M860 1196q104 -18 144 -64.5t40 -113.5q0 -53 -23.5 -132t-74.5 -161q-49 6 -98 6q-53 0 -86 -6q23 86 47 200.5t51 270.5zM625 1194q-16 -102 -41 -218t-56.5 -230.5t-68.5 -219t-76 -186.5q-121 -10 -176 -31.5t-55 -81.5q0 -47 13 -86t33.5 -65.5t44 -41t42.5 -14.5 q37 0 74.5 23t103.5 76q76 -49 139.5 -83t119.5 -53.5t108.5 -27.5t105.5 -8q111 0 193.5 27.5t138 77.5t82 119t26.5 151q0 33 -10 76.5t-38 91t-77 93.5t-125 87q117 115 181.5 234.5t64.5 217.5q0 88 -32.5 161t-101.5 125t-177.5 82t-257.5 30q-166 0 -302 -38 t-233.5 -99.5t-152 -142.5t-54.5 -167q0 -55 24 -88t65 -33q27 0 47 11q29 57 73.5 97t101 66.5t121 43t132.5 24.5zM985 188q-59 0 -168.5 33t-232.5 74q47 68 79.5 139.5t55.5 147.5q100 -43 168.5 -82t110.5 -76t60.5 -74t18.5 -76q0 -41 -26.5 -63.5t-65.5 -22.5z" />
<glyph unicode="C" horiz-adv-x="1044" d="M520 -94q90 0 179 30.5t171 78.5t154 109.5t124 123t82 118t30 95.5q0 37 -23 51t-55 14q-47 -72 -107.5 -130t-128 -101t-137.5 -66.5t-133 -23.5q-133 0 -183.5 72.5t-50.5 218.5q0 133 36 266t88 240.5t108.5 175t99.5 67.5q31 0 50.5 -28.5t19.5 -100.5q0 -16 -3 -49 t-10.5 -69.5t-16.5 -75.5t-21 -68q10 -18 28.5 -27.5t57.5 -9.5q55 0 103 35t84 91t57.5 127t21.5 142q0 131 -65.5 204t-219.5 73q-90 0 -181 -45t-177 -123t-162 -182.5t-132 -225t-89 -251t-33 -256.5q0 -246 113.5 -373t320.5 -127z" />
<glyph unicode="D" horiz-adv-x="1490" d="M147 311q-49 0 -71.5 -29.5t-22.5 -68.5q0 -33 9.5 -71t28 -70.5t45 -55t61.5 -22.5q41 0 85 19.5t105 68.5q135 -66 241.5 -95.5t200.5 -29.5q150 0 266.5 57.5t196.5 154.5t122 224t42 266q0 178 -54 334t-161.5 271.5t-268.5 182t-372 66.5q-141 0 -245.5 -33.5 t-172 -83.5t-100.5 -108.5t-33 -107.5t26.5 -85t74.5 -36q92 72 174 99.5t186 27.5h43q16 0 39 -4q-18 -86 -50 -210t-70 -251t-79 -240.5t-76 -181.5q-57 6 -94 9t-76 3zM1133 594q0 -80 -16.5 -153.5t-52.5 -129t-91 -88.5t-133 -33q-59 0 -127 14.5t-166 43.5 q33 55 70.5 144t75.5 201t74 244t64 273q154 -86 228 -224t74 -292z" />
<glyph unicode="E" horiz-adv-x="1052" d="M483 -111q106 0 207 33t189 86t160.5 117.5t123.5 128t80 119t29 88.5q0 37 -22.5 51t-55.5 14q-45 -68 -111.5 -133t-144.5 -116.5t-159 -83t-152 -31.5q-92 0 -134 45t-42 123q0 43 25.5 101t66.5 101q33 -25 70.5 -40t66.5 -15q37 0 72.5 19.5t63.5 52.5t44.5 75 t16.5 85q0 23 -19.5 37t-79.5 14q-29 0 -72.5 -4t-78.5 -13q-16 41 -26.5 96.5t-10.5 108.5q0 59 14 113.5t37 96.5t50.5 67.5t56.5 25.5q25 0 42 -22.5t17 -81.5q0 -78 -41 -164q6 -16 22.5 -26.5t51.5 -10.5q43 0 86 18.5t76.5 55.5t55 93t21.5 132q0 117 -65.5 180.5 t-208.5 63.5q-106 0 -200.5 -47t-165 -124t-111.5 -172t-41 -194q0 -92 28.5 -164.5t73.5 -119.5q-82 -39 -141.5 -89.5t-99 -106.5t-59 -113.5t-19.5 -112.5q0 -80 28.5 -145.5t81.5 -112.5t130 -73t173 -26z" />
<glyph unicode="F" horiz-adv-x="1341" d="M260 1116q0 150 162 150q84 0 197.5 -19.5t277.5 -72.5q-51 -90 -81 -161t-52 -159q-23 -2 -40 -5t-32 -11q-29 -16 -42 -40t-13 -50q0 -31 14.5 -61t40.5 -52q-182 -121 -295.5 -216t-177 -172t-86 -140.5t-22.5 -120.5q0 -135 79.5 -214t233.5 -79q109 0 198 47 t157.5 131t118.5 199.5t81 253.5q2 10 10 44.5t18.5 74.5t18.5 77t10 49q4 0 24.5 -4t54.5 -9t61 -5q104 0 172.5 49t68.5 152q0 23 -11 46t-26 33q-41 -12 -90 -20t-125 -10q-20 0 -41.5 3t-46.5 7q16 96 31.5 163.5t38.5 137.5q70 -20 142.5 -28.5t125.5 -8.5 q57 0 108.5 15.5t89.5 44t59.5 67.5t21.5 88q0 18 -7.5 43t-17.5 35q-74 0 -146.5 4t-169 16.5t-229.5 33t-325 55.5q-59 10 -103.5 17t-80 10t-69.5 4t-71 1q-111 0 -193.5 -36.5t-139 -98t-85 -141.5t-28.5 -166q0 -70 22.5 -130t58 -106.5t81 -73t92.5 -26.5q84 0 125 42 t41 97q-106 61 -147.5 123t-41.5 123zM666 418q-47 -264 -104.5 -391t-115.5 -127q-35 0 -55 25.5t-20 88.5q0 29 13 65t46 84t90.5 110.5t145.5 144.5z" />
<glyph unicode="G" horiz-adv-x="1179" d="M1085 377q39 78 61.5 133t22.5 104q0 25 -19.5 44.5t-51 31.5t-71.5 19.5t-83 7.5q-55 0 -84 -19.5t-41 -61.5t-15 -110.5t-9 -167.5q-96 -45 -181 -45q-78 0 -125 49.5t-47 151.5q0 84 19.5 172t53.5 170t76 153.5t88 126t92 85t85 30.5q29 0 41 -21.5t12 -80.5 q0 -23 -4 -50.5t-9 -56t-12 -54t-14 -44.5q10 -18 34 -27.5t52 -9.5q47 0 90.5 28t75 75t51 109.5t19.5 129.5q0 53 -13.5 99.5t-43 79t-77.5 51t-116 18.5q-90 0 -186.5 -41t-187.5 -114.5t-172 -173t-141 -216t-96 -247t-36 -261.5q0 -100 25.5 -181t78.5 -134 q-68 -27 -101.5 -79t-33.5 -122q0 -84 37 -152.5t101.5 -118.5t153.5 -78t194 -28q147 0 243.5 68t151.5 173.5t77.5 233.5t26.5 246zM479 35q78 0 159 30.5t150 84.5q-4 -70 -3 -132.5t-8 -109.5t-34.5 -75t-83.5 -28q-94 0 -172.5 69t-132.5 179q55 -18 125 -18z" />
<glyph unicode="H" horiz-adv-x="1785" d="M1071 1593q-43 0 -85 -12t-77 -36.5t-56.5 -64.5t-21.5 -96q0 -37 11.5 -69.5t26 -64t25.5 -63.5t11 -65q0 -43 -6 -115.5t-15.5 -152.5t-21.5 -158t-22 -131q-92 -6 -174 -11t-181 -13q-121 -10 -201.5 -35t-132 -65t-73 -95t-21.5 -125q0 -82 30 -152.5t81 -122.5 t120.5 -82t149.5 -30q109 0 205 45t177 123t146.5 181.5t114.5 222.5q61 8 121 17t92 19q-25 -123 -39 -224t-14 -144q0 -86 37 -122t108 -36q63 0 134 29.5t140 78t130 107.5t109.5 118.5t76 113t27.5 86.5t-24.5 50t-55.5 17q-61 -86 -116.5 -146.5t-100.5 -99.5t-76 -56 t-43 -17q-16 0 -22 10t-6 43q0 29 12 102.5t28 165.5q43 31 84 85t41 124q0 29 -16 61.5t-53 49.5q31 125 55.5 196.5t53 109.5t68.5 51t103 19q16 16 28.5 44t12.5 55q0 82 -56 128t-142 46q-80 0 -144.5 -39t-117 -133t-96.5 -255t-87 -403q-41 -16 -91 -26t-91 -21 q16 61 31.5 143.5t28 170.5t20.5 172t8 147q0 193 -46 271.5t-122 78.5zM518 338q74 4 130.5 8t133.5 12q-41 -111 -101 -186.5t-132 -75.5q-31 0 -62.5 14.5t-57.5 38t-42 53t-16 60.5q0 33 31.5 52.5t115.5 23.5z" />
<glyph unicode="I" horiz-adv-x="1030" d="M328 1309q0 -37 18 -62q68 -8 138.5 -20.5t140.5 -24.5q-27 -123 -54.5 -252t-57.5 -253t-58.5 -240.5t-57.5 -216.5q-104 -8 -173.5 -22.5t-112.5 -36t-61.5 -51.5t-18.5 -71t20 -61q119 0 205 -3t154.5 -6t127 -5t121.5 -2q162 0 247 35.5t85 134.5q0 23 -7 49t-21 45 q-59 4 -115.5 5t-118.5 1q37 111 91 326t136 571q127 0 205 53t78 156q0 43 -21.5 77.5t-56.5 51.5q-66 -23 -124 -32t-130 -9q-74 0 -154.5 2t-195.5 2q-123 0 -176 -39t-53 -102z" />
<glyph unicode="J" horiz-adv-x="1470" d="M664 -145q-96 0 -170 72.5t-103 191.5q47 -20 109.5 -39t129 -33t130 -22.5t112.5 -10.5q-39 -76 -90.5 -117.5t-117.5 -41.5zM1104 1161q20 0 27.5 -18.5t7.5 -48.5q0 -59 -17.5 -172t-46 -244t-64.5 -264t-75 -234q-47 2 -119 15.5t-148.5 34t-151.5 44t-130 48.5 q0 49 -22.5 82.5t-69.5 33.5t-93 -18.5t-82 -57t-57.5 -101t-21.5 -148.5q0 -104 41 -198.5t116.5 -165.5t180 -113t231.5 -42q199 0 344.5 100.5t255.5 313.5q109 43 195 101.5t146.5 120t93 120t32.5 101.5q0 31 -22.5 48t-50.5 17q-72 -111 -147 -179.5t-161 -109.5 q35 90 72 214t66.5 255t48 252t18.5 205q0 166 -67.5 246t-212.5 80q-88 0 -169 -32t-151 -85t-126 -120.5t-97 -140.5t-62.5 -144.5t-21.5 -131.5q0 -92 40 -146t111 -54q37 0 74 14q10 66 38 156t68 171t86 138t93 57z" />
<glyph unicode="K" horiz-adv-x="1421" d="M469 825q-92 29 -135 66t-43 102q0 51 28.5 106.5t68.5 101.5t79 75t61 29q37 0 37 -54q0 -41 -24.5 -153.5t-71.5 -272.5zM821 635q-59 0 -102 -6q37 152 66.5 279.5t50 226t32 162t11.5 87.5q0 82 -50.5 134.5t-158.5 52.5q-63 0 -135 -27.5t-144 -76t-137.5 -113 t-115.5 -136t-79.5 -148.5t-29.5 -150q0 -68 26.5 -120t70.5 -89t103.5 -56.5t126.5 -19.5q14 0 32 1t32 3l-27 -125q-66 -92 -100.5 -179t-34.5 -145q0 -43 20.5 -81.5t53.5 -68.5t73.5 -48.5t81.5 -18.5q59 0 86 27l95 434q35 -12 63.5 -37.5t57 -73t63.5 -120t84 -176.5 q18 -41 35.5 -69t37 -44t42 -22.5t51.5 -6.5q55 0 108.5 17.5t96.5 47.5t69.5 68.5t26.5 81.5q0 18 -6 39t-19 35q-18 -4 -43.5 -8t-40.5 -4q-23 0 -40 12t-35 49q-27 53 -53.5 106.5t-54.5 98.5t-55.5 80t-54.5 53q72 63 151 156.5t173 228.5q47 68 79 109t56.5 62.5 t46 28.5t52.5 9q20 23 28 50.5t8 51.5q0 39 -13 77t-38.5 68t-62.5 48t-86 18q-41 0 -74 -9t-63.5 -39.5t-65.5 -91t-78 -163.5q-31 -74 -67.5 -149.5t-74.5 -145t-77 -131t-74 -104.5z" />
<glyph unicode="L" horiz-adv-x="1284" d="M453 608q-27 -63 -56.5 -124.5t-64.5 -129.5q-68 6 -119 6q-117 0 -163 -34.5t-46 -106.5q0 -43 16.5 -91t44 -89t62.5 -67.5t74 -26.5q47 0 95 29.5t103 82.5q152 -35 267.5 -71.5t203.5 -77.5t156 -85t123 -93q55 16 95 71.5t40 132.5q0 53 -26.5 109.5t-100.5 110 t-204 100.5t-335 82q23 33 46.5 70.5t45 75.5t38 73t26.5 61q172 53 297 124t207 150t122 161t40 159q0 66 -29 127.5t-81 108.5t-126 75.5t-164 28.5q-78 0 -146.5 -35.5t-121.5 -121.5q-20 -35 -48 -93.5t-59.5 -134t-65.5 -164t-67 -180.5q-47 10 -99 34t-97 58 q-41 -25 -63.5 -59.5t-22.5 -81.5q0 -61 57.5 -106.5t145.5 -57.5zM948 1167q20 68 41 88.5t41 20.5q61 0 107.5 -34t46.5 -81q0 -90 -94.5 -180t-255.5 -156z" />
<glyph unicode="M" horiz-adv-x="2129" d="M395 119q-49 4 -68.5 27.5t-19.5 91.5q0 35 15.5 95t44.5 126q-12 29 -41 45t-72 16q-53 0 -101.5 -26.5t-84 -73.5t-56 -115.5t-20.5 -150.5q0 -150 75.5 -231t227.5 -81q100 0 193.5 47.5t186.5 158t190.5 290.5t205.5 446q2 -23 8 -67.5t12.5 -103t12.5 -124 t10 -129.5q-47 -43 -76.5 -75.5t-47 -57t-25 -44t-7.5 -38.5q0 -80 48.5 -121.5t119.5 -41.5q66 0 127.5 40.5t108.5 104t74.5 139.5t27.5 148l250 307q-29 -117 -46 -201t-27.5 -151.5t-14.5 -125t-4 -116.5q0 -90 37 -132t131 -42q49 0 109.5 27.5t122 70.5t120 98.5 t103.5 110.5t72.5 105.5t27.5 83.5t-24.5 50t-55.5 17q-53 -76 -101 -130t-87 -88t-67 -49.5t-38 -15.5q-31 0 -30 33q0 37 6 119t18 188.5t31.5 228.5t48.5 238q45 45 88 85t76 74t52 61.5t19 52.5q0 61 -45 93t-100 32q-260 0 -352 -379l-340 -410q-8 70 -21.5 150 t-28 159.5t-27.5 152.5t-24 128q74 104 107 165.5t33 100.5q0 37 -37 72t-121 35q-70 0 -133.5 -34t-111.5 -86t-76.5 -116.5t-28.5 -128.5q0 -59 6 -102t23 -101q-129 -276 -226.5 -455t-170 -283.5t-124 -145.5t-88.5 -41z" />
<glyph unicode="N" horiz-adv-x="1765" d="M1483 657q-18 45 -54 107.5t-76 130.5t-78 131.5t-61 112.5q74 121 104 185.5t30 105.5q0 37 -37 71.5t-121 34.5q-70 0 -127 -26.5t-99 -71.5t-64.5 -102.5t-22.5 -121.5q0 -59 9 -111t32 -120q-111 -262 -192 -430t-139.5 -264t-97 -133t-67.5 -37q-33 0 -44 21.5 t-11 76.5q0 35 15 95.5t44 125.5q-12 29 -41 45.5t-72 16.5q-53 0 -101 -27t-84 -74t-56.5 -115.5t-20.5 -150.5q0 -141 66.5 -216t218.5 -75q88 0 173 46t171 156t177 288t192 442q37 -59 75.5 -129t73.5 -137.5t63.5 -125.5t43.5 -97q-37 -100 -52.5 -154.5t-15.5 -89.5 q0 -45 42 -71.5t122 -26.5q49 0 93 17t76 51t51 81t19 107q0 53 -6 118.5t-14 108.5q49 188 87 321.5t67.5 223.5t55 142t53.5 80t60.5 38t77.5 14q16 16 28.5 44t12.5 54q0 78 -47 125.5t-131 47.5q-76 0 -128 -34t-95 -128t-84 -262.5t-94 -434.5z" />
<glyph unicode="O" horiz-adv-x="1341" d="M1057 193q31 -23 74 -35.5t86 -12.5q70 0 132 35t109 83t75 100.5t28 87.5t-26 53t-54 20q-53 -88 -110.5 -132t-104.5 -44q-25 0 -50.5 7t-41.5 20q55 90 94 189.5t65.5 195.5t38.5 182t12 150q0 63 -17 121.5t-51 104.5t-85 73.5t-119 27.5q-47 0 -86 -12t-70 -33 q-4 51 -34.5 85t-81.5 34q-80 0 -166 -42t-168 -114.5t-157 -172t-131 -212t-89 -235.5t-33 -244q0 -274 118 -406.5t341 -132.5q160 0 288 71t214 188zM463 545q0 123 33.5 232.5t88 203.5t125 167t144.5 122q-59 -111 -89 -227.5t-30 -264.5q0 -141 37 -249.5t102 -186.5 q-37 -53 -93 -79.5t-115 -26.5q-100 0 -151.5 85t-51.5 224zM1016 555q-25 59 -35 129t-10 141q0 80 10 158t23 143q74 -8 95 -48t21 -109q0 -25 -6 -73t-19.5 -106.5t-32.5 -121t-46 -113.5z" />
<glyph unicode="P" horiz-adv-x="1349" d="M901 1597q-25 0 -53.5 -9t-53 -24.5t-44 -38t-25.5 -46.5q-102 -16 -188 -49t-147.5 -76t-95.5 -94.5t-34 -100.5q0 -53 29.5 -80.5t64.5 -27.5q43 41 123 75.5t168 51.5q-18 -80 -41.5 -179.5t-48.5 -205t-50.5 -210t-49.5 -194.5q-41 -145 -81 -218t-89 -73 q-29 0 -60.5 20.5t-64.5 55.5q-29 -2 -54.5 -15.5t-45 -36t-32 -51t-12.5 -59.5q0 -92 61.5 -148.5t168.5 -56.5q170 0 294 115t199 330q123 6 251 66.5t232.5 164t171 239.5t66.5 292q0 92 -26.5 174t-85 144.5t-153.5 103.5t-232 51q0 70 -9.5 90t-52.5 20zM1139 924 q0 -84 -22.5 -160t-63.5 -133.5t-97.5 -92t-124.5 -34.5h-12t-16 2q16 86 31.5 178t29 179t23.5 167t18 146q70 -12 115 -38t71.5 -58.5t37 -72.5t10.5 -83z" />
<glyph unicode="Q" horiz-adv-x="1292" d="M-41 33q0 -53 20.5 -103.5t54.5 -90.5t76 -64.5t87 -24.5q70 0 138 17.5t128 50.5q82 -59 208 -131t269 -134.5t290.5 -104.5t274.5 -42q123 0 205 35t133 106q115 47 158 94.5t43 112.5q0 18 -8 43t-24.5 46.5t-39 37t-53.5 15.5q-25 0 -46.5 -32t-53.5 -128 q-43 -10 -83 -13.5t-85 -3.5q-121 0 -242 28t-239.5 70t-232.5 90t-220 89q162 145 291 287.5t219 284t139 281.5t49 281q0 74 -22.5 140.5t-65.5 118t-104.5 82t-141.5 30.5q-33 0 -83 -14t-80 -62q-4 33 -30 51.5t-69 18.5q-61 0 -126.5 -19.5t-133.5 -62.5 q-98 -63 -175 -154.5t-129 -192.5t-78.5 -204.5t-26.5 -189.5q0 -72 22.5 -140.5t68.5 -122t114.5 -87t158.5 -33.5q41 0 83 26.5t46 85.5q-41 35 -67.5 68t-43 69.5t-22.5 80t-6 96.5q0 61 18.5 137t61.5 158t112.5 162.5t171.5 152.5q-8 -18 -8 -45q0 -39 16.5 -61.5 t47.5 -42.5q70 -47 94 -80t24 -74q0 -84 -37.5 -190.5t-109.5 -227.5t-173 -252t-228 -262q-92 33 -184.5 49.5t-151.5 16.5t-98.5 -8.5t-62 -23.5t-30.5 -38.5t-8 -52.5z" />
<glyph unicode="R" horiz-adv-x="1392" d="M881 592q-23 6 -50.5 10t-56.5 4q-37 0 -67 -6q47 199 73.5 350.5t30.5 249.5q133 -10 186.5 -68.5t53.5 -140.5q0 -47 -8.5 -90t-28 -90t-52 -100t-81.5 -119zM1384 162q-18 -4 -43.5 -8t-40.5 -4q-23 0 -40 12t-35 49q-53 109 -108.5 184.5t-88.5 106.5 q174 162 263 303t89 295q0 90 -32.5 165.5t-99 131t-166 86t-230.5 30.5q-164 0 -307.5 -51t-250 -129t-167.5 -169t-61 -169q0 -55 23.5 -88t64.5 -33q27 0 47 11q27 51 67.5 102t92 94t110.5 73t123 38q-55 -182 -106.5 -334.5t-96.5 -286.5q-33 -96 -53.5 -162.5 t-30.5 -110.5t-14 -72.5t-4 -49.5q0 -31 14 -65.5t40 -64.5t61.5 -50.5t78.5 -20.5q76 0 103 37q2 27 7 70t14 96t21.5 112.5t26.5 115.5q35 -12 65 -38t60.5 -74t66.5 -121t85 -177q18 -41 35.5 -68.5t37 -44t42 -22.5t51.5 -6q63 0 119.5 20.5t99.5 54t67.5 74.5t24.5 84 q0 18 -6.5 39t-18.5 35z" />
<glyph unicode="S" horiz-adv-x="1101" d="M31 256q0 -84 29.5 -158.5t89 -131t148.5 -89.5t208 -33q129 0 232.5 47.5t175 121t110.5 163.5t39 176q0 45 -7 87t-28.5 92.5t-61.5 115t-104 156.5q-45 61 -74.5 108t-47 84t-24.5 66t-7 53q0 45 23.5 71.5t58.5 26.5q57 0 117.5 -31.5t142.5 -99.5q35 16 61.5 62.5 t26.5 105.5q0 45 -17.5 90t-54.5 81t-96.5 57.5t-141.5 21.5q-96 0 -176 -42t-137 -108.5t-89 -150.5t-32 -170q0 -96 31 -186t113 -195q72 -90 112.5 -149.5t60 -98.5t24.5 -65.5t5 -50.5q0 -78 -39.5 -127.5t-99.5 -49.5q-51 0 -99 24t-85 73t-58.5 124.5t-21.5 180.5v39 q-27 33 -84 33q-53 0 -95 -30t-71 -76t-43 -104.5t-14 -113.5z" />
<glyph unicode="T" horiz-adv-x="1249" d="M1069 246q16 53 33.5 125.5t35 153.5t36 167t36 165t35 145.5t31.5 109.5q41 -12 67.5 -19.5t50 -11.5t47 -5t56.5 -1q57 0 108.5 15.5t89.5 45t60.5 70.5t22.5 94q0 18 -8.5 39t-18.5 29q-88 2 -165 8t-173 22.5t-225 44t-320 70.5q-133 31 -230 44.5t-192 13.5 q-80 0 -154.5 -38t-133 -102.5t-93 -149.5t-34.5 -177q0 -154 81 -230.5t220 -76.5q68 0 144.5 11t153.5 30.5t149.5 46t133.5 55.5q-12 -37 -21 -79t-23.5 -103.5t-33 -150.5t-49.5 -218q-35 -147 -67.5 -219t-81.5 -72q-18 0 -43 12.5t-50.5 34t-52 48t-47.5 55.5 q-78 -2 -120.5 -46t-42.5 -116q0 -55 22.5 -102t62.5 -82t94 -54.5t118 -19.5q168 0 298 102.5t193 315.5zM481 1042q-92 0 -145 38t-53 118q0 61 34.5 97t94.5 36q33 0 80 -7t118.5 -24.5t173 -48t242.5 -77.5q-20 -20 -41.5 -57.5t-32.5 -65.5q-10 16 -34.5 23t-51.5 7 q-18 0 -60 -6t-95.5 -13t-114 -13.5t-115.5 -6.5z" />
<glyph unicode="U" horiz-adv-x="1294" d="M74 1268q0 -45 30.5 -89t77.5 -53q55 53 107.5 85t83.5 32q25 0 41 -12t16 -51q0 -25 -7 -63t-26.5 -100.5t-53.5 -154.5t-85 -223q-33 -82 -56.5 -179.5t-23.5 -174.5q0 -170 106.5 -263.5t293.5 -93.5q119 0 232.5 57.5t212.5 179.5t181 314.5t142 462.5q27 66 43 113 t25 81.5t12.5 61.5t3.5 53q0 29 -20.5 63t-54.5 62.5t-76 47t-85 18.5q-80 0 -116 -76t-36 -195q0 -59 7.5 -124.5t23.5 -135.5q-80 -348 -191.5 -528t-217.5 -180q-129 0 -129 147q0 47 20 129t80 232q45 115 73.5 198.5t45 149t22.5 117t6 100.5q0 53 -17 99t-52 80 t-88.5 53.5t-126.5 19.5q-90 0 -168 -19.5t-135.5 -55.5t-89 -83t-31.5 -102z" />
<glyph unicode="V" horiz-adv-x="1468" d="M1329 1505q-76 0 -128 -32.5t-64 -98.5q78 -92 111.5 -171t33.5 -150q0 -152 -50 -296.5t-122 -257t-154 -181t-145 -68.5q-51 0 -71.5 30.5t-20.5 73.5q0 51 14.5 106.5t50.5 143.5q55 129 100.5 230.5t76 183.5t48 148.5t17.5 125.5q0 133 -65.5 186.5t-178.5 53.5 q-61 0 -135 -23.5t-148.5 -65.5t-146 -98.5t-127 -123t-89.5 -139t-34 -144.5q0 -66 27 -119t73 -91t108.5 -59.5t131.5 -23.5q-84 -197 -84 -317q0 -78 17.5 -143.5t59.5 -113.5t109.5 -76t168.5 -28q100 0 205.5 50.5t205 137.5t187.5 203.5t153.5 248.5t103.5 274.5 t38 281.5q0 70 -18.5 131.5t-53.5 108.5t-86 74.5t-119 27.5zM377 989q0 55 34.5 108.5t81 95.5t91.5 67.5t67 25.5q20 0 29.5 -10t9.5 -49q0 -55 -52 -158.5t-118 -247.5q-80 41 -111.5 79t-31.5 89z" />
<glyph unicode="W" horiz-adv-x="1939" d="M442 645q-59 -123 -83.5 -227.5t-24.5 -163.5q0 -143 70.5 -229t226.5 -86q106 0 207.5 50t201.5 163q41 -92 103.5 -136.5t140.5 -44.5q100 0 196.5 48.5t182.5 133.5t158.5 198.5t125 243.5t81 271.5t28.5 278.5q0 70 -17.5 132t-51 110.5t-84 77t-117.5 28.5 q-76 0 -125 -33t-62 -98q41 -47 70 -85t47.5 -73t26.5 -71.5t8 -79.5q0 -152 -41 -300.5t-103.5 -265t-136 -188.5t-137.5 -72q-39 0 -62.5 35t-37.5 94q53 78 104.5 164t92 175t65.5 178.5t25 175.5q0 68 -41 104.5t-107 36.5q-72 0 -137.5 -69.5t-115.5 -181.5t-80.5 -253 t-30.5 -283q-59 -84 -111.5 -132t-105.5 -48q-51 0 -76 31t-25 74q0 51 14.5 109.5t51.5 146.5q55 129 104 233.5t86 190.5t58.5 155.5t21.5 128.5q0 133 -65.5 186.5t-178.5 53.5q-61 0 -135 -23.5t-148.5 -65.5t-146 -98.5t-127 -123t-89.5 -139t-34 -144.5q0 -66 27 -119 t73 -91t108 -59.5t132 -23.5zM377 989q0 55 34.5 108.5t81 95.5t91.5 67.5t67 25.5q20 0 29.5 -10t9.5 -49q0 -55 -52 -158.5t-118 -247.5q-80 41 -111.5 79t-31.5 89z" />
<glyph unicode="X" horiz-adv-x="1609" d="M100 221q0 -80 25 -138t68 -96t98 -56.5t117 -18.5q68 0 132 24.5t130.5 81t139.5 148.5t159 227q25 -137 52.5 -222t61 -133t78.5 -65.5t105 -17.5q63 0 129.5 27.5t128 71.5t117 99.5t96.5 110.5t64.5 104.5t23.5 80.5q0 29 -19.5 51t-56.5 22q-94 -133 -174 -209.5 t-135 -76.5q-27 0 -45.5 14t-37 67.5t-40 158t-51.5 282.5q92 117 159.5 188.5t126 116.5t114.5 71.5t128 51.5q20 35 21 76q0 63 -41 100t-111 37q-41 0 -84 -17.5t-93 -61.5t-113.5 -119t-147.5 -191q-33 168 -59.5 273.5t-53.5 164.5t-57.5 80.5t-69.5 21.5 q-45 0 -89 -31.5t-78 -76.5t-54.5 -96.5t-20.5 -90.5q0 -104 80 -133l23 -112q-188 -76 -328.5 -176.5t-232.5 -207t-138.5 -212t-46.5 -193.5zM874 856l50 -219q-145 -197 -241.5 -304.5t-164.5 -107.5q-70 0 -69 80q0 47 22.5 109.5t73.5 135.5t131.5 150.5t197.5 155.5z " />
<glyph unicode="Y" horiz-adv-x="1486" d="M1268 152q12 41 25.5 90t23.5 96q8 43 23.5 113.5t33 156.5t35.5 182.5t37 190.5q61 113 89 178.5t28 118.5q0 29 -18.5 62.5t-49.5 62.5t-68.5 47t-76.5 18q-49 0 -89 -49t-73 -154.5t-61.5 -273.5t-55.5 -407q-61 -68 -138 -105t-142 -37q-29 0 -47.5 17.5t-18.5 52.5 q0 18 3 36.5t11.5 46.5t24.5 67.5t43 99.5q78 172 123 274.5t67.5 160.5t27.5 88t5 58q0 168 -209 168q-61 0 -137 -22.5t-155.5 -61t-156.5 -93t-136.5 -118t-96.5 -134t-37 -142.5q0 -66 28 -119t74 -92t108.5 -60.5t131.5 -23.5q-35 -92 -49 -156.5t-14 -119.5 q0 -115 64.5 -185.5t183.5 -70.5q109 0 217 63.5t192 177.5q-20 -90 -37.5 -169t-39.5 -132q-231 -117 -334 -192.5t-103 -139.5q0 -41 22.5 -73.5t56.5 -56t74 -37t75 -13.5q72 0 136 29t119.5 77t100.5 111.5t78 132.5q82 51 171 125t164.5 153t125 154.5t49.5 133.5 q0 35 -21.5 50t-50.5 17q-86 -129 -172 -214.5t-184 -157.5zM377 991q0 55 34.5 104.5t82 87.5t92.5 60.5t67 22.5q20 0 29.5 -9.5t9.5 -35.5q0 -29 -15 -68t-41 -89t-57.5 -110.5t-64.5 -132.5q-80 41 -108.5 80t-28.5 90z" />
<glyph unicode="Z" horiz-adv-x="1171" d="M1020 1012q-35 -49 -93.5 -117t-128 -139.5t-144 -139t-138.5 -118.5q-49 41 -85 58t-81 17q-72 0 -123 -36.5t-84.5 -91t-49 -117t-15.5 -113.5q0 -104 22.5 -141t61.5 -37q43 0 104.5 30.5t106.5 71.5q78 -147 139 -255.5t111.5 -185.5t94.5 -125t86 -74.5t87 -37 t98 -10.5q88 0 172 30t149.5 77t106.5 106.5t41 118.5q0 41 -17.5 72.5t-39.5 42.5q-152 -82 -266 -82q-27 0 -49.5 5t-49 23.5t-60.5 53t-79 93t-105.5 144.5t-142.5 205q92 80 169 149.5t144.5 141t132 151.5t136.5 181q123 80 174 150.5t51 135.5q0 27 -11 57.5 t-30.5 56.5t-46.5 42t-57 16q-29 0 -54.5 -26.5t-56.5 -73.5q-113 43 -199 72.5t-154.5 47t-128 26t-116.5 8.5q-55 0 -103 -22.5t-84 -59.5t-56.5 -87.5t-20.5 -105.5q0 -63 23.5 -99t64.5 -48q53 31 94 44t70 13q72 0 181.5 -28.5t248.5 -69.5z" />
<glyph unicode="[" horiz-adv-x="950" d="M541 1268q-16 -78 -38 -184.5t-47.5 -226.5t-52 -245t-52 -242.5t-49 -219t-42.5 -173.5q-10 -43 -17 -72.5t-11.5 -52t-5.5 -40t-1 -35.5q0 -70 50.5 -110t189.5 -40q168 0 251 49.5t83 122.5q0 29 -15 51l-301 33q76 229 153 544.5t157 690.5q72 0 133 15.5t105 42 t69.5 61.5t25.5 74q0 57 -39 86q-35 -6 -86 -10.5t-105 -5.5t-105.5 -2t-88.5 -1q-84 0 -117.5 -29.5t-43.5 -80.5z" />
<glyph unicode="\" horiz-adv-x="962" d="M821 -213q-25 104 -49 235.5t-47 272.5t-42 283.5t-36 267.5q-29 225 -79 326.5t-138 101.5q-47 0 -80 -23.5t-39 -81.5q18 -35 34.5 -78.5t34 -105t35 -140.5t38.5 -181q41 -211 70.5 -360.5t53 -251t43 -162t40 -93.5t43 -42t51.5 -9q27 0 44 12.5t23 28.5z" />
<glyph unicode="]" horiz-adv-x="987" d="M354 -125q-14 0 -56 -3t-89 -5t-87 -4t-48 -2q-14 -18 -18.5 -31.5t-4.5 -32.5q0 -35 25.5 -66.5t73 -56t113 -39t143.5 -14.5q74 0 121.5 42t76.5 147q51 193 93 358.5t79 324t73 322.5t77 356q4 23 7 47.5t3 41.5q0 109 -135 108q-35 0 -90.5 -2t-118 -6t-127 -9 t-113.5 -12q-23 -27 -22 -69q0 -59 68.5 -102.5t219.5 -59.5q-18 -86 -39.5 -193.5t-45 -224.5t-49 -234.5t-49 -226t-44.5 -201t-37 -153.5z" />
<glyph unicode="^" horiz-adv-x="866" d="M573 893q0 -66 22.5 -97.5t82.5 -31.5q57 0 106.5 28.5t71.5 67.5q-2 31 -3 60.5t-1 48.5q0 131 -8 219t-29.5 142t-61.5 78t-104 24q-61 0 -119.5 -30t-110.5 -77t-96 -106.5t-76 -120t-49.5 -114.5t-17.5 -93q0 -53 24.5 -81t61.5 -28q27 0 49 9q57 182 119 272t98 90 q12 0 20.5 -11.5t13.5 -41t6 -79.5t1 -128z" />
<glyph unicode="_" horiz-adv-x="946" d="M322 180q-47 -4 -76 -15t-46.5 -28.5t-23.5 -39t-6 -42.5q0 -12 5 -27.5t15 -25.5q61 -4 144.5 -7t146.5 -3q195 0 294 47t99 143q0 72 -63 88q-47 -20 -85 -33.5t-89 -22.5t-124.5 -17.5t-190.5 -16.5z" />
<glyph unicode="`" horiz-adv-x="593" d="M375 1571q-25 29 -70 28q-82 0 -126 -52t-44 -117q0 -12 2 -24.5t6 -23.5q53 -147 122 -230t132 -83q35 0 53.5 17.5t20.5 41.5q-35 90 -59.5 210t-36.5 233z" />
<glyph unicode="a" d="M485 238q-6 -47 -6 -80q0 -98 40 -133t108 -35q37 0 87 24.5t104 65.5t107.5 91t95.5 102.5t67.5 99.5t25.5 80q0 29 -21.5 46t-54.5 17q-98 -139 -172.5 -200.5t-105.5 -61.5q-12 0 -18.5 8t-6.5 39q0 41 22.5 143.5t76.5 296.5q12 43 17 79t5 57q0 27 -14.5 56.5 t-41 54t-67.5 39.5t-92 15q-47 0 -72 -26l-6 -119q-14 14 -53 14q-78 0 -159 -55t-147.5 -144t-109.5 -202t-43 -227q0 -141 57.5 -212t145.5 -71q27 0 57.5 11.5t61 38t59 72.5t53.5 116zM487 338q-18 -23 -38.5 -37t-42.5 -14q-23 0 -38.5 13t-15.5 71q0 59 17.5 118.5 t45 112.5t63.5 95t75 67z" />
<glyph unicode="b" horiz-adv-x="829" d="M866 702q0 117 -41 170.5t-125 53.5q-41 0 -77.5 -17.5t-64.5 -46t-44 -66.5t-16 -77q0 -23 6 -49q55 -16 74.5 -43t19.5 -86q0 -51 -18.5 -108.5t-47 -105.5t-61.5 -80t-61 -32q-10 0 -16.5 7t-10.5 29.5t-6 62.5t-2 108q0 27 2 67.5t7 88t11 98.5t15 98 q94 131 156.5 227.5t99 166t52 115.5t15.5 77q0 74 -35.5 106.5t-97.5 32.5q-66 0 -130 -50t-122.5 -136t-108 -200t-86 -242t-57 -263t-20.5 -262q0 -197 64.5 -285t189.5 -88q100 0 196.5 70t172 177.5t121.5 235t46 246.5z" />
<glyph unicode="c" horiz-adv-x="692" d="M338 -18q61 0 127.5 25.5t130 66.5t121 92t99.5 104.5t67.5 102.5t25.5 84q0 33 -25.5 50t-54.5 17q-41 -66 -90 -118t-100 -91t-100.5 -59t-92.5 -20q-59 0 -84.5 35.5t-25.5 121.5q0 78 12 140.5t28.5 106.5t36 67.5t33.5 23.5q10 0 18.5 -10t8.5 -33q0 -20 -5 -54 t-15 -75q12 -18 32.5 -28.5t55.5 -10.5q37 0 71.5 18.5t60 50.5t42 75t16.5 92q0 94 -52 146t-157 52q-82 0 -166 -53t-151.5 -141t-110.5 -201t-43 -231q0 -166 67.5 -256t219.5 -90z" />
<glyph unicode="d" horiz-adv-x="856" d="M61 315q0 -172 74 -252.5t197 -80.5q98 0 202.5 74.5t190.5 210.5t142.5 330t56.5 433q0 117 -28 209t-78 157.5t-121.5 100.5t-157.5 35q-68 0 -118 -16.5t-83 -44t-48.5 -62.5t-15.5 -72q0 -18 6.5 -36.5t20.5 -30.5q145 -10 233.5 -100.5t88.5 -270.5 q0 -125 -20.5 -241.5t-52.5 -208t-69 -146.5t-69 -55q-31 0 -46.5 18.5t-15.5 71.5q0 55 12.5 119.5t39 128t67.5 119t96 92.5q2 8 2 24q0 41 -23.5 64.5t-70.5 23.5q-61 0 -133 -51t-134.5 -134t-103.5 -189.5t-41 -219.5z" />
<glyph unicode="e" horiz-adv-x="735" d="M492 670q0 -47 -27 -88t-113 -58q10 109 43 161t56 52q41 1 41 -67zM344 -18q66 0 137.5 24.5t139 65.5t128 92t105.5 104.5t71.5 103.5t26.5 87q0 25 -20.5 45t-57.5 22q-43 -68 -97 -122t-112.5 -93t-117 -60.5t-109.5 -21.5q-59 0 -78.5 37t-19.5 107q104 25 177 60.5 t118 82.5t65.5 103.5t20.5 121.5q0 109 -56.5 160t-162.5 51q-74 0 -154 -54t-146.5 -142t-108.5 -200t-42 -228q0 -166 70.5 -256t222.5 -90z" />
<glyph unicode="f" horiz-adv-x="716" d="M414 532q29 -23 45 -74.5t16 -123.5q0 -84 -27.5 -184.5t-66.5 -188.5t-82 -147.5t-72 -59.5q-25 0 -24 21q0 6 4 18q16 39 44 120t58.5 182.5t59.5 216t45 220.5zM205 854q-35 -4 -61.5 -42t-26.5 -81q0 -49 57 -51q-10 -47 -27.5 -117.5t-40 -146.5t-45 -149.5 t-41.5 -129.5q-43 -129 -67.5 -208t-37.5 -128t-16 -78.5t-3 -58.5q0 -86 50 -132t154 -46q68 0 137.5 40t134 108.5t121 157.5t98.5 188.5t66.5 201t24.5 193.5q0 109 -36 182.5t-95 106.5q61 -6 129 -7q51 0 85 39t34 99q0 23 -10.5 47t-28.5 39q-10 -2 -46 -5.5t-79 -5.5 t-85 -4t-67 -2q82 141 118 222t36 131q0 49 -21.5 95t-55.5 82t-76 57.5t-83 21.5q-39 0 -65.5 -10.5t-45 -44.5t-31.5 -97.5t-23 -169.5q-4 -31 -7.5 -72t-8.5 -82t-9 -78.5t-6 -64.5z" />
<glyph unicode="g" d="M-35 -182q0 -61 34 -112.5t86 -88.5t117.5 -58.5t127.5 -21.5q61 0 121.5 19.5t112.5 62.5t90 113.5t53 175.5q4 29 9 56l5 26q68 49 139.5 112.5t129 128t94 124t36.5 96.5q0 29 -24.5 47t-63.5 18q-72 -106 -150.5 -186t-144.5 -127q10 96 26.5 205.5t35.5 197.5 q12 55 23.5 98.5t21.5 79t16 65.5t6 60q0 27 -17.5 56.5t-48 54t-72.5 40t-91 15.5q-16 0 -41 -7t-37 -21q0 -37 -3 -94.5t-9 -112.5q-14 14 -53 14q-72 0 -150 -47t-142.5 -125t-107.5 -177t-43 -204q0 -141 58.5 -204.5t146.5 -63.5q37 0 70.5 16.5t62.5 40t49.5 50 t30.5 44.5q-10 -115 -21.5 -209t-15.5 -129q-6 -45 -20.5 -62t-36.5 -17q-25 0 -53.5 18t-60.5 50t-64.5 74t-63.5 91q-39 -2 -70.5 -19.5t-53 -43t-33 -57t-11.5 -62.5zM537 705q-6 -37 -12.5 -85.5t-13.5 -100.5t-13 -105.5t-13 -100.5q-23 -23 -41 -32t-43 -9 q-23 0 -36 14.5t-13 71.5q0 43 12.5 94.5t36 99.5t58.5 88t78 65z" />
<glyph unicode="h" horiz-adv-x="940" d="M123 428q-39 -66 -53.5 -122t-14.5 -103q0 -41 16.5 -79t44 -68.5t65.5 -49t83 -18.5q31 0 55.5 6t38.5 22q2 143 11.5 261t25.5 229q82 70 140 69q16 0 22 -10t6 -22q0 -16 -16.5 -64.5t-37 -110t-36.5 -126t-16 -115.5q0 -86 34.5 -126t126.5 -40q47 0 105.5 27.5 t118 70.5t116 97.5t100.5 108.5t70.5 102.5t26.5 81.5q0 31 -25.5 49t-54.5 18q-100 -143 -184 -217t-113 -74t-28 31q0 18 11 56t26.5 83t34 89t30.5 79q23 59 36 108.5t13 96.5q0 53 -29.5 87t-89.5 34q-59 0 -151 -49t-203 -152l49 193q59 98 99 171.5t64 129t33 96.5 t9 76q0 78 -34 111.5t-99 33.5q-98 0 -166 -62.5t-116 -192.5t-80.5 -332.5t-63.5 -483.5z" />
<glyph unicode="i" horiz-adv-x="520" d="M397 1219q0 -90 39 -134.5t99 -44.5q74 92 105.5 152.5t31.5 97.5q0 25 -15.5 51.5t-41 49t-56.5 38t-61 15.5q-49 0 -75 -50t-26 -175zM133 440q-39 -96 -56.5 -164.5t-17.5 -136.5q0 -86 35 -126t127 -40q47 0 103.5 27t114 69t110.5 94t95 105.5t66.5 100.5t24.5 80 q0 31 -25.5 52t-54.5 21q-102 -145 -169.5 -202.5t-88.5 -57.5q-29 0 -28 31q0 35 20.5 91t63.5 163q29 66 50 125t21 100q0 31 -3 54.5t-13 41t-30.5 26.5t-55.5 9q-47 0 -101.5 -36t-100.5 -87t-76.5 -109.5t-30.5 -103.5q0 -31 4 -64.5t16 -62.5z" />
<glyph unicode="j" horiz-adv-x="544" d="M365 12q68 43 138 101.5t126.5 118t93.5 114.5t37 92q0 31 -25.5 54.5t-54.5 23.5q-74 -104 -146.5 -170.5t-144.5 -114.5q12 86 27.5 169t25.5 135q57 98 83 169.5t26 116.5q0 49 -20.5 73t-79.5 24q-47 0 -105.5 -38t-110 -92.5t-85 -115t-33.5 -105.5q0 -31 4 -64.5 t16 -62.5q-8 -39 -15 -85t-13.5 -95t-11.5 -98t-9 -92l-164 -105q-63 -41 -102 -71.5t-60.5 -59.5t-28.5 -57.5t-7 -63.5q0 -123 67.5 -198.5t179.5 -75.5q61 0 121 24.5t111 73.5t87 125t50 180q4 29 10.5 75t12.5 95zM80 -115l-4 -42t-8 -99q-4 -43 -13.5 -62.5 t-31.5 -19.5q-31 0 -51.5 26.5t-20.5 71.5q0 23 13 39.5t44 36.5zM408 1288q0 -88 33.5 -146.5t105.5 -58.5q74 92 94.5 151.5t20.5 96.5q0 25 -15.5 51.5t-40 49t-55.5 38t-62 15.5q-20 0 -35.5 -8.5t-25.5 -30t-15 -60.5t-5 -98z" />
<glyph unicode="k" horiz-adv-x="948" d="M123 428q-39 -66 -53.5 -122t-14.5 -103q0 -41 16.5 -79t44 -68.5t65.5 -49t83 -18.5q74 0 109 39q0 66 2 116t3 91.5t3 76.5t6 70l92 37q-4 -35 -7 -73t-3 -77q0 -172 42 -244.5t140 -72.5q47 0 102.5 28.5t112 74.5t108.5 102.5t92 113t64.5 105.5t24.5 78 q0 31 -25.5 47t-54.5 16q-109 -156 -173 -225.5t-105 -69.5q-37 0 -53.5 65.5t-16.5 231.5q80 39 126 64.5t70.5 48t32 47t7.5 59.5q0 29 -9.5 57.5t-28 51t-46 37t-64.5 14.5q-41 0 -89 -36t-118 -132q-20 -29 -37.5 -60.5t-33.5 -64.5l-138 -57q4 33 14.5 72.5t25 81.5 t30.5 82t33 75q55 109 93 187.5t60.5 136t31.5 97.5t9 75q0 78 -39 111.5t-104 33.5q-96 0 -162.5 -59.5t-116 -188.5t-84 -332.5t-67.5 -490.5z" />
<glyph unicode="l" horiz-adv-x="532" d="M125 592q-6 -33 -19.5 -89.5t-28 -122t-24.5 -132t-10 -117.5q0 -80 36 -119t126 -39q78 0 172 52.5t175 128t136 156.5t55 141q0 31 -24.5 50t-52.5 19q-41 -61 -82 -113.5t-80 -90t-72 -58t-57 -20.5q-29 0 -29 30q0 18 16.5 88t39 160t49 187.5t47.5 170.5 q57 109 95 185t59.5 130t30.5 92t9 73q0 78 -39 111.5t-104 33.5q-61 0 -116.5 -30.5t-101.5 -87t-79 -138.5t-47 -186q-6 -53 -16.5 -113.5t-21.5 -122t-22.5 -121t-19.5 -108.5z" />
<glyph unicode="m" horiz-adv-x="1372" d="M834 582q18 37 28 64.5t15.5 51t6.5 43t1 39.5q0 51 -31 86t-90 35q-35 0 -71 -13.5t-78 -49t-90 -97t-103 -157.5q37 82 50 137t13 94q0 47 -21.5 66.5t-66.5 19.5q-47 0 -98 -25.5t-94 -65.5t-71 -88t-28 -93q0 -31 4.5 -65t16.5 -62q-27 -72 -42 -145.5t-15 -133.5 q0 -47 15 -88t42 -73.5t63.5 -51t79.5 -18.5q35 0 50.5 5t31.5 21q4 104 17.5 198.5t36.5 213.5q59 84 96 112.5t51 28.5q25 0 25 -24q0 -16 -11.5 -47t-23.5 -66q-29 -74 -49.5 -155.5t-20.5 -141.5q2 -92 55.5 -131t139.5 -39q33 0 49 7.5t33 23.5q4 104 18 198.5 t37 213.5q59 84 107.5 118.5t62.5 34.5q25 0 24 -24q0 -16 -18 -65.5t-42 -113t-42 -129t-18 -116.5q0 -86 34.5 -126t126.5 -40q47 0 105.5 27.5t120 72.5t119 101.5t102.5 111.5t72.5 104.5t27.5 82.5q0 31 -25.5 49t-54.5 18q-106 -152 -193 -229.5t-116 -77.5t-29 31 q0 18 13.5 58t32 87t39 93t34.5 81q55 129 55 211q0 59 -33.5 105.5t-105.5 46.5q-68 0 -156.5 -76t-213.5 -264z" />
<glyph unicode="n" horiz-adv-x="968" d="M123 481q-51 -139 -51 -256q0 -47 15 -88t42 -73.5t63.5 -51t79.5 -18.5q35 0 50.5 5t31.5 21q2 51 6.5 97.5t9.5 91.5t13 93l18 108q59 84 105.5 112.5t60.5 28.5q25 0 25 -25q0 -16 -16.5 -60t-36 -99.5t-36 -116t-16.5 -111.5q0 -86 35 -126t127 -40q47 0 105.5 27 t118 69t114.5 94t99 105.5t71 100.5t27 80q0 31 -25.5 49t-54.5 18q-47 -68 -94 -121t-87 -90t-71 -56.5t-45 -19.5q-29 0 -29 31q0 18 11.5 53t26.5 76t32.5 82t32.5 76q33 74 46 129t13 96q0 59 -35 100t-106 41q-35 0 -77 -18t-91 -60t-103.5 -109t-109.5 -163 q20 37 35.5 81t25.5 85t15.5 76t5.5 53q0 47 -17.5 66.5t-70.5 19.5q-47 0 -101.5 -36t-100.5 -87t-77 -109.5t-31 -103.5q0 -31 4.5 -64.5t16.5 -62.5z" />
<glyph unicode="o" horiz-adv-x="843" d="M692 877q-25 0 -40 -6.5t-31 -22.5q-2 51 -41 70.5t-80 19.5q-82 0 -161 -54.5t-141.5 -145.5t-101.5 -209.5t-39 -245.5q0 -76 20.5 -131.5t55.5 -92t82 -55t102 -18.5q109 0 193 53t158 154q16 -10 34.5 -15.5t47.5 -5.5q66 0 122 32t98 76t66.5 91t24.5 80t-25.5 53 t-54.5 20q-51 -82 -96 -118.5t-90 -36.5q-16 0 -26.5 5t-14.5 9q33 86 48 151.5t15 139.5q0 35 -8 70.5t-23.5 65.5t-39 48.5t-54.5 18.5zM348 358q0 63 18.5 129t50.5 124.5t73.5 104.5t89.5 68q-23 -45 -34 -114.5t-11 -122.5q0 -41 5 -86t17 -92q-29 -70 -63.5 -105 t-71.5 -35q-29 0 -51.5 26.5t-22.5 102.5z" />
<glyph unicode="p" horiz-adv-x="952" d="M213 -526q47 0 80 68.5t56.5 194.5t36.5 301t24 390q59 63 90.5 88t52.5 25q20 0 30.5 -12.5t10.5 -45.5q0 -35 -17.5 -82t-46.5 -100q-41 -12 -57 -40t-16 -64q0 -33 9 -68t30.5 -64.5t56.5 -48t88 -18.5q47 0 104.5 24.5t116 63.5t113.5 89t98 99.5t68.5 95.5t25.5 79 q0 31 -25.5 49t-54.5 18q-51 -74 -100 -125t-90 -83t-72.5 -47t-50.5 -15q-25 0 -42 6t-34 16q102 119 164 236t62 213q0 82 -43 133t-119 51q-66 0 -158 -72.5t-190 -220.5q33 129 81 209t105 131q2 8 2 23q0 45 -37 71.5t-100 26.5q-55 0 -113.5 -31.5t-108.5 -96 t-84 -163t-38 -229.5l-21 -594q-57 -104 -81.5 -180t-24.5 -119q0 -39 20.5 -72t53 -57.5t70.5 -38.5t75 -14z" />
<glyph unicode="q" d="M537 735q-6 -37 -12.5 -86t-13.5 -103t-13 -109.5t-13 -102.5q-27 -27 -46 -37t-40 -10q-27 0 -37 18.5t-10 79.5q0 43 12.5 94t36 100.5t58.5 90t78 65.5zM440 -88q-31 -59 -52 -115.5t-21 -111.5q0 -35 23.5 -72t61 -67.5t86 -51t99.5 -20.5q59 0 79.5 34.5t20.5 83.5 q0 53 -14 110.5t-21 86.5l13 178q68 49 139.5 117t130.5 136.5t97 130t38 98.5q0 27 -24.5 47t-65.5 20q-72 -106 -153.5 -194.5t-139.5 -133.5q6 47 12.5 102.5t14.5 111t16 108.5t19 96q12 55 23.5 98.5t21.5 79t16 65.5t6 60q0 27 -17.5 56.5t-48 54t-72.5 40t-91 15.5 q-16 0 -41 -7t-37 -21q0 -37 -3 -79t-9 -98q-14 14 -53 15q-74 0 -152 -56.5t-142.5 -142.5t-106.5 -189.5t-42 -197.5q0 -137 52.5 -218t150.5 -81q66 0 127 56.5t92 148.5q-10 -94 -19.5 -176t-13.5 -117z" />
<glyph unicode="r" horiz-adv-x="784" d="M571 782q-27 8 -53 17.5t-43 19.5q20 35 51 58.5t68 44.5q6 18 6 41q0 41 -31.5 64.5t-85.5 23.5q-43 0 -100 -34t-107.5 -85t-86 -112.5t-35.5 -114.5q0 -29 9 -49.5t21 -34.5q-27 -63 -56.5 -108.5t-70.5 -102.5q-14 -20 -14 -50q0 -33 21.5 -56t60.5 -23 q51 57 91 116.5t87 151.5q35 -14 51.5 -25.5t16.5 -29.5q0 -20 -15.5 -60.5t-35 -90.5t-35 -105.5t-15.5 -106.5q0 -88 50.5 -130t144.5 -42q47 0 105.5 27.5t118 71.5t116.5 99.5t101 110t71 103.5t27 82q0 23 -24 43t-62 20q-41 -63 -86.5 -117.5t-88.5 -94.5t-78.5 -62.5 t-56.5 -22.5q-20 0 -27.5 13.5t-7.5 35.5q0 39 27 106.5t62 139.5q25 49 40 87t15 69q0 37 -28 61t-118 51z" />
<glyph unicode="s" horiz-adv-x="751" d="M150 588q-37 0 -63 -33t-41 -82t-22.5 -104.5t-7.5 -100.5q0 -76 21.5 -134t60.5 -97t91.5 -59.5t111.5 -20.5q70 0 139.5 18.5t127 60.5t93 107.5t35.5 157.5q0 55 -18.5 113.5t-40 114t-39.5 102.5t-18 82q0 29 16 39t49 10q49 0 109 -25q18 18 30.5 48t12.5 63 q0 74 -49.5 111.5t-139.5 37.5q-70 0 -129 -21.5t-103 -59t-68.5 -92t-24.5 -117.5q0 -47 18 -114t41 -134.5t41 -130t18 -101.5q0 -27 -13 -37t-30 -10q-18 0 -38.5 11.5t-39 31t-34 47t-21.5 62.5q27 29 40.5 54.5t13.5 57.5q0 18 -10.5 44t-28 47.5t-40.5 37t-50 15.5z " />
<glyph unicode="t" horiz-adv-x="673" d="M80 236q0 -141 72.5 -206t191.5 -65q59 0 122.5 27.5t124 72t116 99.5t96.5 109.5t65.5 101.5t24.5 78t-26.5 50t-55.5 19q-104 -147 -202.5 -221t-162.5 -74q-33 0 -44 17.5t-11 54.5q0 23 15.5 112t56.5 259q45 -8 80 -10.5t69 -2.5q51 0 85 39t34 99q0 23 -10 47 t-29 39q-10 -2 -29.5 -4.5t-44 -4.5t-51 -4t-51.5 -2q41 82 66.5 134.5t41 88t20.5 59t5 48.5q0 66 -32.5 93.5t-104.5 27.5q-53 0 -98 -22.5t-81 -64.5t-59.5 -98.5t-29.5 -123.5q-6 -57 -8.5 -88t-4.5 -64q-63 -2 -96 -39t-33 -84q0 -35 22.5 -42t53.5 -11 q-59 -195 -78.5 -297t-19.5 -147z" />
<glyph unicode="u" horiz-adv-x="927" d="M641 915q-4 -66 -11 -127t-20.5 -125.5t-32 -135t-45.5 -152.5q-31 -33 -72.5 -62.5t-68.5 -29.5q-41 0 -41 53q0 25 8.5 69t24.5 99q158 256 158 358q0 47 -26 64.5t-73 17.5q-53 0 -113.5 -38t-110.5 -93t-83 -116.5t-33 -108.5q0 -31 5.5 -62.5t21.5 -64.5 q-41 -98 -61.5 -181t-20.5 -130q0 -92 29.5 -142.5t120.5 -50.5q70 0 155.5 65.5t159.5 206.5q-12 -66 -12 -106q0 -80 35.5 -106.5t99.5 -26.5q66 0 142.5 43t148.5 108q45 39 85 82t70.5 85t48 79t17.5 66t-25.5 46t-58.5 17q-98 -139 -170 -202.5t-107 -63.5q-12 0 -20 6 t-8 27q0 14 14 54t33.5 90t42 104.5t39.5 97.5q23 61 31 96t8 63q0 31 -15.5 62t-41 53.5t-62.5 36.5t-80 14q-23 0 -46.5 -9.5t-39.5 -29.5z" />
<glyph unicode="v" horiz-adv-x="874" d="M895 758q0 39 -9 73.5t-29.5 61.5t-53.5 43t-80 16q-37 0 -63.5 -12t-41.5 -31q4 -33 8.5 -81t4.5 -76q0 -109 -22.5 -203t-55.5 -164t-71 -109.5t-68 -39.5q-35 0 -50.5 24.5t-15.5 83.5q0 55 14.5 116.5t42 122t66.5 117t88 103.5q2 8 2 24q0 61 -45 88t-104 27 q-61 0 -113.5 -18.5t-92.5 -49t-63.5 -68.5t-23.5 -77q0 -29 10 -58.5t49 -47.5q-61 -88 -92 -181.5t-31 -171.5q0 -154 77 -221t194 -67q100 0 201.5 59t183.5 163.5t133 246t51 307.5z" />
<glyph unicode="w" horiz-adv-x="1239" d="M209 672q-76 -111 -120 -211.5t-44 -222.5q0 -139 67.5 -200t176.5 -61q72 0 142.5 35t127.5 88q27 -72 71 -104.5t103 -32.5q109 0 204 66.5t167 174t112.5 242t40.5 271.5q0 31 -8 66.5t-27.5 66.5t-52 51.5t-82.5 20.5q-35 0 -62.5 -14.5t-41.5 -37.5q2 -33 6 -77.5 t4 -81.5q0 -61 -12 -148.5t-35.5 -167.5t-56.5 -135t-76 -55q-23 0 -38 20.5t-19 61.5q43 55 73.5 113.5t50 112.5t29 101.5t9.5 81.5q0 66 -33 111t-111 45q-45 0 -91 -45t-84 -117t-62.5 -162t-24.5 -180v-45q0 -20 2 -31q-25 -23 -53.5 -27.5t-44.5 -4.5 q-25 0 -39.5 19.5t-14.5 66.5q0 55 23 128.5t59.5 151.5t85 149.5t97.5 125.5q2 10 2 30q0 53 -34 89t-116 36q-61 0 -117.5 -21.5t-100.5 -56t-70.5 -79.5t-26.5 -93q0 -29 8 -59t37 -55z" />
<glyph unicode="x" horiz-adv-x="952" d="M258 248q-18 0 -18 41q0 23 5 53.5t12 61t15.5 56t12.5 38.5q-10 16 -40 32.5t-65 16.5q-43 0 -82 -27.5t-68.5 -74t-47 -103.5t-17.5 -119q0 -141 48 -197.5t145 -56.5q59 0 140 63.5t153 180.5q4 -16 9 -33.5t9 -36.5q23 -92 69 -127.5t130 -35.5q45 0 99 27.5 t109.5 70.5t108.5 96t93 105.5t64.5 97.5t24.5 72q0 31 -23.5 52t-51.5 21q-98 -137 -175 -203.5t-120 -66.5q-33 0 -48.5 15.5t-27.5 66.5q-8 33 -17.5 71.5t-17.5 73.5q61 76 102 121t72 70.5t57.5 39t61.5 25.5q8 10 13 34t5 38q0 25 -6 49.5t-19.5 45t-35 33.5t-49.5 13 q-25 0 -48.5 -10t-51 -39t-63.5 -83t-87 -142q-20 72 -41 134t-41 105q-25 53 -57.5 69.5t-61.5 16.5q-41 0 -85 -25.5t-79.5 -64.5t-58.5 -87t-23 -93q0 -53 31 -77.5t109 -24.5q14 -25 32.5 -79t43.5 -149q-43 -68 -85.5 -109.5t-62.5 -41.5z" />
<glyph unicode="y" horiz-adv-x="888" d="M238 -88q-90 -96 -123 -170t-33 -121q0 -53 28.5 -87t102.5 -34q72 0 130 34t100 90.5t64.5 130t22.5 153.5q0 31 -4 85t-12 105q29 27 65.5 63t57.5 64q27 -33 64.5 -45t80.5 -12q55 0 112.5 26.5t106 68.5t78 91t29.5 97q0 33 -24.5 53t-53.5 20q-41 -66 -89 -117 t-97 -51q-18 0 -37 17.5t-29 42.5q57 88 82 155.5t25 122.5q0 33 -14.5 70t-39 68.5t-56.5 52t-64 20.5q-41 0 -64.5 -26.5t-46.5 -90.5q-23 -66 -35 -150.5t-12 -158.5q0 -20 1 -37.5t3 -33.5q-10 -18 -36.5 -52t-55.5 -63q-31 115 -45 195.5t-14 119.5q0 82 23.5 138.5 t98.5 109.5q0 49 -28.5 77t-96.5 28q-53 0 -110 -27t-103.5 -74t-76 -111.5t-29.5 -140.5q0 -41 3 -77.5t11 -75.5t18.5 -83t26.5 -100q23 -86 38.5 -141t25.5 -94t17.5 -67.5t13.5 -57.5z" />
<glyph unicode="z" horiz-adv-x="839" d="M451 334q127 63 245 201q98 49 153.5 117.5t55.5 129.5q0 27 -9 51.5t-24.5 43t-34 30t-36.5 11.5q-23 0 -43.5 -22t-44.5 -58q-74 41 -122 65.5t-82 37.5t-59.5 17.5t-56.5 4.5q-41 0 -80 -21.5t-67.5 -53.5t-46 -71t-17.5 -74q0 -51 17.5 -74.5t50.5 -33.5 q23 14 50.5 22.5t49.5 8.5q29 0 66 -19.5t104 -56.5l-16 -16q-15 -17 -38.5 -38.5t-54 -44t-61.5 -36.5q-20 20 -49 44.5t-47 40t-21 17.5q-98 -18 -149 -71.5t-51 -127.5q0 -39 25.5 -70.5t60.5 -43.5q70 -125 117 -200t86.5 -115t80.5 -52t101 -12q51 0 107.5 21.5 t104.5 58.5t79.5 85t31.5 99q0 31 -13 57.5t-36 36.5q-66 -35 -101.5 -50t-58.5 -15t-39 9t-38 40q-14 20 -37.5 54t-52.5 73z" />
<glyph unicode="{" horiz-adv-x="1132" d="M750 500q74 16 124 51t80.5 80t43 98t12.5 107v227q0 49 7 78.5t28.5 48t61.5 28t103 17.5q14 20 15 55q0 47 -46 78t-120 31q-86 0 -151.5 -25.5t-109.5 -68.5t-67.5 -101.5t-23.5 -126.5q0 -63 8 -141t8 -131q0 -61 -22.5 -102t-86.5 -78q-35 25 -83 35t-82 10 q-49 0 -84 -14.5t-56.5 -36t-32 -47t-10.5 -48.5q0 -35 10.5 -58.5t28.5 -41.5q10 2 26.5 4t35 3t35 2t26.5 1q66 0 90.5 -21.5t24.5 -56.5q0 -47 -22.5 -104t-49.5 -120.5t-49.5 -131.5t-22.5 -137q0 -47 17.5 -93t52.5 -85t88 -62.5t125 -23.5q98 0 147.5 44t49.5 97 q0 14 -2 20q-94 29 -126 67t-32 95q0 53 11 108.5t25.5 111t26 108.5t11.5 102q0 82 -43 148z" />
<glyph unicode="|" horiz-adv-x="917" d="M600 1380q-12 -121 -34.5 -261t-50.5 -285.5t-57.5 -288t-56.5 -264.5q-18 -80 -29.5 -141.5t-19.5 -109.5t-11 -87t-3 -78q0 -59 26.5 -102.5t71.5 -43.5q41 0 60 23q6 115 31.5 257t72.5 308q61 221 101 369.5t63.5 247t32 157t8.5 97.5q0 104 -40 159.5t-106 55.5 q-16 0 -32.5 -3.5t-26.5 -9.5z" />
<glyph unicode="}" horiz-adv-x="1142" d="M608 496q-74 -16 -124 -51t-80.5 -80.5t-43 -98.5t-12.5 -106v-228q0 -49 -7 -78.5t-28.5 -48t-61.5 -27.5t-104 -18q-14 -23 -14 -55q0 -47 46 -77.5t120 -30.5q86 0 151.5 25.5t109.5 68.5t67.5 101t23.5 126q0 63 -8 141t-8 131q0 61 22.5 102.5t85.5 78.5 q35 -25 83 -35t83 -10q49 0 84 14t56.5 35.5t32 47.5t10.5 48q0 35 -10.5 58.5t-28.5 41.5q-10 -2 -26.5 -4t-35 -3t-36 -2t-25.5 -1q-66 0 -90.5 21.5t-24.5 56.5q0 47 22.5 104.5t49 121t49 131t22.5 137.5q0 45 -17 92t-52 86t-88 62.5t-125 23.5q-98 0 -147.5 -44 t-49.5 -98q0 -14 2 -20q94 -29 126 -67t32 -95q0 -53 -11.5 -108.5t-25.5 -110.5t-25.5 -108.5t-11.5 -102.5q0 -84 43 -147z" />
<glyph unicode="~" horiz-adv-x="1024" d="M483 1331q-76 -10 -126 -28.5t-80.5 -44t-43 -58.5t-12.5 -70q0 -51 30 -81.5t66 -34.5q35 35 90.5 52t163.5 21q225 10 322.5 64.5t97.5 157.5q0 51 -31.5 97t-99.5 60q-25 -27 -49.5 -46t-64 -35.5t-102.5 -29t-161 -24.5z" />
<glyph unicode="&#xa1;" horiz-adv-x="727" d="M287 455q-39 -186 -79 -336t-89 -293q-55 -100 -81 -176t-26 -117q0 -47 24.5 -71.5t90.5 -24.5q57 0 110.5 21.5t95.5 54t67.5 73.5t25.5 82q0 31 -6 65t-19 62q18 70 31.5 141.5t23 136t14.5 118t5 88.5t-9 68.5t-26.5 60t-42 43t-57.5 16.5q-16 0 -30.5 -4t-22.5 -8z M487 948q-41 0 -76.5 -26.5t-62 -67.5t-41 -89t-14.5 -93q0 -43 20.5 -65.5t75.5 -22.5q43 0 89 17t85 45t64.5 65t25.5 73q0 31 -13 60.5t-36.5 52.5t-53.5 37t-63 14z" />
<glyph unicode="&#xa2;" horiz-adv-x="890" d="M860 834q0 -45 -12 -91.5t-36 -84t-55.5 -61.5t-68.5 -24q-45 0 -63 19q4 27 8 58.5t4 54.5q0 66 -51 65q-25 0 -58.5 -24.5t-62.5 -79t-49.5 -137.5t-20.5 -199q0 -78 27 -110t74 -32q61 0 121.5 45.5t132.5 128.5q29 -8 46 -32.5t17 -57.5q0 -37 -19.5 -83t-58.5 -89 t-94 -79.5t-127 -55.5q-12 -68 -12 -131q0 -47 6 -94t20 -94q-10 -23 -32.5 -34t-51.5 -11q-76 0 -106.5 44t-30.5 113q0 45 7.5 95.5t19.5 115.5q-102 25 -162.5 101.5t-60.5 226.5q0 115 27.5 225.5t82.5 203.5t138 160.5t196 96.5q31 111 43 181.5t16 101.5q14 8 35 12 t37 4q47 0 76 -26.5t29 -71.5q0 -31 -13.5 -76t-48.5 -117q66 -12 98.5 -53t32.5 -104z" />
<glyph unicode="&#xa3;" horiz-adv-x="1028" d="M459 137q27 55 55 150q135 4 214 46t79 130q0 35 -12.5 52t-34.5 28q-39 -16 -78 -27.5t-111 -17.5q4 10 5.5 22t5.5 25q18 80 31.5 131t31 81.5t40 43t56.5 12.5q84 0 172 -80q41 27 62.5 69t21.5 95q0 90 -62.5 145.5t-170.5 55.5q-152 0 -265.5 -135.5t-176.5 -436.5 q-4 -10 -5.5 -20t-5.5 -23q-109 -6 -157 -45t-48 -86q0 -27 17 -45q27 -4 65.5 -6t81.5 -6q-8 -29 -14 -53.5t-14 -46.5q-72 -8 -115 -50.5t-47 -109.5q68 -37 138.5 -83t140 -88t138 -71t132.5 -29q70 0 134 28t113.5 74t79 105.5t29.5 122.5q0 131 -121 131 q-35 -98 -78 -136t-81 -38q-45 0 -101.5 21.5t-144.5 64.5z" />
<glyph unicode="&#xa4;" horiz-adv-x="1071" d="M580 -53q92 0 169.5 32.5t136 78.5t91.5 100.5t33 97.5q0 35 -14.5 60.5t-47.5 31.5q-59 -66 -134 -115t-146 -49q-84 0 -116 51.5t-32 139.5v4q176 10 256 58t80 116q0 35 -12.5 52.5t-34.5 27.5q-41 -18 -103.5 -28.5t-166.5 -18.5q27 121 75 169t99 48q57 0 108 -12.5 t86 -28.5q61 45 62 117q0 66 -47.5 112.5t-151.5 46.5q-78 0 -155.5 -34.5t-146.5 -96t-123 -147.5t-87 -189q-98 -10 -142 -42.5t-44 -77.5q0 -12 4 -27.5t14 -26.5q23 -4 57.5 -6t73.5 -4q-2 -16 -2 -35v-33q0 -190 97.5 -281t263.5 -91z" />
<glyph unicode="&#xa5;" horiz-adv-x="1021" d="M256 252q-111 -4 -153 -31.5t-42 -70.5q0 -12 5.5 -28t15.5 -26q37 -4 110.5 -8t149.5 -8q10 -35 16.5 -64.5t10.5 -56.5q-41 -4 -86 -5t-99 -3q-111 -4 -152.5 -32t-41.5 -71q0 -12 5 -27.5t15 -25.5q25 -2 68 -4t93 -5t102.5 -5t93.5 -4q-6 -23 -18.5 -58.5 t-24.5 -64.5q14 -27 40.5 -37t67.5 -10q55 0 113.5 49t89.5 135q98 16 152.5 57t54.5 107q0 72 -64 88q-35 -16 -63.5 -26.5t-63.5 -20.5q-2 18 -4 40.5t-6 45.5q129 12 200.5 54t71.5 120q0 72 -63 88q-25 -12 -48.5 -21.5t-48 -17.5t-53 -15t-67.5 -14q174 152 273.5 278 t99.5 243q0 92 -51.5 140t-123.5 48q-51 0 -86.5 -28.5t-39.5 -94.5q29 -35 43 -59.5t14 -59.5q0 -25 -7 -50t-27.5 -61t-56.5 -85t-93 -121q-31 115 -41.5 180.5t-10.5 104.5q0 82 23.5 138t99.5 109q0 49 -28.5 77t-96.5 28q-59 0 -116.5 -26.5t-102.5 -74t-72.5 -112 t-27.5 -139.5q0 -61 9 -132t32 -145l51 -182h-41z" />
<glyph unicode="&#xa6;" horiz-adv-x="917" d="M600 1380q-14 -117 -35.5 -245.5t-44.5 -268.5q-2 -14 -3 -26.5t-1 -24.5q0 -74 39 -118t111 -44q20 0 30 2q33 121 53.5 206t33 145.5t17.5 100.5t5 71q0 104 -40 159.5t-106 55.5q-16 0 -32.5 -3.5t-26.5 -9.5zM397 254q-18 -80 -29.5 -137.5t-17.5 -100.5t-9 -77.5 t-3 -73.5q0 -59 26.5 -102.5t71.5 -43.5q41 0 60 23q6 115 29.5 244t70.5 295q6 20 10 42.5t4 38.5q0 68 -36.5 103t-84.5 35q-23 0 -40 -8q-14 -63 -28 -123t-24 -115z" />
<glyph unicode="&#xa7;" horiz-adv-x="1024" d="M233 330q-47 0 -85.5 -71t-38.5 -198q0 -72 24.5 -145.5t69.5 -131.5t108.5 -95t141.5 -37q94 0 165.5 31.5t118.5 81t70.5 106.5t23.5 106q0 102 -59 234q63 31 115.5 93.5t52.5 170.5q0 53 -24.5 136t-54.5 168t-54.5 158t-24.5 105q0 27 15.5 36t46.5 9q35 0 73.5 -11 t65.5 -25q41 41 41 104q0 70 -59.5 112t-155.5 42q-131 0 -206 -75t-75 -198q-154 -59 -218 -138t-64 -189q0 -68 23.5 -144t59.5 -151.5t78 -148t77.5 -133t59 -108t23.5 -71.5q0 -23 -13 -39t-48 -16q-27 0 -57.5 14t-58.5 41t-50.5 63.5t-34.5 81.5q23 29 31 52.5t8 52.5 q0 18 -8 40.5t-22.5 41t-35 32t-45.5 13.5zM680 369q-55 94 -90 156.5t-53.5 103.5t-25.5 65.5t-7 42.5q0 35 16.5 60.5t44.5 50.5q70 -190 95.5 -288.5t25.5 -139.5q0 -26 -6 -51z" />
<glyph unicode="&#xa8;" horiz-adv-x="897" d="M180 1235q0 -78 34 -115t77 -37q74 90 101.5 140.5t27.5 87.5q0 23 -12.5 48t-32 46.5t-46 36t-57.5 14.5q-45 0 -68.5 -52t-23.5 -169zM535 1266q0 -92 36.5 -135.5t100.5 -43.5q74 92 105.5 152.5t31.5 97.5q0 25 -15.5 51.5t-41 49t-56 38t-61.5 15.5q-49 0 -74.5 -50 t-25.5 -175z" />
<glyph unicode="&#xa9;" horiz-adv-x="1544" d="M670 -158q168 0 307 60.5t238.5 171t153.5 263t54 337.5q0 113 -34.5 207t-105.5 163.5t-177.5 108.5t-249.5 39q-166 0 -302 -62.5t-234.5 -173t-152.5 -260t-54 -321.5q0 -123 42 -221.5t115.5 -167t176 -106.5t223.5 -38zM711 -6q-102 0 -182 31.5t-134.5 89 t-83 137.5t-28.5 174q0 125 36.5 238.5t105.5 199.5t168 136.5t222 50.5q113 0 195 -31t135 -85t78.5 -130t25.5 -166q0 -154 -41 -274.5t-113.5 -202.5t-170.5 -125t-213 -43zM711 193q70 0 124 21.5t92 55t57.5 75.5t19.5 81q0 23 -18.5 39t-45.5 16q-27 -41 -70 -76.5 t-92 -35.5q-39 0 -52 31.5t-13 78.5q0 106 27.5 161.5t58.5 55.5q16 0 32.5 -17t32.5 -69q51 0 82 35t31 86q0 59 -39 97t-111 38q-66 0 -126 -34.5t-106 -93t-74.5 -135.5t-28.5 -161q0 -111 53 -180t166 -69z" />
<glyph unicode="&#xaa;" horiz-adv-x="1019" d="M610 410q41 0 102.5 39.5t118 96t97.5 116t41 96.5q0 23 -15.5 41t-44.5 18q-72 -102 -126 -148t-76 -46q-4 0 -7.5 5t-3.5 21q0 57 74 326q18 61 18 100q0 20 -11 44t-32.5 44.5t-52 32.5t-71.5 12t-62 -24v-41q0 -18 -2 -37q-16 4 -35 4q-59 0 -120.5 -42 t-111.5 -108.5t-83 -151.5t-33 -171q0 -111 45 -165t113 -54q35 0 80 27.5t80 105.5v-8q0 -78 32.5 -105.5t85.5 -27.5zM498 682q-10 -14 -24.5 -24.5t-27.5 -10.5q-14 0 -23 9.5t-9 43.5q0 39 11 80t29.5 78t42 67.5t48.5 51.5z" />
<glyph unicode="&#xab;" horiz-adv-x="1710" d="M963 918q-82 -102 -171.5 -186.5t-199.5 -162.5q-90 -29 -140.5 -78t-50.5 -108q0 -49 50 -49q37 0 81 10q66 -70 109 -118t70.5 -85t43 -65.5t25.5 -57.5q14 -6 29 -6q25 0 50.5 15.5t45 40t31.5 57.5t12 68q0 66 -34.5 129t-122.5 147q76 61 125 110.5t77.5 90.5 t39.5 74.5t11 66.5q0 39 -22 71t-59 36zM1014 354q66 -68 108.5 -117t70.5 -85.5t43 -65.5t26 -57q14 -6 28 -6q25 0 50.5 15t45 39.5t32 57.5t12.5 68q0 66 -35 129t-123 147q76 61 125 110.5t77.5 90.5t40 74.5t11.5 66.5q0 39 -22.5 71t-59.5 36q-41 -51 -80 -95.5 t-82 -84t-90 -78.5t-102 -80q-59 -43 -89 -81t-30 -79q0 -23 13.5 -41.5t29.5 -34.5z" />
<glyph unicode="&#xac;" horiz-adv-x="1460" d="M1159 270l-2 426h-950v-139h811l2 -287h139z" />
<glyph unicode="&#xad;" horiz-adv-x="946" d="M440 520q-74 -27 -100.5 -53.5t-26.5 -69.5q0 -29 15.5 -50t38.5 -30q272 33 399 90.5t127 159.5q0 49 -34 87t-75 40q-45 -33 -82.5 -56.5t-76.5 -44t-83.5 -38t-101.5 -35.5z" />
<glyph unicode="&#xae;" horiz-adv-x="1648" d="M872 324q160 0 290 57t224.5 160.5t145.5 248t51 318.5q0 106 -33.5 196.5t-101.5 156t-169 102t-237 36.5q-156 0 -284.5 -59t-221 -162.5t-143.5 -245t-51 -305.5q0 -115 39 -208t109.5 -158.5t167.5 -101t214 -35.5zM909 471q-94 0 -168.5 29.5t-126 84t-78 128 t-26.5 161.5q0 117 35 222.5t99.5 185.5t155.5 127t206 47q106 0 183 -28.5t126 -79t72.5 -121t23.5 -154.5q0 -143 -38 -255.5t-105.5 -189.5t-160 -117t-198.5 -40zM823 1153q-20 -72 -39.5 -125t-35.5 -106q-12 -37 -20.5 -61.5t-13.5 -41t-6 -28t-1 -19.5 q0 -53 30.5 -86t71.5 -33q33 0 43 19q2 23 11 72t20 92q29 -16 55.5 -51t60.5 -105q14 -29 29.5 -38t44.5 -9q27 0 54.5 10t49 26.5t35 37t13.5 41.5q0 29 -25 45q-23 -6 -37 -7q-12 0 -18 5.5t-19 25.5q-10 18 -17 29.5t-12 17.5t-10.5 11.5l-11.5 11.5q68 63 100.5 116.5 t32.5 116.5q0 78 -61.5 130.5t-192.5 52.5q-111 0 -176 -39t-65 -84q0 -37 28 -47q25 10 48.5 14t33.5 6zM905 928q16 72 25.5 131t13.5 94q47 -4 73.5 -24.5t26.5 -53.5q0 -35 -12 -67.5t-49 -83.5q-14 2 -31.5 3t-46.5 1z" />
<glyph unicode="&#xaf;" horiz-adv-x="1024" d="M362 1337q-82 -4 -117.5 -33.5t-35.5 -70.5q0 -10 6 -26.5t16 -26.5q59 -4 122 -7.5t124 -3.5q203 0 295 41t92 123q0 70 -63 86q-45 -20 -80 -32.5t-79 -21.5t-109 -15.5t-171 -12.5z" />
<glyph unicode="&#xb0;" horiz-adv-x="819" d="M594 1169q0 -82 -57 -139t-138 -57q-80 0 -137 57q-55 55 -55 139q0 82 53 138q57 55 137 55q82 0 138 -55q55 -56 59 -138zM395 1456q-121 0 -200 -84q-84 -84 -84 -205q0 -119 84 -202q88 -84 206 -84q119 0 203 84q84 88 84 202q-2 119 -86 205q-90 84 -207 84z" />
<glyph unicode="&#xb1;" horiz-adv-x="1124" d="M1034 39v139h-946v-139h946zM627 678l-2 250h-140l2 -250h-403v-139h403l2 -250h140l-2 250h403v139h-403z" />
<glyph unicode="&#xb2;" horiz-adv-x="638" d="M731 954q0 41 -12 79t-39 66.5t-69 46t-99 17.5q-70 0 -122 -18.5t-88 -50t-53.5 -72.5t-17.5 -86q0 -59 26 -89t71 -30q16 0 28.5 4t20.5 8q8 92 27.5 127t44.5 35q47 0 47 -63q0 -51 -53.5 -105.5t-184.5 -134.5q-37 -23 -61.5 -43t-39 -41.5t-19.5 -44t-5 -51.5 q63 -49 110.5 -81t84.5 -51.5t67.5 -26.5t59.5 -7q35 0 76.5 16.5t77.5 44t59.5 62.5t23.5 70q0 27 -11 49t-32 32q-88 -51 -121 -51q-25 0 -51 9.5t-71 37.5q100 53 163.5 97.5t99.5 84.5t49 78.5t13 81.5z" />
<glyph unicode="&#xb3;" horiz-adv-x="645" d="M748 950q0 43 -13.5 81t-41 67.5t-70.5 47t-103 17.5q-68 0 -120 -19.5t-85.5 -52t-51 -73.5t-17.5 -86q0 -59 27.5 -89t72.5 -30q16 0 28.5 4t20.5 8q8 92 22.5 127t35.5 35q45 0 45 -63q0 -33 -20.5 -83t-80.5 -102q-10 4 -18 4h-19q-63 0 -106 -45t-43 -114 q127 -57 175 -105.5t48 -89.5q0 -23 -16.5 -35t-44.5 -12q-41 0 -77 35t-46 94q-27 16 -60 16q-41 0 -69.5 -30.5t-28.5 -98.5q0 -37 17.5 -70.5t50.5 -59t79 -42t105 -16.5q145 0 234.5 83t89.5 216q0 47 -26 103.5t-97 103.5q115 70 159 137t44 137z" />
<glyph unicode="&#xb4;" horiz-adv-x="593" d="M416 1606q-68 0 -103 -56q0 -76 -54 -173t-161 -251q0 -53 47 -53t118 42t134 108q158 164 158 254q0 57 -34.5 93t-104.5 36z" />
<glyph unicode="&#xb6;" horiz-adv-x="1460" d="M203 -301q0 -98 66.5 -152.5t160.5 -54.5q166 0 260 122t141 355q14 68 31 165t32 199.5t27.5 198t18.5 156.5q41 -6 81 -10t81 -4q92 0 143 39t51 106q0 23 -9 45.5t-30 32.5q-20 -6 -63 -12t-88 -6q-16 0 -62.5 1t-85.5 5q-8 45 -49 84t-102 39q-29 0 -51.5 -14.5 t-32.5 -37.5q-10 2 -29.5 5.5t-42 5.5t-44 3t-34.5 1q-100 0 -186 -43t-149.5 -121t-99.5 -185.5t-36 -236.5q0 -68 20.5 -127t59.5 -103t96.5 -69t129.5 -25q66 0 116.5 12.5t87.5 30.5q-16 -96 -28.5 -164.5t-24.5 -111.5t-30.5 -63.5t-47.5 -20.5q-23 0 -46 9t-46.5 23.5 t-43 32t-34.5 33.5q-51 -4 -79.5 -47t-28.5 -96zM639 279q-53 0 -86 37.5t-33 99.5q0 57 10.5 113.5t31 99.5t49 69.5t63.5 26.5q16 0 26 -2q-10 -106 -27.5 -219.5t-33.5 -224.5z" />
<glyph unicode="&#xb7;" horiz-adv-x="862" d="M541 285q41 0 76.5 27.5t61.5 70.5t41 93t15 95q0 39 -35.5 63.5t-107.5 24.5q-43 0 -82 -12t-68.5 -34.5t-48 -54.5t-18.5 -69q0 -41 12 -77.5t33.5 -65.5t52.5 -45t68 -16z" />
<glyph unicode="&#xb8;" horiz-adv-x="1024" d="M666 31h-150q-14 -139 -49 -216t-82 -77q-27 0 -59.5 20.5t-61.5 53.5q-51 -6 -76.5 -43t-25.5 -78q0 -86 52 -139.5t151 -53.5q139 0 221 120t82 341v35t-2 37z" />
<glyph unicode="&#xb9;" horiz-adv-x="497" d="M227 545q0 -25 12.5 -47.5t35 -41t52 -29.5t64.5 -11q68 0 86 35q4 74 23.5 181t74.5 251q20 55 34 92t21 62.5t9 43t2 35.5q0 37 -23.5 72t-72.5 35h-23q-51 -86 -134 -161t-214 -161q0 -96 80 -96q12 0 33.5 7t40.5 19q-29 -61 -48.5 -106t-30.5 -78t-16.5 -57.5 t-5.5 -44.5z" />
<glyph unicode="&#xba;" horiz-adv-x="966" d="M672 1141q-18 0 -34.5 -9.5t-33.5 -23.5q-8 35 -37.5 46t-58.5 11q-61 0 -121.5 -40t-108 -106.5t-76 -154.5t-28.5 -182q0 -117 58.5 -173t142.5 -56q80 0 143.5 38.5t120.5 112.5q20 -14 57 -14q49 0 89 24.5t70 59.5t45 71.5t15 61.5q0 29 -13 45t-40 16 q-35 -61 -67.5 -88.5t-65.5 -27.5q-10 0 -18 4q25 66 44 143.5t19 132.5q0 47 -24.5 78t-77.5 31zM408 735q0 84 38.5 164t98.5 123q-18 -43 -27.5 -90t-9.5 -88q0 -37 6 -77t18 -65q-14 -23 -34.5 -38t-42.5 -15q-18 0 -32.5 18.5t-14.5 67.5z" />
<glyph unicode="&#xbb;" horiz-adv-x="1710" d="M965 8q82 102 171 186.5t199 161.5q90 29 140.5 78t50.5 109q0 49 -49 49q-37 0 -82 -10q-66 70 -109 118t-70.5 84.5t-43 65.5t-25.5 57q-16 6 -29 6q-25 0 -50.5 -15t-44.5 -39.5t-31.5 -57.5t-12.5 -68q0 -66 34 -129t124 -147q-76 -61 -125 -110.5t-78 -90.5t-40 -75 t-11 -66q0 -39 22.5 -71t59.5 -36zM913 571q-66 68 -108.5 117t-70 86t-43 65.5t-25.5 57.5q-16 6 -29 6q-25 0 -50.5 -15.5t-45 -40t-31.5 -57t-12 -67.5q0 -66 33.5 -129.5t123.5 -147.5q-76 -61 -125 -110t-77.5 -90t-40 -75t-11.5 -67q0 -39 22.5 -70.5t59.5 -35.5 q41 51 80 95t82 84t90 79t103 80q59 43 88.5 81t29.5 79q0 23 -13.5 41t-29.5 34z" />
<glyph unicode="&#xbc;" horiz-adv-x="1626" d="M227 545q0 -25 12.5 -47.5t35 -41t52 -29.5t64.5 -11q68 0 86 35q4 74 23.5 181t74.5 251q20 55 34 92t21 62.5t9 43t2 35.5q0 37 -23.5 72t-72.5 35h-23q-51 -86 -134 -161t-214 -161q0 -96 80 -96q12 0 33.5 7t40.5 19q-29 -61 -48.5 -106t-30.5 -78t-16.5 -57.5 t-5.5 -44.5zM1520 135q-35 -23 -68 -31q16 72 35.5 145t44.5 150q23 68 33 113t10 78q0 47 -28.5 76.5t-71.5 29.5h-21q-25 -35 -68 -87t-100 -110.5t-124.5 -121t-143.5 -117.5q-49 -35 -67.5 -70.5t-18.5 -76.5v-27q0 -14 4 -29q57 -41 120.5 -74.5t121.5 -52.5 q-16 -55 -22.5 -87.5t-6.5 -55.5q0 -53 51 -89t121 -36q66 0 84 43q0 31 5 86t13 127q72 16 108 56t36 89q0 27 -12.5 45.5t-28.5 28.5zM1311 356q-8 -23 -18.5 -53.5t-19.5 -63t-18.5 -62.5t-13.5 -50q-25 8 -58.5 22.5t-54.5 26.5q23 18 49.5 43t52 49.5t47.5 48t34 39.5z M1202 1247q-57 -106 -130 -224t-152.5 -236.5t-161.5 -234.5t-156 -218t-117 -168t-66.5 -111t-30.5 -78.5t-7 -70.5q0 -53 28.5 -94t86.5 -41q45 0 61 26q2 49 14.5 97.5t39 103.5t71.5 123.5t117 161.5q117 150 200.5 261t141 191t92.5 137.5t54.5 98.5t25.5 74.5t6 66.5 q0 66 -33 101.5t-67 35.5h-9q-4 0 -8 -2z" />
<glyph unicode="&#xbd;" horiz-adv-x="1691" d="M227 545q0 -25 12.5 -47.5t35 -41t52 -29.5t64.5 -11q68 0 86 35q4 74 23.5 181t74.5 251q20 55 34 92t21 62.5t9 43t2 35.5q0 37 -23.5 72t-72.5 35h-23q-51 -86 -134 -161t-214 -161q0 -96 80 -96q12 0 33.5 7t40.5 19q-29 -61 -48.5 -106t-30.5 -78t-16.5 -57.5 t-5.5 -44.5zM1640 424q0 41 -12 79t-38.5 66.5t-68.5 46t-100 17.5q-70 0 -122 -18.5t-87.5 -50.5t-53 -72.5t-17.5 -85.5q0 -59 25.5 -89t70.5 -30q16 0 28.5 4t20.5 8q8 92 27.5 127t44.5 35q47 0 47 -64q0 -51 -53.5 -105t-184.5 -134q-37 -23 -61.5 -43.5t-38.5 -42 t-19.5 -44t-5.5 -51.5q63 -49 110.5 -80.5t84.5 -51t67.5 -26.5t59.5 -7q35 0 77 16t77.5 44t59.5 62.5t24 69.5q0 27 -11.5 49.5t-31.5 32.5q-88 -51 -121 -51q-25 0 -51.5 9t-71.5 38q100 53 163.5 97t99.5 84t49 79t13 82zM1202 1247q-57 -106 -130 -224t-152.5 -236.5 t-161.5 -234.5t-156 -218t-117 -168t-66.5 -111t-30.5 -78.5t-7 -70.5q0 -53 28.5 -94t86.5 -41q45 0 61 26q2 49 14.5 97.5t39 103.5t71.5 123.5t117 161.5q117 150 200.5 261t141 191t92.5 137.5t54.5 98.5t25.5 74.5t6 66.5q0 66 -33 101.5t-67 35.5h-9q-4 0 -8 -2z" />
<glyph unicode="&#xbe;" horiz-adv-x="1832" d="M1726 135q-35 -23 -67 -31q16 72 35.5 145t44.5 150q23 68 33 113t10 78q0 47 -29 76.5t-72 29.5h-20q-25 -35 -68 -87t-100 -110.5t-125 -121t-143 -117.5q-49 -35 -67.5 -70.5t-18.5 -76.5v-27q0 -14 4 -29q57 -41 120.5 -74.5t120.5 -52.5q-16 -55 -22 -87.5t-6 -55.5 q0 -53 51 -89t121 -36q66 0 84 43q0 31 5 86t13 127q72 16 108 56t36 89q0 27 -12.5 45.5t-28.5 28.5zM1518 356q-8 -23 -18.5 -53.5t-20 -63t-18.5 -62.5t-13 -50q-25 8 -58.5 22.5t-54.5 26.5q23 18 49.5 43t52 49.5t47.5 48t34 39.5zM748 950q0 43 -13.5 81t-41 67.5 t-70.5 47t-103 17.5q-68 0 -120 -19.5t-85.5 -52t-51 -73.5t-17.5 -86q0 -59 27.5 -89t72.5 -30q16 0 28.5 4t20.5 8q8 92 22.5 127t35.5 35q45 0 45 -63q0 -33 -20.5 -83t-80.5 -102q-10 4 -18 4h-19q-63 0 -106 -45t-43 -114q127 -57 175 -105.5t48 -89.5q0 -23 -16.5 -35 t-44.5 -12q-41 0 -77 35t-46 94q-27 16 -60 16q-41 0 -69.5 -30.5t-28.5 -98.5q0 -37 17.5 -70.5t50.5 -59t79 -42t105 -16.5q145 0 234.5 83t89.5 216q0 47 -26 103.5t-97 103.5q115 70 159 137t44 137zM1409 1247q-57 -106 -130 -224t-152.5 -236.5t-161.5 -234.5 t-156 -218t-117 -168t-66.5 -111t-30.5 -78.5t-7 -70.5q0 -53 28.5 -94t85.5 -41q45 0 62 26q2 49 14.5 97.5t39 103.5t71.5 123.5t117 161.5q117 150 200.5 261t141 191t92.5 137.5t54 98.5t25.5 74.5t6.5 66.5q0 66 -33 101.5t-68 35.5h-8t-8 -2z" />
<glyph unicode="&#xbf;" horiz-adv-x="876" d="M592 936q-68 0 -104.5 -71.5t-36.5 -180.5q0 -53 29.5 -84t101.5 -31q43 0 83 16.5t69.5 43t47 60.5t17.5 67q0 41 -18.5 73.5t-48.5 56t-66.5 37t-73.5 13.5zM379 252q-147 -104 -236.5 -171t-136.5 -116t-62.5 -89t-15.5 -91q0 -72 29 -134.5t80 -110.5t117.5 -75.5 t144.5 -27.5q68 0 121 19.5t89 53t55.5 77.5t19.5 94q0 35 -14.5 65.5t-45.5 46.5q-41 -6 -84 -9t-71 -3q-41 0 -67 7t-40 17.5t-19 23.5t-5 26q0 25 8 45t32.5 45.5t69.5 59.5t121 83q53 35 87 62.5t53.5 51t26.5 46t7 47.5q0 37 -12.5 68.5t-34 55t-49 37t-60.5 13.5 q-43 0 -66.5 -12.5t-33.5 -28.5q6 -37 6 -68q0 -63 -14 -108z" />
<glyph unicode="&#xc0;" horiz-adv-x="1740" d="M399 438q-20 70 -108 70q-57 0 -106.5 -25.5t-86.5 -68.5t-57.5 -99.5t-20.5 -117.5q0 -158 84 -244t234 -86q70 0 132 20.5t128 69.5t137.5 132t157.5 208q78 4 170 9t158 11q-2 -37 -3 -63.5t-2.5 -47t-1.5 -40.5v-43q0 -88 42 -131t139 -43q49 0 110.5 27.5t124 71.5 t121.5 99.5t105.5 111.5t74 106.5t27.5 85.5q0 29 -24.5 48t-53.5 19h-8q-55 -78 -103.5 -128t-86 -80.5t-64.5 -43t-37 -12.5q-23 0 -27 35t-4 100q39 33 63.5 77t24.5 87q0 45 -21.5 68.5t-57.5 29.5q4 68 9 140.5t11 145.5t15.5 140.5t19.5 122.5q61 39 99 65.5t59.5 47 t28.5 35t7 30.5q-4 49 -47 93.5t-127 44.5q-63 0 -114.5 -23t-89 -62.5t-64.5 -92t-41 -111.5q-78 -111 -155.5 -223.5t-148.5 -215t-132.5 -189.5t-106.5 -144q-111 -6 -204 -10.5t-179 -6.5zM418 137q-35 0 -56.5 23.5t-21.5 72.5q0 8 1 21.5t5 24.5h133t158 4 q-72 -84 -120 -115t-99 -31zM1024 471q25 43 60.5 103.5t73.5 127t74 130t60 110.5q-10 -45 -18 -106.5t-15.5 -126t-13.5 -124t-10 -98.5q-41 -4 -100.5 -8t-110.5 -8zM1556 2126q-25 29 -69 28q-82 0 -126 -52t-44 -117q0 -12 2 -24.5t6 -23.5q53 -147 122 -230t132 -83 q35 0 53.5 17.5t20.5 41.5q-35 90 -60 210t-37 233z" />
<glyph unicode="&#xc1;" horiz-adv-x="1740" d="M399 438q-20 70 -108 70q-57 0 -106.5 -25.5t-86.5 -68.5t-57.5 -99.5t-20.5 -117.5q0 -158 84 -244t234 -86q70 0 132 20.5t128 69.5t137.5 132t157.5 208q78 4 170 9t158 11q-2 -37 -3 -63.5t-2.5 -47t-1.5 -40.5v-43q0 -88 42 -131t139 -43q49 0 110.5 27.5t124 71.5 t121.5 99.5t105.5 111.5t74 106.5t27.5 85.5q0 29 -24.5 48t-53.5 19h-8q-55 -78 -103.5 -128t-86 -80.5t-64.5 -43t-37 -12.5q-23 0 -27 35t-4 100q39 33 63.5 77t24.5 87q0 45 -21.5 68.5t-57.5 29.5q4 68 9 140.5t11 145.5t15.5 140.5t19.5 122.5q61 39 99 65.5t59.5 47 t28.5 35t7 30.5q-4 49 -47 93.5t-127 44.5q-63 0 -114.5 -23t-89 -62.5t-64.5 -92t-41 -111.5q-78 -111 -155.5 -223.5t-148.5 -215t-132.5 -189.5t-106.5 -144q-111 -6 -204 -10.5t-179 -6.5zM418 137q-35 0 -56.5 23.5t-21.5 72.5q0 8 1 21.5t5 24.5h133t158 4 q-72 -84 -120 -115t-99 -31zM1024 471q25 43 60.5 103.5t73.5 127t74 130t60 110.5q-10 -45 -18 -106.5t-15.5 -126t-13.5 -124t-10 -98.5q-41 -4 -100.5 -8t-110.5 -8zM1798 2150q-68 0 -102 -55q0 -76 -54.5 -173t-160.5 -251q0 -53 47 -53t117.5 42t134.5 107 q158 164 157 254q0 57 -34.5 93t-104.5 36z" />
<glyph unicode="&#xc2;" horiz-adv-x="1740" d="M399 438q-20 70 -108 70q-57 0 -106.5 -25.5t-86.5 -68.5t-57.5 -99.5t-20.5 -117.5q0 -158 84 -244t234 -86q70 0 132 20.5t128 69.5t137.5 132t157.5 208q78 4 170 9t158 11q-2 -37 -3 -63.5t-2.5 -47t-1.5 -40.5v-43q0 -88 42 -131t139 -43q49 0 110.5 27.5t124 71.5 t121.5 99.5t105.5 111.5t74 106.5t27.5 85.5q0 29 -24.5 48t-53.5 19h-8q-55 -78 -103.5 -128t-86 -80.5t-64.5 -43t-37 -12.5q-23 0 -27 35t-4 100q39 33 63.5 77t24.5 87q0 45 -21.5 68.5t-57.5 29.5q4 68 9 140.5t11 145.5t15.5 140.5t19.5 122.5q61 39 99 65.5t59.5 47 t28.5 35t7 30.5q-4 49 -47 93.5t-127 44.5q-63 0 -114.5 -23t-89 -62.5t-64.5 -92t-41 -111.5q-78 -111 -155.5 -223.5t-148.5 -215t-132.5 -189.5t-106.5 -144q-111 -6 -204 -10.5t-179 -6.5zM418 137q-35 0 -56.5 23.5t-21.5 72.5q0 8 1 21.5t5 24.5h133t158 4 q-72 -84 -120 -115t-99 -31zM1024 471q25 43 60.5 103.5t73.5 127t74 130t60 110.5q-10 -45 -18 -106.5t-15.5 -126t-13.5 -124t-10 -98.5q-41 -4 -100.5 -8t-110.5 -8zM1698 1708q0 -53 19.5 -79.5t66.5 -26.5t88 23.5t59 55.5q-2 25 -3 48.5t-1 39.5q0 106 -6 180 t-24.5 118t-51.5 63.5t-84 19.5q-76 0 -146.5 -51t-124.5 -122.5t-87 -147.5t-33 -123q0 -45 22.5 -67.5t53.5 -22.5q23 0 41 8q47 150 97 223.5t81 73.5q20 0 26.5 -43t6.5 -170z" />
<glyph unicode="&#xc3;" horiz-adv-x="1740" d="M399 438q-20 70 -108 70q-57 0 -106.5 -25.5t-86.5 -68.5t-57.5 -99.5t-20.5 -117.5q0 -158 84 -244t234 -86q70 0 132 20.5t128 69.5t137.5 132t157.5 208q78 4 170 9t158 11q-2 -37 -3 -63.5t-2.5 -47t-1.5 -40.5v-43q0 -88 42 -131t139 -43q49 0 110.5 27.5t124 71.5 t121.5 99.5t105.5 111.5t74 106.5t27.5 85.5q0 29 -24.5 48t-53.5 19h-8q-55 -78 -103.5 -128t-86 -80.5t-64.5 -43t-37 -12.5q-23 0 -27 35t-4 100q39 33 63.5 77t24.5 87q0 45 -21.5 68.5t-57.5 29.5q4 68 9 140.5t11 145.5t15.5 140.5t19.5 122.5q61 39 99 65.5t59.5 47 t28.5 35t7 30.5q-4 49 -47 93.5t-127 44.5q-63 0 -114.5 -23t-89 -62.5t-64.5 -92t-41 -111.5q-78 -111 -155.5 -223.5t-148.5 -215t-132.5 -189.5t-106.5 -144q-111 -6 -204 -10.5t-179 -6.5zM418 137q-35 0 -56.5 23.5t-21.5 72.5q0 8 1 21.5t5 24.5h133t158 4 q-72 -84 -120 -115t-99 -31zM1024 471q25 43 60.5 103.5t73.5 127t74 130t60 110.5q-10 -45 -18 -106.5t-15.5 -126t-13.5 -124t-10 -98.5q-41 -4 -100.5 -8t-110.5 -8zM1573 1901q-129 -43 -180.5 -88.5t-51.5 -112.5q0 -57 33 -81t68 -24q14 18 34.5 30.5t49 23t70.5 21.5 t104 24q184 41 263 92t79 141q0 53 -35 96t-104 52q-20 -27 -41 -46.5t-55.5 -38t-90 -38.5t-143.5 -51z" />
<glyph unicode="&#xc4;" horiz-adv-x="1740" d="M399 438q-20 70 -108 70q-57 0 -106.5 -25.5t-86.5 -68.5t-57.5 -99.5t-20.5 -117.5q0 -158 84 -244t234 -86q70 0 132 20.5t128 69.5t137.5 132t157.5 208q78 4 170 9t158 11q-2 -37 -3 -63.5t-2.5 -47t-1.5 -40.5v-43q0 -88 42 -131t139 -43q49 0 110.5 27.5t124 71.5 t121.5 99.5t105.5 111.5t74 106.5t27.5 85.5q0 29 -24.5 48t-53.5 19h-8q-55 -78 -103.5 -128t-86 -80.5t-64.5 -43t-37 -12.5q-23 0 -27 35t-4 100q39 33 63.5 77t24.5 87q0 45 -21.5 68.5t-57.5 29.5q4 68 9 140.5t11 145.5t15.5 140.5t19.5 122.5q61 39 99 65.5t59.5 47 t28.5 35t7 30.5q-4 49 -47 93.5t-127 44.5q-63 0 -114.5 -23t-89 -62.5t-64.5 -92t-41 -111.5q-78 -111 -155.5 -223.5t-148.5 -215t-132.5 -189.5t-106.5 -144q-111 -6 -204 -10.5t-179 -6.5zM418 137q-35 0 -56.5 23.5t-21.5 72.5q0 8 1 21.5t5 24.5h133t158 4 q-72 -84 -120 -115t-99 -31zM1024 471q25 43 60.5 103.5t73.5 127t74 130t60 110.5q-10 -45 -18 -106.5t-15.5 -126t-13.5 -124t-10 -98.5q-41 -4 -100.5 -8t-110.5 -8zM1358 1769q0 -78 33.5 -114.5t76.5 -36.5q74 90 101.5 140t27.5 87q0 23 -12 48.5t-31.5 47t-46 36 t-57.5 14.5q-45 0 -68.5 -52.5t-23.5 -169.5zM1712 1800q0 -92 37 -135t100 -43q74 92 106 152.5t32 97.5q0 25 -15.5 51.5t-41 49t-56.5 37.5t-62 15q-49 0 -74.5 -50t-25.5 -175z" />
<glyph unicode="&#xc5;" horiz-adv-x="1740" d="M399 438q-20 70 -108 70q-57 0 -106.5 -25.5t-86.5 -68.5t-57.5 -99.5t-20.5 -117.5q0 -158 84 -244t234 -86q70 0 132 20.5t128 69.5t137.5 132t157.5 208q78 4 170 9t158 11q-2 -37 -3 -63.5t-2.5 -47t-1.5 -40.5v-43q0 -88 42 -131t139 -43q49 0 110.5 27.5t124 71.5 t121.5 99.5t105.5 111.5t74 106.5t27.5 85.5q0 29 -24.5 48t-53.5 19h-8q-55 -78 -103.5 -128t-86 -80.5t-64.5 -43t-37 -12.5q-23 0 -27 35t-4 100q39 33 63.5 77t24.5 87q0 45 -21.5 68.5t-57.5 29.5q4 68 9 140.5t11 145.5t15.5 140.5t19.5 122.5q61 39 99 65.5t59.5 47 t28.5 35t7 30.5q-4 49 -47 93.5t-127 44.5q-63 0 -114.5 -23t-89 -62.5t-64.5 -92t-41 -111.5q-78 -111 -155.5 -223.5t-148.5 -215t-132.5 -189.5t-106.5 -144q-111 -6 -204 -10.5t-179 -6.5zM418 137q-35 0 -56.5 23.5t-21.5 72.5q0 8 1 21.5t5 24.5h133t158 4 q-72 -84 -120 -115t-99 -31zM1024 471q25 43 60.5 103.5t73.5 127t74 130t60 110.5q-10 -45 -18 -106.5t-15.5 -126t-13.5 -124t-10 -98.5q-41 -4 -100.5 -8t-110.5 -8zM1649 1610q51 0 104 22.5t95 65.5t69 104.5t27 136.5q0 98 -48.5 158t-111.5 60q-29 0 -54.5 -16.5 t-41.5 -49.5q-16 16 -48 16q-29 0 -63.5 -25.5t-64 -68.5t-50 -96t-20.5 -109q0 -94 56.5 -146t150.5 -52zM1616 1853q0 25 17.5 65t52.5 75q49 -59 49 -117q0 -37 -21.5 -58.5t-44.5 -21.5q-53 0 -53 57z" />
<glyph unicode="&#xc6;" horiz-adv-x="2107" d="M1016 459q25 43 69.5 108.5t94 138t95.5 141t71 118.5q-10 -45 -21.5 -112t-23 -137.5t-20.5 -135t-13 -103.5q-20 -2 -52 -5t-68 -5t-71.5 -4t-60.5 -4zM418 137q-35 0 -56.5 23.5t-21.5 72.5q0 12 3 30t9 30q129 -12 281 -12q-72 -84 -118 -114t-97 -30zM1972 1184 q133 0 201 51t68 129q0 35 -19.5 65.5t-50.5 47.5q-59 -23 -110.5 -32t-123.5 -9q-37 0 -93 1t-122 1q-63 0 -128.5 1t-123.5 1q-123 0 -176 -39t-53 -103q0 -37 19 -61l90 -10q-78 -111 -160 -224.5t-158 -217t-140.5 -190.5t-109.5 -144q-49 -2 -94 -2h-88q-102 0 -201 6 q-10 31 -35.5 50t-72.5 19q-57 0 -106.5 -27.5t-86.5 -73.5t-57.5 -105.5t-20.5 -120.5q0 -158 84 -244t234 -86q70 0 130 17.5t123.5 63.5t133.5 126t156 205q111 0 179 5t108 15t58.5 23.5t30.5 29.5l-18 -168q-86 -23 -124 -58.5t-38 -82.5q0 -41 21 -61 q219 -2 388 -18.5t298 -16.5q82 0 136 15t87 39t45 53.5t12 58.5q0 43 -24 75q-129 8 -246 13.5t-240 5.5l35 307l35 -2t82 -5t95 -5t77 -2q80 0 130 35.5t50 101.5q0 29 -12 56.5t-35 41.5q-31 -8 -60.5 -14t-71.5 -9t-105.5 -4t-163.5 -1l63 493q78 -8 163 -12t136 -4z " />
<glyph unicode="&#xc7;" horiz-adv-x="1044" d="M520 -94q47 0 86 8q-18 -94 -48 -144.5t-69 -50.5q-27 0 -59.5 20.5t-60.5 53.5q-51 -6 -77 -43t-26 -78q0 -86 52.5 -139t150.5 -53q139 0 221 119.5t82 341.5v24q98 43 187.5 109.5t156 137.5t105.5 137.5t39 111.5q0 37 -23 51t-55 14q-47 -72 -107.5 -130t-128 -101 t-137.5 -66.5t-133 -23.5q-133 0 -183.5 72.5t-50.5 218.5q0 133 36 266t88 240.5t108.5 175t99.5 67.5q31 0 50.5 -28.5t19.5 -100.5q0 -16 -3 -49t-10.5 -69.5t-16.5 -75.5t-21 -68q10 -18 28.5 -27.5t57.5 -9.5q55 0 103 35t84 91t57.5 127t21.5 142q0 131 -65.5 204 t-219.5 73q-90 0 -181 -45t-177 -123t-162 -182.5t-132 -225t-89 -251t-33 -256.5q0 -246 113.5 -373t320.5 -127z" />
<glyph unicode="&#xc8;" horiz-adv-x="1052" d="M483 -111q106 0 207 33t189 86t160.5 117.5t123.5 128t80 119t29 88.5q0 37 -22.5 51t-55.5 14q-45 -68 -111.5 -133t-144.5 -116.5t-159 -83t-152 -31.5q-92 0 -134 45t-42 123q0 43 25.5 101t66.5 101q33 -25 70.5 -40t66.5 -15q37 0 72.5 19.5t63.5 52.5t44.5 75 t16.5 85q0 23 -19.5 37t-79.5 14q-29 0 -72.5 -4t-78.5 -13q-16 41 -26.5 96.5t-10.5 108.5q0 59 14 113.5t37 96.5t50.5 67.5t56.5 25.5q25 0 42 -22.5t17 -81.5q0 -78 -41 -164q6 -16 22.5 -26.5t51.5 -10.5q43 0 86 18.5t76.5 55.5t55 93t21.5 132q0 117 -65.5 180.5 t-208.5 63.5q-106 0 -200.5 -47t-165 -124t-111.5 -172t-41 -194q0 -92 28.5 -164.5t73.5 -119.5q-82 -39 -141.5 -89.5t-99 -106.5t-59 -113.5t-19.5 -112.5q0 -80 28.5 -145.5t81.5 -112.5t130 -73t173 -26zM819 2105q-25 29 -69 29q-82 0 -126 -52t-44 -118 q0 -12 2 -24.5t6 -22.5q53 -147 121.5 -230t132.5 -83q35 0 53 17t20 42q-35 90 -59.5 209.5t-36.5 232.5z" />
<glyph unicode="&#xc9;" horiz-adv-x="1052" d="M483 -111q106 0 207 33t189 86t160.5 117.5t123.5 128t80 119t29 88.5q0 37 -22.5 51t-55.5 14q-45 -68 -111.5 -133t-144.5 -116.5t-159 -83t-152 -31.5q-92 0 -134 45t-42 123q0 43 25.5 101t66.5 101q33 -25 70.5 -40t66.5 -15q37 0 72.5 19.5t63.5 52.5t44.5 75 t16.5 85q0 23 -19.5 37t-79.5 14q-29 0 -72.5 -4t-78.5 -13q-16 41 -26.5 96.5t-10.5 108.5q0 59 14 113.5t37 96.5t50.5 67.5t56.5 25.5q25 0 42 -22.5t17 -81.5q0 -78 -41 -164q6 -16 22.5 -26.5t51.5 -10.5q43 0 86 18.5t76.5 55.5t55 93t21.5 132q0 117 -65.5 180.5 t-208.5 63.5q-106 0 -200.5 -47t-165 -124t-111.5 -172t-41 -194q0 -92 28.5 -164.5t73.5 -119.5q-82 -39 -141.5 -89.5t-99 -106.5t-59 -113.5t-19.5 -112.5q0 -80 28.5 -145.5t81.5 -112.5t130 -73t173 -26zM1038 2132q-68 0 -102 -55q0 -76 -54.5 -173.5t-160.5 -250.5 q0 -53 47 -54q47 0 117.5 42t134.5 108q158 164 158 254q0 57 -35 93t-105 36z" />
<glyph unicode="&#xca;" horiz-adv-x="1052" d="M483 -111q106 0 207 33t189 86t160.5 117.5t123.5 128t80 119t29 88.5q0 37 -22.5 51t-55.5 14q-45 -68 -111.5 -133t-144.5 -116.5t-159 -83t-152 -31.5q-92 0 -134 45t-42 123q0 43 25.5 101t66.5 101q33 -25 70.5 -40t66.5 -15q37 0 72.5 19.5t63.5 52.5t44.5 75 t16.5 85q0 23 -19.5 37t-79.5 14q-29 0 -72.5 -4t-78.5 -13q-16 41 -26.5 96.5t-10.5 108.5q0 59 14 113.5t37 96.5t50.5 67.5t56.5 25.5q25 0 42 -22.5t17 -81.5q0 -78 -41 -164q6 -16 22.5 -26.5t51.5 -10.5q43 0 86 18.5t76.5 55.5t55 93t21.5 132q0 117 -65.5 180.5 t-208.5 63.5q-106 0 -200.5 -47t-165 -124t-111.5 -172t-41 -194q0 -92 28.5 -164.5t73.5 -119.5q-82 -39 -141.5 -89.5t-99 -106.5t-59 -113.5t-19.5 -112.5q0 -80 28.5 -145.5t81.5 -112.5t130 -73t173 -26zM903 1690q0 -53 19.5 -80t66.5 -27t88 23.5t60 56.5 q-2 25 -3 48.5t-1 39.5q0 106 -6.5 180t-25 118t-51 63.5t-83.5 19.5q-76 0 -146.5 -51t-125 -123t-87.5 -147.5t-33 -122.5q0 -45 23 -68t53 -23q23 0 41 9q47 150 97.5 223.5t80.5 73.5q20 0 26.5 -43t6.5 -170z" />
<glyph unicode="&#xcb;" horiz-adv-x="1052" d="M483 -111q106 0 207 33t189 86t160.5 117.5t123.5 128t80 119t29 88.5q0 37 -22.5 51t-55.5 14q-45 -68 -111.5 -133t-144.5 -116.5t-159 -83t-152 -31.5q-92 0 -134 45t-42 123q0 43 25.5 101t66.5 101q33 -25 70.5 -40t66.5 -15q37 0 72.5 19.5t63.5 52.5t44.5 75 t16.5 85q0 23 -19.5 37t-79.5 14q-29 0 -72.5 -4t-78.5 -13q-16 41 -26.5 96.5t-10.5 108.5q0 59 14 113.5t37 96.5t50.5 67.5t56.5 25.5q25 0 42 -22.5t17 -81.5q0 -78 -41 -164q6 -16 22.5 -26.5t51.5 -10.5q43 0 86 18.5t76.5 55.5t55 93t21.5 132q0 117 -65.5 180.5 t-208.5 63.5q-106 0 -200.5 -47t-165 -124t-111.5 -172t-41 -194q0 -92 28.5 -164.5t73.5 -119.5q-82 -39 -141.5 -89.5t-99 -106.5t-59 -113.5t-19.5 -112.5q0 -80 28.5 -145.5t81.5 -112.5t130 -73t173 -26zM584 1761q0 -78 33.5 -114.5t76.5 -36.5q74 90 101.5 140 t27.5 87q0 23 -12 48.5t-31.5 47t-46 35.5t-57.5 14q-45 0 -68.5 -52t-23.5 -169zM938 1792q0 -92 37 -135t100 -43q74 92 105.5 152.5t31.5 97.5q0 25 -15 51.5t-41 49t-56.5 37.5t-61.5 15q-49 0 -74.5 -50t-25.5 -175z" />
<glyph unicode="&#xcc;" horiz-adv-x="1030" d="M328 1309q0 -37 18 -62q68 -8 138.5 -20.5t140.5 -24.5q-27 -123 -54.5 -252t-57.5 -253t-58.5 -240.5t-57.5 -216.5q-104 -8 -173.5 -22.5t-112.5 -36t-61.5 -51.5t-18.5 -71t20 -61q119 0 205 -3t154.5 -6t127 -5t121.5 -2q162 0 247 35.5t85 134.5q0 23 -7 49t-21 45 q-59 4 -115.5 5t-118.5 1q37 111 91 326t136 571q127 0 205 53t78 156q0 43 -21.5 77.5t-56.5 51.5q-66 -23 -124 -32t-130 -9q-74 0 -154.5 2t-195.5 2q-123 0 -176 -39t-53 -102zM842 2093q-25 29 -70 29q-82 0 -126 -52.5t-44 -117.5q0 -12 2 -24.5t6 -22.5 q53 -147 122 -230.5t132 -83.5q35 0 53.5 17.5t20.5 42.5q-35 90 -59.5 209.5t-36.5 232.5z" />
<glyph unicode="&#xcd;" horiz-adv-x="1030" d="M328 1309q0 -37 18 -62q68 -8 138.5 -20.5t140.5 -24.5q-27 -123 -54.5 -252t-57.5 -253t-58.5 -240.5t-57.5 -216.5q-104 -8 -173.5 -22.5t-112.5 -36t-61.5 -51.5t-18.5 -71t20 -61q119 0 205 -3t154.5 -6t127 -5t121.5 -2q162 0 247 35.5t85 134.5q0 23 -7 49t-21 45 q-59 4 -115.5 5t-118.5 1q37 111 91 326t136 571q127 0 205 53t78 156q0 43 -21.5 77.5t-56.5 51.5q-66 -23 -124 -32t-130 -9q-74 0 -154.5 2t-195.5 2q-123 0 -176 -39t-53 -102zM1098 2132q-68 0 -103 -55q0 -76 -54 -173.5t-161 -250.5q0 -53 47 -54q47 0 118 42 t134 108q158 164 158 254q0 57 -34.5 93t-104.5 36z" />
<glyph unicode="&#xce;" horiz-adv-x="1030" d="M328 1309q0 -37 18 -62q68 -8 138.5 -20.5t140.5 -24.5q-27 -123 -54.5 -252t-57.5 -253t-58.5 -240.5t-57.5 -216.5q-104 -8 -173.5 -22.5t-112.5 -36t-61.5 -51.5t-18.5 -71t20 -61q119 0 205 -3t154.5 -6t127 -5t121.5 -2q162 0 247 35.5t85 134.5q0 23 -7 49t-21 45 q-59 4 -115.5 5t-118.5 1q37 111 91 326t136 571q127 0 205 53t78 156q0 43 -21.5 77.5t-56.5 51.5q-66 -23 -124 -32t-130 -9q-74 0 -154.5 2t-195.5 2q-123 0 -176 -39t-53 -102zM948 1706q0 -53 19.5 -80t66.5 -27t88 24t60 56q-2 25 -3 48.5t-1 39.5q0 106 -6.5 180 t-25 118t-51 63.5t-83.5 19.5q-76 0 -146.5 -51t-125 -122.5t-87 -147.5t-32.5 -123q0 -45 22.5 -67.5t52.5 -22.5q23 0 41 8q47 150 97.5 223.5t80.5 73.5q20 0 26.5 -43t6.5 -170z" />
<glyph unicode="&#xcf;" horiz-adv-x="1030" d="M328 1309q0 -37 18 -62q68 -8 138.5 -20.5t140.5 -24.5q-27 -123 -54.5 -252t-57.5 -253t-58.5 -240.5t-57.5 -216.5q-104 -8 -173.5 -22.5t-112.5 -36t-61.5 -51.5t-18.5 -71t20 -61q119 0 205 -3t154.5 -6t127 -5t121.5 -2q162 0 247 35.5t85 134.5q0 23 -7 49t-21 45 q-59 4 -115.5 5t-118.5 1q37 111 91 326t136 571q127 0 205 53t78 156q0 43 -21.5 77.5t-56.5 51.5q-66 -23 -124 -32t-130 -9q-74 0 -154.5 2t-195.5 2q-123 0 -176 -39t-53 -102zM616 1778q0 -78 34 -115t77 -37q74 90 101.5 140.5t27.5 86.5q0 23 -12.5 48.5t-31.5 47 t-46 36t-57 14.5q-45 0 -69 -52t-24 -169zM971 1808q0 -92 36.5 -135t100.5 -43q74 92 105.5 152.5t31.5 97.5q0 25 -15.5 51.5t-41 49t-56 38t-61.5 15.5q-49 0 -74.5 -50.5t-25.5 -175.5z" />
<glyph unicode="&#xd0;" horiz-adv-x="1490" d="M258 745q-70 0 -101.5 -29.5t-31.5 -74.5q0 -10 2 -22.5t10 -22.5q70 -14 140.5 -27.5t138.5 -23.5q-27 -76 -51.5 -139.5t-47.5 -106.5q-57 6 -94 9t-76 3q-49 0 -71.5 -29.5t-22.5 -68.5q0 -33 9.5 -71t28 -70.5t45 -55t61.5 -22.5q41 0 85 19.5t105 68.5 q135 -66 241.5 -95.5t200.5 -29.5q150 0 266.5 57.5t196.5 154.5t122 224t42 266q0 178 -54 334t-161.5 271.5t-268.5 182t-372 66.5q-141 0 -245.5 -33.5t-172 -83.5t-100.5 -108.5t-33 -107.5t26.5 -85t74.5 -36q92 72 174 99.5t186 27.5h43q16 0 39 -4q-18 -86 -49 -207 t-70 -248q-66 6 -122 12t-93 6zM1133 594q0 -80 -16.5 -153.5t-52.5 -129t-91 -88.5t-133 -33q-59 0 -127 14.5t-166 43.5q27 45 56.5 111.5t62.5 152.5h45q127 0 191.5 45t64.5 113q0 61 -49 84q-47 -14 -87 -23.5t-98 -13.5q29 92 52.5 190.5t45.5 202.5q154 -86 228 -224 t74 -292z" />
<glyph unicode="&#xd1;" horiz-adv-x="1765" d="M1528 1946q-129 -43 -180.5 -88.5t-51.5 -112.5q0 -57 33 -81t68 -24q14 18 34.5 30.5t49 23t70.5 21.5t104 24q184 41 263 92t79 141q0 53 -35 96t-104 52q-20 -27 -41 -46.5t-56 -38t-90 -38.5t-143 -51zM1483 657q-18 45 -54 107.5t-76 130.5t-78 131.5t-61 112.5 q74 121 104 185.5t30 105.5q0 37 -37 71.5t-121 34.5q-70 0 -127 -26.5t-99 -71.5t-64.5 -102.5t-22.5 -121.5q0 -59 9 -111t32 -120q-111 -262 -192 -430t-139.5 -264t-97 -133t-67.5 -37q-33 0 -44 21.5t-11 76.5q0 35 15 95.5t44 125.5q-12 29 -41 45.5t-72 16.5 q-53 0 -101 -27t-84 -74t-56.5 -115.5t-20.5 -150.5q0 -141 66.5 -216t218.5 -75q88 0 173 46t171 156t177 288t192 442q37 -59 75.5 -129t73.5 -137.5t63.5 -125.5t43.5 -97q-37 -100 -52.5 -154.5t-15.5 -89.5q0 -45 42 -71.5t122 -26.5q49 0 93 17t76 51t51 81t19 107 q0 53 -6 118.5t-14 108.5q49 188 87 321.5t67.5 223.5t55 142t53.5 80t60.5 38t77.5 14q16 16 28.5 44t12.5 54q0 78 -47 125.5t-131 47.5q-76 0 -128 -34t-95 -128t-84 -262.5t-94 -434.5z" />
<glyph unicode="&#xd2;" horiz-adv-x="1341" d="M1057 193q31 -23 74 -35.5t86 -12.5q70 0 132 35t109 83t75 100.5t28 87.5t-26 53t-54 20q-53 -88 -110.5 -132t-104.5 -44q-25 0 -50.5 7t-41.5 20q55 90 94 189.5t65.5 195.5t38.5 182t12 150q0 63 -17 121.5t-51 104.5t-85 73.5t-119 27.5q-47 0 -86 -12t-70 -33 q-4 51 -34.5 85t-81.5 34q-80 0 -166 -42t-168 -114.5t-157 -172t-131 -212t-89 -235.5t-33 -244q0 -274 118 -406.5t341 -132.5q160 0 288 71t214 188zM463 545q0 123 33.5 232.5t88 203.5t125 167t144.5 122q-59 -111 -89 -227.5t-30 -264.5q0 -141 37 -249.5t102 -186.5 q-37 -53 -93 -79.5t-115 -26.5q-100 0 -151.5 85t-51.5 224zM1016 555q-25 59 -35 129t-10 141q0 80 10 158t23 143q74 -8 95 -48t21 -109q0 -25 -6 -73t-19.5 -106.5t-32.5 -121t-46 -113.5zM1059 2087q-25 29 -70 29q-82 0 -126 -52.5t-44 -117.5q0 -12 2 -24.5t6 -23.5 q53 -147 122 -230t132 -83q35 0 53.5 17.5t20.5 42.5q-35 90 -59.5 209.5t-36.5 232.5z" />
<glyph unicode="&#xd3;" horiz-adv-x="1341" d="M1057 193q31 -23 74 -35.5t86 -12.5q70 0 132 35t109 83t75 100.5t28 87.5t-26 53t-54 20q-53 -88 -110.5 -132t-104.5 -44q-25 0 -50.5 7t-41.5 20q55 90 94 189.5t65.5 195.5t38.5 182t12 150q0 63 -17 121.5t-51 104.5t-85 73.5t-119 27.5q-47 0 -86 -12t-70 -33 q-4 51 -34.5 85t-81.5 34q-80 0 -166 -42t-168 -114.5t-157 -172t-131 -212t-89 -235.5t-33 -244q0 -274 118 -406.5t341 -132.5q160 0 288 71t214 188zM463 545q0 123 33.5 232.5t88 203.5t125 167t144.5 122q-59 -111 -89 -227.5t-30 -264.5q0 -141 37 -249.5t102 -186.5 q-37 -53 -93 -79.5t-115 -26.5q-100 0 -151.5 85t-51.5 224zM1016 555q-25 59 -35 129t-10 141q0 80 10 158t23 143q74 -8 95 -48t21 -109q0 -25 -6 -73t-19.5 -106.5t-32.5 -121t-46 -113.5zM1333 2105q-68 0 -102 -55q0 -76 -54.5 -173t-160.5 -251q0 -53 47 -53t117.5 42 t134.5 107q158 164 158 254q0 57 -35 93t-105 36z" />
<glyph unicode="&#xd4;" horiz-adv-x="1341" d="M1057 193q31 -23 74 -35.5t86 -12.5q70 0 132 35t109 83t75 100.5t28 87.5t-26 53t-54 20q-53 -88 -110.5 -132t-104.5 -44q-25 0 -50.5 7t-41.5 20q55 90 94 189.5t65.5 195.5t38.5 182t12 150q0 63 -17 121.5t-51 104.5t-85 73.5t-119 27.5q-47 0 -86 -12t-70 -33 q-4 51 -34.5 85t-81.5 34q-80 0 -166 -42t-168 -114.5t-157 -172t-131 -212t-89 -235.5t-33 -244q0 -274 118 -406.5t341 -132.5q160 0 288 71t214 188zM463 545q0 123 33.5 232.5t88 203.5t125 167t144.5 122q-59 -111 -89 -227.5t-30 -264.5q0 -141 37 -249.5t102 -186.5 q-37 -53 -93 -79.5t-115 -26.5q-100 0 -151.5 85t-51.5 224zM1016 555q-25 59 -35 129t-10 141q0 80 10 158t23 143q74 -8 95 -48t21 -109q0 -25 -6 -73t-19.5 -106.5t-32.5 -121t-46 -113.5zM1108 1708q0 -53 19.5 -79.5t66.5 -26.5t88 23.5t59 55.5q-2 25 -3 48.5t-1 39.5 q0 106 -6 180t-24.5 118t-51 63.5t-84.5 19.5q-76 0 -146.5 -51t-124.5 -122.5t-87 -147.5t-33 -123q0 -45 22.5 -67.5t53.5 -22.5q23 0 41 8q47 150 97 223.5t81 73.5q20 0 26.5 -43t6.5 -170z" />
<glyph unicode="&#xd5;" horiz-adv-x="1341" d="M1057 193q31 -23 74 -35.5t86 -12.5q70 0 132 35t109 83t75 100.5t28 87.5t-26 53t-54 20q-53 -88 -110.5 -132t-104.5 -44q-25 0 -50.5 7t-41.5 20q55 90 94 189.5t65.5 195.5t38.5 182t12 150q0 63 -17 121.5t-51 104.5t-85 73.5t-119 27.5q-47 0 -86 -12t-70 -33 q-4 51 -34.5 85t-81.5 34q-80 0 -166 -42t-168 -114.5t-157 -172t-131 -212t-89 -235.5t-33 -244q0 -274 118 -406.5t341 -132.5q160 0 288 71t214 188zM463 545q0 123 33.5 232.5t88 203.5t125 167t144.5 122q-59 -111 -89 -227.5t-30 -264.5q0 -141 37 -249.5t102 -186.5 q-37 -53 -93 -79.5t-115 -26.5q-100 0 -151.5 85t-51.5 224zM1016 555q-25 59 -35 129t-10 141q0 80 10 158t23 143q74 -8 95 -48t21 -109q0 -25 -6 -73t-19.5 -106.5t-32.5 -121t-46 -113.5zM1012 1905q-129 -43 -180.5 -88t-51.5 -113q0 -57 33 -81t68 -24 q14 18 34.5 30.5t49 23t70.5 22t104 23.5q184 41 263 92t79 141q0 53 -35 96.5t-105 51.5q-20 -27 -40.5 -46.5t-55.5 -38t-90 -38.5t-143 -51z" />
<glyph unicode="&#xd6;" horiz-adv-x="1341" d="M1057 193q31 -23 74 -35.5t86 -12.5q70 0 132 35t109 83t75 100.5t28 87.5t-26 53t-54 20q-53 -88 -110.5 -132t-104.5 -44q-25 0 -50.5 7t-41.5 20q55 90 94 189.5t65.5 195.5t38.5 182t12 150q0 63 -17 121.5t-51 104.5t-85 73.5t-119 27.5q-47 0 -86 -12t-70 -33 q-4 51 -34.5 85t-81.5 34q-80 0 -166 -42t-168 -114.5t-157 -172t-131 -212t-89 -235.5t-33 -244q0 -274 118 -406.5t341 -132.5q160 0 288 71t214 188zM463 545q0 123 33.5 232.5t88 203.5t125 167t144.5 122q-59 -111 -89 -227.5t-30 -264.5q0 -141 37 -249.5t102 -186.5 q-37 -53 -93 -79.5t-115 -26.5q-100 0 -151.5 85t-51.5 224zM1016 555q-25 59 -35 129t-10 141q0 80 10 158t23 143q74 -8 95 -48t21 -109q0 -25 -6 -73t-19.5 -106.5t-32.5 -121t-46 -113.5zM752 1776q0 -78 33.5 -115t76.5 -37q74 90 101.5 140.5t27.5 86.5q0 23 -12 48.5 t-31.5 47t-46.5 36t-57 14.5q-45 0 -68.5 -52t-23.5 -169zM1106 1806q0 -92 37 -135t100 -43q74 92 105.5 152.5t31.5 97.5q0 25 -15 51.5t-41 49t-56.5 38t-61.5 15.5q-49 0 -74.5 -50.5t-25.5 -175.5z" />
<glyph unicode="&#xd7;" horiz-adv-x="935" d="M385 451q-102 -78 -156.5 -136.5t-54.5 -117.5q0 -29 16.5 -50.5t47.5 -25.5q39 23 102 62.5t121 78.5q16 -35 37.5 -79t38.5 -68q29 -41 59.5 -57.5t65.5 -16.5t56 17.5t25 39.5q-8 20 -20 57.5t-25.5 78t-28 82.5t-26.5 75q129 92 200.5 165t71.5 138q0 51 -30.5 83 t-89.5 36q-29 -45 -89.5 -101.5t-142.5 -121.5q-31 78 -57.5 130t-53 83t-57 43t-67.5 12q-41 0 -75 -27.5t-38 -62.5q16 -25 38.5 -63.5t46.5 -82.5t46.5 -89t38.5 -82z" />
<glyph unicode="&#xd8;" horiz-adv-x="1357" d="M96 471q0 -190 60.5 -312t191.5 -184q-47 -82 -67.5 -145t-20.5 -96q0 -72 47 -116t113 -46q12 0 33.5 2t35.5 8q2 14 9.5 53t18.5 89.5t25.5 105.5t30.5 104q135 0 246 52.5t198 138.5t150.5 195.5t105.5 227.5t62.5 232.5t20.5 208.5q0 53 -11.5 105.5t-35 96.5 t-61.5 74.5t-91 41.5q31 57 50.5 97t31.5 69.5t16.5 52t4.5 45.5q0 90 -43 148.5t-119 58.5q-35 0 -66 -19q-4 -16 -12 -52t-20.5 -85t-29 -107.5t-36.5 -117.5q-10 31 -36 52t-69 21q-78 0 -162.5 -38.5t-166.5 -108.5t-155 -164t-128 -205.5t-88 -234.5t-33 -248z M1092 866q0 -117 -34 -229.5t-90.5 -201.5t-131 -144t-154.5 -55q49 119 92 218t85 193t82 190.5t83 206.5q68 -47 68 -178zM496 313q-55 82 -56 232q0 117 38 232.5t101.5 219t148.5 185.5t179 129z" />
<glyph unicode="&#xd9;" horiz-adv-x="1294" d="M74 1268q0 -45 30.5 -89t77.5 -53q55 53 107.5 85t83.5 32q25 0 41 -12t16 -51q0 -25 -7 -63t-26.5 -100.5t-53.5 -154.5t-85 -223q-33 -82 -56.5 -179.5t-23.5 -174.5q0 -170 106.5 -263.5t293.5 -93.5q119 0 232.5 57.5t212.5 179.5t181 314.5t142 462.5q27 66 43 113 t25 81.5t12.5 61.5t3.5 53q0 29 -20.5 63t-54.5 62.5t-76 47t-85 18.5q-80 0 -116 -76t-36 -195q0 -59 7.5 -124.5t23.5 -135.5q-80 -348 -191.5 -528t-217.5 -180q-129 0 -129 147q0 47 20 129t80 232q45 115 73.5 198.5t45 149t22.5 117t6 100.5q0 53 -17 99t-52 80 t-88.5 53.5t-126.5 19.5q-90 0 -168 -19.5t-135.5 -55.5t-89 -83t-31.5 -102zM973 2023q-25 29 -70 29q-82 0 -126 -52t-44 -118q0 -12 2 -24.5t6 -22.5q53 -147 122 -230t132 -83q35 0 53.5 17t20.5 42q-35 90 -59.5 209.5t-36.5 232.5z" />
<glyph unicode="&#xda;" horiz-adv-x="1294" d="M74 1268q0 -45 30.5 -89t77.5 -53q55 53 107.5 85t83.5 32q25 0 41 -12t16 -51q0 -25 -7 -63t-26.5 -100.5t-53.5 -154.5t-85 -223q-33 -82 -56.5 -179.5t-23.5 -174.5q0 -170 106.5 -263.5t293.5 -93.5q119 0 232.5 57.5t212.5 179.5t181 314.5t142 462.5q27 66 43 113 t25 81.5t12.5 61.5t3.5 53q0 29 -20.5 63t-54.5 62.5t-76 47t-85 18.5q-80 0 -116 -76t-36 -195q0 -59 7.5 -124.5t23.5 -135.5q-80 -348 -191.5 -528t-217.5 -180q-129 0 -129 147q0 47 20 129t80 232q45 115 73.5 198.5t45 149t22.5 117t6 100.5q0 53 -17 99t-52 80 t-88.5 53.5t-126.5 19.5q-90 0 -168 -19.5t-135.5 -55.5t-89 -83t-31.5 -102zM1204 2042q-68 0 -102 -55q0 -76 -54.5 -173.5t-160.5 -250.5q0 -53 47 -54q47 0 117.5 42t134.5 108q158 164 157 254q0 57 -34.5 93t-104.5 36z" />
<glyph unicode="&#xdb;" horiz-adv-x="1294" d="M74 1268q0 -45 30.5 -89t77.5 -53q55 53 107.5 85t83.5 32q25 0 41 -12t16 -51q0 -25 -7 -63t-26.5 -100.5t-53.5 -154.5t-85 -223q-33 -82 -56.5 -179.5t-23.5 -174.5q0 -170 106.5 -263.5t293.5 -93.5q119 0 232.5 57.5t212.5 179.5t181 314.5t142 462.5q27 66 43 113 t25 81.5t12.5 61.5t3.5 53q0 29 -20.5 63t-54.5 62.5t-76 47t-85 18.5q-80 0 -116 -76t-36 -195q0 -59 7.5 -124.5t23.5 -135.5q-80 -348 -191.5 -528t-217.5 -180q-129 0 -129 147q0 47 20 129t80 232q45 115 73.5 198.5t45 149t22.5 117t6 100.5q0 53 -17 99t-52 80 t-88.5 53.5t-126.5 19.5q-90 0 -168 -19.5t-135.5 -55.5t-89 -83t-31.5 -102zM1069 1661q0 -53 19.5 -80t66.5 -27t88 24t60 56q-2 25 -3.5 48.5t-1.5 39.5q0 106 -6 180t-24.5 118t-51 63.5t-83.5 19.5q-76 0 -147 -51t-125 -122.5t-87 -147.5t-33 -123q0 -45 22.5 -67.5 t53.5 -22.5q23 0 41 8q47 150 97.5 223.5t80.5 73.5q20 0 26.5 -43t6.5 -170z" />
<glyph unicode="&#xdc;" horiz-adv-x="1294" d="M74 1268q0 -45 30.5 -89t77.5 -53q55 53 107.5 85t83.5 32q25 0 41 -12t16 -51q0 -25 -7 -63t-26.5 -100.5t-53.5 -154.5t-85 -223q-33 -82 -56.5 -179.5t-23.5 -174.5q0 -170 106.5 -263.5t293.5 -93.5q119 0 232.5 57.5t212.5 179.5t181 314.5t142 462.5q27 66 43 113 t25 81.5t12.5 61.5t3.5 53q0 29 -20.5 63t-54.5 62.5t-76 47t-85 18.5q-80 0 -116 -76t-36 -195q0 -59 7.5 -124.5t23.5 -135.5q-80 -348 -191.5 -528t-217.5 -180q-129 0 -129 147q0 47 20 129t80 232q45 115 73.5 198.5t45 149t22.5 117t6 100.5q0 53 -17 99t-52 80 t-88.5 53.5t-126.5 19.5q-90 0 -168 -19.5t-135.5 -55.5t-89 -83t-31.5 -102zM750 1733q0 -78 33.5 -115t76.5 -37q74 90 101.5 140.5t27.5 86.5q0 23 -12 48.5t-31.5 47t-46.5 36t-57 14.5q-45 0 -68.5 -52t-23.5 -169zM1104 1763q0 -92 37 -135t100 -43q74 92 105.5 152.5 t31.5 97.5q0 25 -15 51.5t-41 49t-56.5 38t-61.5 15.5q-49 0 -74.5 -50.5t-25.5 -175.5z" />
<glyph unicode="&#xdd;" horiz-adv-x="1486" d="M1268 152q12 41 25.5 90t23.5 96q8 43 23.5 113.5t33 156.5t35.5 182.5t37 190.5q61 113 89 178.5t28 118.5q0 29 -18.5 62.5t-49.5 62.5t-68.5 47t-76.5 18q-49 0 -89 -49t-73 -154.5t-61.5 -273.5t-55.5 -407q-61 -68 -138 -105t-142 -37q-29 0 -47.5 17.5t-18.5 52.5 q0 18 3 36.5t11.5 46.5t24.5 67.5t43 99.5q78 172 123 274.5t67.5 160.5t27.5 88t5 58q0 168 -209 168q-61 0 -137 -22.5t-155.5 -61t-156.5 -93t-136.5 -118t-96.5 -134t-37 -142.5q0 -66 28 -119t74 -92t108.5 -60.5t131.5 -23.5q-35 -92 -49 -156.5t-14 -119.5 q0 -115 64.5 -185.5t183.5 -70.5q109 0 217 63.5t192 177.5q-20 -90 -37.5 -169t-39.5 -132q-231 -117 -334 -192.5t-103 -139.5q0 -41 22.5 -73.5t56.5 -56t74 -37t75 -13.5q72 0 136 29t119.5 77t100.5 111.5t78 132.5q82 51 171 125t164.5 153t125 154.5t49.5 133.5 q0 35 -21.5 50t-50.5 17q-86 -129 -172 -214.5t-184 -157.5zM377 991q0 55 34.5 104.5t82 87.5t92.5 60.5t67 22.5q20 0 29.5 -9.5t9.5 -35.5q0 -29 -15 -68t-41 -89t-57.5 -110.5t-64.5 -132.5q-80 41 -108.5 80t-28.5 90zM1419 2095q-68 0 -102 -55q0 -76 -54.5 -173.5 t-160.5 -250.5q0 -53 47 -53t117.5 42t134.5 107q158 164 158 254q0 57 -35 93t-105 36z" />
<glyph unicode="&#xde;" horiz-adv-x="1380" d="M954 1763q-66 0 -133 -107.5t-127 -348.5q-102 -16 -187 -49t-144.5 -76t-92 -94.5t-32.5 -100.5q0 -53 29.5 -80.5t64.5 -27.5q43 41 118.5 75.5t163.5 51.5q-18 -80 -36.5 -153t-38 -145.5t-40 -150.5t-44.5 -168q-41 -145 -81 -218t-89 -73q-29 0 -60.5 20.5 t-64.5 55.5q-29 -2 -54.5 -15.5t-45 -36t-32 -51t-12.5 -59.5q0 -92 61.5 -148.5t168.5 -56.5q135 0 255 83t195 253q119 6 248 58.5t235.5 143.5t175 217t68.5 280q0 92 -23.5 174t-79.5 144.5t-149.5 103.5t-230.5 51q4 25 13.5 84t18.5 123.5t16 120t7 71.5q0 29 -9 39 t-32 10zM1102 752q0 -78 -22.5 -143.5t-62.5 -112.5t-93.5 -74t-112.5 -27h-12t-17 2q35 174 59.5 325.5t41.5 281.5q70 -12 112.5 -38t66 -59t32 -72.5t8.5 -82.5z" />
<glyph unicode="&#xdf;" horiz-adv-x="1071" d="M49 123q-33 -162 -76 -236.5t-94 -74.5q-29 0 -60.5 20.5t-64.5 54.5q-29 -2 -54.5 -15t-45 -35.5t-31.5 -51.5t-12 -59q0 -92 64.5 -138.5t170.5 -46.5q84 0 160 40t138.5 116t108.5 185.5t71 246.5q49 274 88 473t72.5 327t63.5 188.5t62 60.5q66 0 66 -84 q0 -43 -22.5 -102.5t-80.5 -147.5q-41 -61 -41 -129q0 -47 30 -97.5t93 -134.5q78 -100 108 -159.5t30 -94.5q0 -45 -39 -45q-35 0 -77 51.5t-69 122.5q-16 8 -43 9q-25 0 -50.5 -11.5t-45.5 -33t-33.5 -53t-13.5 -70.5q0 -49 19.5 -92.5t55 -75t86 -50t113.5 -18.5 q68 0 129.5 25.5t108.5 73t74.5 115t27.5 151.5q0 41 -10 83t-37.5 97t-79 128t-131.5 175q98 117 141.5 205t43.5 160q0 55 -21.5 102t-59.5 81t-89.5 53.5t-112.5 19.5q-104 0 -186 -58.5t-155 -206t-142.5 -401.5t-147.5 -643z" />
<glyph unicode="&#xe0;" d="M485 238q-6 -47 -6 -80q0 -98 40 -133t108 -35q37 0 87 24.5t104 65.5t107.5 91t95.5 102.5t67.5 99.5t25.5 80q0 29 -21.5 46t-54.5 17q-98 -139 -172.5 -200.5t-105.5 -61.5q-12 0 -18.5 8t-6.5 39q0 41 22.5 143.5t76.5 296.5q12 43 17 79t5 57q0 27 -14.5 56.5 t-41 54t-67.5 39.5t-92 15q-47 0 -72 -26l-6 -119q-14 14 -53 14q-78 0 -159 -55t-147.5 -144t-109.5 -202t-43 -227q0 -141 57.5 -212t145.5 -71q27 0 57.5 11.5t61 38t59 72.5t53.5 116zM487 338q-18 -23 -38.5 -37t-42.5 -14q-23 0 -38.5 13t-15.5 71q0 59 17.5 118.5 t45 112.5t63.5 95t75 67zM631 1638q-25 29 -70 29q-82 0 -126 -52t-44 -118q0 -12 2 -24.5t6 -22.5q53 -147 122 -230t132 -83q35 0 53.5 17t20.5 42q-35 90 -59.5 209.5t-36.5 232.5z" />
<glyph unicode="&#xe1;" d="M485 238q-6 -47 -6 -80q0 -98 40 -133t108 -35q37 0 87 24.5t104 65.5t107.5 91t95.5 102.5t67.5 99.5t25.5 80q0 29 -21.5 46t-54.5 17q-98 -139 -172.5 -200.5t-105.5 -61.5q-12 0 -18.5 8t-6.5 39q0 41 22.5 143.5t76.5 296.5q12 43 17 79t5 57q0 27 -14.5 56.5 t-41 54t-67.5 39.5t-92 15q-47 0 -72 -26l-6 -119q-14 14 -53 14q-78 0 -159 -55t-147.5 -144t-109.5 -202t-43 -227q0 -141 57.5 -212t145.5 -71q27 0 57.5 11.5t61 38t59 72.5t53.5 116zM487 338q-18 -23 -38.5 -37t-42.5 -14q-23 0 -38.5 13t-15.5 71q0 59 17.5 118.5 t45 112.5t63.5 95t75 67zM764 1657q-68 0 -102 -55q0 -76 -54.5 -173.5t-161.5 -250.5q0 -53 48 -54q47 0 117.5 42t133.5 108q158 164 158 254q0 57 -34.5 93t-104.5 36z" />
<glyph unicode="&#xe2;" d="M485 238q-6 -47 -6 -80q0 -98 40 -133t108 -35q37 0 87 24.5t104 65.5t107.5 91t95.5 102.5t67.5 99.5t25.5 80q0 29 -21.5 46t-54.5 17q-98 -139 -172.5 -200.5t-105.5 -61.5q-12 0 -18.5 8t-6.5 39q0 41 22.5 143.5t76.5 296.5q12 43 17 79t5 57q0 27 -14.5 56.5 t-41 54t-67.5 39.5t-92 15q-47 0 -72 -26l-6 -119q-14 14 -53 14q-78 0 -159 -55t-147.5 -144t-109.5 -202t-43 -227q0 -141 57.5 -212t145.5 -71q27 0 57.5 11.5t61 38t59 72.5t53.5 116zM487 338q-18 -23 -38.5 -37t-42.5 -14q-23 0 -38.5 13t-15.5 71q0 59 17.5 118.5 t45 112.5t63.5 95t75 67zM678 1233q0 -53 19.5 -80t66.5 -27t88 24t59 56q-2 25 -3 48.5t-1 39.5q0 106 -6 180t-24.5 118t-51 63.5t-84.5 19.5q-76 0 -146.5 -51t-124.5 -122.5t-87 -147.5t-33 -123q0 -45 22.5 -67.5t53.5 -22.5q23 0 41 8q47 150 97 223.5t81 73.5 q20 0 26.5 -43t6.5 -170z" />
<glyph unicode="&#xe3;" d="M485 238q-6 -47 -6 -80q0 -98 40 -133t108 -35q37 0 87 24.5t104 65.5t107.5 91t95.5 102.5t67.5 99.5t25.5 80q0 29 -21.5 46t-54.5 17q-98 -139 -172.5 -200.5t-105.5 -61.5q-12 0 -18.5 8t-6.5 39q0 41 22.5 143.5t76.5 296.5q12 43 17 79t5 57q0 27 -14.5 56.5 t-41 54t-67.5 39.5t-92 15q-47 0 -72 -26l-6 -119q-14 14 -53 14q-78 0 -159 -55t-147.5 -144t-109.5 -202t-43 -227q0 -141 57.5 -212t145.5 -71q27 0 57.5 11.5t61 38t59 72.5t53.5 116zM487 338q-18 -23 -38.5 -37t-42.5 -14q-23 0 -38.5 13t-15.5 71q0 59 17.5 118.5 t45 112.5t63.5 95t75 67zM598 1425q-129 -43 -180 -88t-51 -112q0 -57 32.5 -81t67.5 -24q14 18 34.5 30.5t49.5 23t71 21.5t103 24q184 41 263 92t79 141q0 53 -35 96t-104 51q-20 -27 -41 -46t-55.5 -37.5t-90 -39t-143.5 -51.5z" />
<glyph unicode="&#xe4;" d="M485 238q-6 -47 -6 -80q0 -98 40 -133t108 -35q37 0 87 24.5t104 65.5t107.5 91t95.5 102.5t67.5 99.5t25.5 80q0 29 -21.5 46t-54.5 17q-98 -139 -172.5 -200.5t-105.5 -61.5q-12 0 -18.5 8t-6.5 39q0 41 22.5 143.5t76.5 296.5q12 43 17 79t5 57q0 27 -14.5 56.5 t-41 54t-67.5 39.5t-92 15q-47 0 -72 -26l-6 -119q-14 14 -53 14q-78 0 -159 -55t-147.5 -144t-109.5 -202t-43 -227q0 -141 57.5 -212t145.5 -71q27 0 57.5 11.5t61 38t59 72.5t53.5 116zM487 338q-18 -23 -38.5 -37t-42.5 -14q-23 0 -38.5 13t-15.5 71q0 59 17.5 118.5 t45 112.5t63.5 95t75 67zM346 1255q0 -78 34 -114.5t77 -36.5q74 90 101.5 140t27.5 87q0 23 -12.5 48.5t-32 47t-46 36t-57.5 14.5q-45 0 -68.5 -52.5t-23.5 -169.5zM700 1286q0 -92 37 -135t101 -43q74 92 105.5 152.5t31.5 97.5q0 25 -15.5 51.5t-41 49t-56.5 37.5 t-61 15q-49 0 -75 -50t-26 -175z" />
<glyph unicode="&#xe5;" d="M485 238q-6 -47 -6 -80q0 -98 40 -133t108 -35q37 0 87 24.5t104 65.5t107.5 91t95.5 102.5t67.5 99.5t25.5 80q0 29 -21.5 46t-54.5 17q-98 -139 -172.5 -200.5t-105.5 -61.5q-12 0 -18.5 8t-6.5 39q0 41 22.5 143.5t76.5 296.5q12 43 17 79t5 57q0 27 -14.5 56.5 t-41 54t-67.5 39.5t-92 15q-47 0 -72 -26l-6 -119q-14 14 -53 14q-78 0 -159 -55t-147.5 -144t-109.5 -202t-43 -227q0 -141 57.5 -212t145.5 -71q27 0 57.5 11.5t61 38t59 72.5t53.5 116zM487 338q-18 -23 -38.5 -37t-42.5 -14q-23 0 -38.5 13t-15.5 71q0 59 17.5 118.5 t45 112.5t63.5 95t75 67zM672 1139q51 0 104 22.5t95 65.5t69 104.5t27 136.5q0 98 -48.5 158t-111.5 60q-29 0 -54.5 -16.5t-41.5 -49.5q-16 16 -47 16q-29 0 -64 -25.5t-64.5 -68.5t-50 -96t-20.5 -109q0 -94 56.5 -146t150.5 -52zM639 1382q0 25 17.5 65t52.5 75 q49 -59 49 -117q0 -37 -21.5 -58.5t-44.5 -21.5q-53 0 -53 57z" />
<glyph unicode="&#xe6;" horiz-adv-x="1161" d="M817 920q-14 55 -60 99t-116 44q-47 0 -72 -27l-6 -139q-14 14 -53 14q-78 0 -159 -55t-147.5 -144t-109.5 -202t-43 -227q0 -141 57.5 -212t145.5 -71q27 0 60.5 10t67.5 36t65.5 71t56.5 114q39 -250 266 -249q66 0 137.5 24.5t139 65.5t128 92t105.5 104.5t71.5 103.5 t26.5 87q0 25 -20.5 45t-57.5 22q-43 -68 -97 -122t-112.5 -93t-117 -60.5t-109.5 -21.5q-59 0 -78.5 37t-19.5 107q104 25 177 60.5t118 82.5t65.5 103.5t20.5 121.5q0 109 -56.5 160t-162.5 51q-27 0 -56.5 -7t-54.5 -25zM487 338q-18 -23 -38.5 -37t-42.5 -14 q-23 0 -38.5 13t-15.5 71q0 59 17.5 118.5t45 112.5t63.5 95t75 67zM918 670q0 -47 -27 -88t-113 -58q10 109 43 161t56 52q41 1 41 -67z" />
<glyph unicode="&#xe7;" horiz-adv-x="692" d="M371 -18q-39 -162 -111 -162q-27 0 -59.5 20.5t-61.5 53.5q-51 -6 -76.5 -43t-25.5 -78q0 -86 52 -139.5t151 -53.5q139 0 221 120t82 341q72 39 138.5 94t116.5 113.5t80.5 114t30.5 94.5q0 33 -25.5 50t-54.5 17q-41 -66 -90 -118t-100 -91t-100.5 -59t-92.5 -20 q-59 0 -84.5 35.5t-25.5 121.5q0 78 12 140.5t28.5 106.5t36 67.5t33.5 23.5q10 0 18.5 -10t8.5 -33q0 -20 -5 -54t-15 -75q12 -18 32.5 -28.5t55.5 -10.5q37 0 71.5 18.5t60 50.5t42 75t16.5 92q0 94 -52 146t-157 52q-82 0 -166 -53t-151.5 -141t-110.5 -201t-43 -231 q0 -166 67.5 -256t219.5 -90h33z" />
<glyph unicode="&#xe8;" horiz-adv-x="735" d="M492 670q0 -47 -27 -88t-113 -58q10 109 43 161t56 52q41 1 41 -67zM344 -18q66 0 137.5 24.5t139 65.5t128 92t105.5 104.5t71.5 103.5t26.5 87q0 25 -20.5 45t-57.5 22q-43 -68 -97 -122t-112.5 -93t-117 -60.5t-109.5 -21.5q-59 0 -78.5 37t-19.5 107q104 25 177 60.5 t118 82.5t65.5 103.5t20.5 121.5q0 109 -56.5 160t-162.5 51q-74 0 -154 -54t-146.5 -142t-108.5 -200t-42 -228q0 -166 70.5 -256t222.5 -90zM522 1571q-25 29 -69 28q-82 0 -126 -52t-44 -117q0 -12 2 -24.5t6 -23.5q53 -147 121.5 -230t132.5 -83q35 0 53 17.5t20 41.5 q-35 90 -59.5 210t-36.5 233z" />
<glyph unicode="&#xe9;" horiz-adv-x="735" d="M492 670q0 -47 -27 -88t-113 -58q10 109 43 161t56 52q41 1 41 -67zM344 -18q66 0 137.5 24.5t139 65.5t128 92t105.5 104.5t71.5 103.5t26.5 87q0 25 -20.5 45t-57.5 22q-43 -68 -97 -122t-112.5 -93t-117 -60.5t-109.5 -21.5q-59 0 -78.5 37t-19.5 107q104 25 177 60.5 t118 82.5t65.5 103.5t20.5 121.5q0 109 -56.5 160t-162.5 51q-74 0 -154 -54t-146.5 -142t-108.5 -200t-42 -228q0 -166 70.5 -256t222.5 -90zM750 1606q-68 0 -103 -56q0 -76 -54 -173t-161 -251q0 -53 47 -53t118 42t134 108q158 164 158 254q0 57 -34.5 93t-104.5 36z " />
<glyph unicode="&#xea;" horiz-adv-x="735" d="M492 670q0 -47 -27 -88t-113 -58q10 109 43 161t56 52q41 1 41 -67zM344 -18q66 0 137.5 24.5t139 65.5t128 92t105.5 104.5t71.5 103.5t26.5 87q0 25 -20.5 45t-57.5 22q-43 -68 -97 -122t-112.5 -93t-117 -60.5t-109.5 -21.5q-59 0 -78.5 37t-19.5 107q104 25 177 60.5 t118 82.5t65.5 103.5t20.5 121.5q0 109 -56.5 160t-162.5 51q-74 0 -154 -54t-146.5 -142t-108.5 -200t-42 -228q0 -166 70.5 -256t222.5 -90zM618 1161q0 -53 19.5 -79.5t67.5 -26.5q47 0 88 23.5t59 56.5q-2 25 -3 48t-1 40q0 106 -6 180t-24.5 118t-51.5 63.5t-84 19.5 q-76 0 -146.5 -51.5t-125 -123t-87 -147.5t-32.5 -123q0 -45 22.5 -67.5t53.5 -22.5q23 0 41 8q47 150 97 223.5t81 73.5q20 0 26 -43t6 -170z" />
<glyph unicode="&#xeb;" horiz-adv-x="735" d="M492 670q0 -47 -27 -88t-113 -58q10 109 43 161t56 52q41 1 41 -67zM344 -18q66 0 137.5 24.5t139 65.5t128 92t105.5 104.5t71.5 103.5t26.5 87q0 25 -20.5 45t-57.5 22q-43 -68 -97 -122t-112.5 -93t-117 -60.5t-109.5 -21.5q-59 0 -78.5 37t-19.5 107q104 25 177 60.5 t118 82.5t65.5 103.5t20.5 121.5q0 109 -56.5 160t-162.5 51q-74 0 -154 -54t-146.5 -142t-108.5 -200t-42 -228q0 -166 70.5 -256t222.5 -90zM287 1223q0 -78 33.5 -115t76.5 -37q74 90 101.5 140.5t27.5 86.5q0 23 -12 48.5t-31.5 47t-46 36t-57.5 14.5q-45 0 -68.5 -52 t-23.5 -169zM641 1253q0 -92 37 -135t100 -43q74 92 105.5 152.5t31.5 97.5q0 25 -15 51.5t-40.5 49t-56.5 38t-62 15.5q-49 0 -74.5 -50.5t-25.5 -175.5z" />
<glyph unicode="&#xec;" horiz-adv-x="520" d="M133 440q-39 -96 -56.5 -164.5t-17.5 -136.5q0 -86 35 -126t127 -40q47 0 103.5 27t114 69t110.5 94t95 105.5t66.5 100.5t24.5 80q0 31 -25.5 52t-54.5 21q-102 -145 -169.5 -202.5t-88.5 -57.5q-29 0 -28 31q0 35 20.5 91t63.5 163q29 66 50 125t21 100q0 31 -3 54.5 t-13 41t-30.5 26.5t-55.5 9q-47 0 -101.5 -36t-100.5 -87t-76.5 -109.5t-30.5 -103.5q0 -31 4 -64.5t16 -62.5zM471 1530q-25 29 -70 29q-82 0 -126 -52.5t-44 -117.5q0 -12 2.5 -24.5t6.5 -23.5q53 -147 121.5 -230t132.5 -83q35 0 53 17.5t20 41.5q-35 90 -59.5 210 t-36.5 233z" />
<glyph unicode="&#xed;" horiz-adv-x="520" d="M133 440q-39 -96 -56.5 -164.5t-17.5 -136.5q0 -86 35 -126t127 -40q47 0 103.5 27t114 69t110.5 94t95 105.5t66.5 100.5t24.5 80q0 31 -25.5 52t-54.5 21q-102 -145 -169.5 -202.5t-88.5 -57.5q-29 0 -28 31q0 35 20.5 91t63.5 163q29 66 50 125t21 100q0 31 -3 54.5 t-13 41t-30.5 26.5t-55.5 9q-47 0 -101.5 -36t-100.5 -87t-76.5 -109.5t-30.5 -103.5q0 -31 4 -64.5t16 -62.5zM664 1565q-68 0 -103 -56q0 -76 -54 -173t-161 -251q0 -53 47 -53t118 42t134 108q158 164 158 254q0 57 -34.5 93t-104.5 36z" />
<glyph unicode="&#xee;" horiz-adv-x="520" d="M133 440q-39 -96 -56.5 -164.5t-17.5 -136.5q0 -86 35 -126t127 -40q47 0 103.5 27t114 69t110.5 94t95 105.5t66.5 100.5t24.5 80q0 31 -25.5 52t-54.5 21q-102 -145 -169.5 -202.5t-88.5 -57.5q-29 0 -28 31q0 35 20.5 91t63.5 163q29 66 50 125t21 100q0 31 -3 54.5 t-13 41t-30.5 26.5t-55.5 9q-47 0 -101.5 -36t-100.5 -87t-76.5 -109.5t-30.5 -103.5q0 -31 4 -64.5t16 -62.5zM545 1112q0 -53 19.5 -79.5t66.5 -26.5t88 23.5t59 55.5q-2 25 -3 48.5t-1 40.5q0 106 -6 179.5t-24.5 118t-51.5 63.5t-84 19q-76 0 -146.5 -51t-124.5 -122.5 t-87 -147.5t-33 -123q0 -45 22.5 -67.5t53.5 -22.5q23 0 41 8q47 150 97 223.5t81 73.5q20 0 26.5 -43t6.5 -170z" />
<glyph unicode="&#xef;" horiz-adv-x="520" d="M133 440q-39 -96 -56.5 -164.5t-17.5 -136.5q0 -86 35 -126t127 -40q47 0 103.5 27t114 69t110.5 94t95 105.5t66.5 100.5t24.5 80q0 31 -25.5 52t-54.5 21q-102 -145 -169.5 -202.5t-88.5 -57.5q-29 0 -28 31q0 35 20.5 91t63.5 163q29 66 50 125t21 100q0 31 -3 54.5 t-13 41t-30.5 26.5t-55.5 9q-47 0 -101.5 -36t-100.5 -87t-76.5 -109.5t-30.5 -103.5q0 -31 4 -64.5t16 -62.5zM225 1196q0 -78 34 -115t77 -37q74 90 101.5 140.5t27.5 87.5q0 23 -12.5 48.5t-32 47t-46 35.5t-57.5 14q-45 0 -68.5 -52t-23.5 -169zM580 1227 q0 -92 36.5 -135t100.5 -43q74 92 105.5 152.5t31.5 96.5q0 25 -15.5 51.5t-41 49t-56 38t-61.5 15.5q-49 0 -74.5 -50t-25.5 -175z" />
<glyph unicode="&#xf0;" horiz-adv-x="856" d="M61 315q0 -172 74 -252.5t197 -80.5q98 0 202.5 74.5t190.5 210.5t142.5 330t56.5 433q0 141 -52 256q129 111 129 205q0 55 -36.5 90t-96.5 35q-29 -41 -55.5 -76t-67.5 -76q-121 109 -272 109q-68 0 -118 -16.5t-82.5 -44t-48 -62.5t-15.5 -72q0 -18 6 -36.5t21 -30.5 q129 -10 223 -76q-43 -35 -58.5 -66.5t-15.5 -62.5q0 -35 19.5 -61.5t52.5 -30.5q25 14 57.5 32.5t67.5 40.5q41 -82 41 -188q0 -125 -20.5 -241.5t-52.5 -208t-69 -146.5t-69 -55q-31 0 -46.5 18.5t-15.5 71.5q0 47 14.5 106.5t41 118t66.5 109.5t89 84q2 8 2 24 q0 41 -23.5 64.5t-70.5 23.5q-59 0 -130 -47t-132.5 -123.5t-103.5 -177.5t-42 -205z" />
<glyph unicode="&#xf1;" horiz-adv-x="968" d="M143 481q-51 -139 -51 -256q0 -47 15.5 -88t42 -73.5t63.5 -51t80 -18.5q35 0 50 5t32 21q2 51 6 97.5t9 91.5t13.5 93t18.5 108q59 84 105 112.5t61 28.5q25 0 24 -25q0 -16 -16 -60t-35.5 -99.5t-36 -116t-16.5 -111.5q0 -86 35 -126t127 -40q47 0 105.5 27t117.5 69 t114.5 94t99.5 105.5t70.5 100.5t26.5 80q0 31 -25.5 49t-54.5 18q-47 -68 -94 -121t-87 -90t-70.5 -56.5t-45.5 -19.5q-29 0 -28 31q0 18 11 53t26.5 76t33 82t31.5 76q33 74 46.5 129t13.5 96q0 59 -35 100t-107 41q-35 0 -77 -18t-91 -60t-103 -109t-110 -163 q20 37 35.5 81t26 85t15.5 76t5 53q0 47 -17.5 66.5t-70.5 19.5q-47 0 -101.5 -36t-100.5 -87t-76.5 -109.5t-30.5 -103.5q0 -31 4 -64.5t16 -62.5zM604 1348q-129 -43 -180 -88.5t-51 -112.5q0 -57 32.5 -81t67.5 -24q14 18 34.5 30.5t49.5 23t71 21.5t103 24 q184 41 263 92t79 141q0 53 -34.5 96t-104.5 52q-20 -27 -41 -46.5t-55.5 -38t-90 -38.5t-143.5 -51z" />
<glyph unicode="&#xf2;" horiz-adv-x="843" d="M639 1524q-25 29 -70 28q-82 0 -126 -52t-44 -118q0 -12 2 -24t7 -23q53 -147 121.5 -230t132.5 -83q35 0 53 17.5t20 41.5q-35 90 -59.5 210t-36.5 233zM692 877q-25 0 -40 -6.5t-31 -22.5q-2 51 -41 70.5t-80 19.5q-82 0 -161 -54.5t-141.5 -145.5t-101.5 -209.5 t-39 -245.5q0 -76 20.5 -131.5t55.5 -92t82 -55t102 -18.5q109 0 193 53t158 154q16 -10 34.5 -15.5t47.5 -5.5q66 0 122 32t98 76t66.5 91t24.5 80t-25.5 53t-54.5 20q-51 -82 -96 -118.5t-90 -36.5q-16 0 -26.5 5t-14.5 9q33 86 48 151.5t15 139.5q0 35 -8 70.5 t-23.5 65.5t-39 48.5t-54.5 18.5zM348 358q0 63 18.5 129t50.5 124.5t73.5 104.5t89.5 68q-23 -45 -34 -114.5t-11 -122.5q0 -41 5 -86t17 -92q-29 -70 -63.5 -105t-71.5 -35q-29 0 -51.5 26.5t-22.5 102.5z" />
<glyph unicode="&#xf3;" horiz-adv-x="843" d="M870 1559q-68 0 -102 -56q0 -76 -54.5 -173t-160.5 -251q0 -53 47 -53t117.5 42t134.5 108q158 164 158 254q0 57 -35 93t-105 36zM692 877q-25 0 -40 -6.5t-31 -22.5q-2 51 -41 70.5t-80 19.5q-82 0 -161 -54.5t-141.5 -145.5t-101.5 -209.5t-39 -245.5 q0 -76 20.5 -131.5t55.5 -92t82 -55t102 -18.5q109 0 193 53t158 154q16 -10 34.5 -15.5t47.5 -5.5q66 0 122 32t98 76t66.5 91t24.5 80t-25.5 53t-54.5 20q-51 -82 -96 -118.5t-90 -36.5q-16 0 -26.5 5t-14.5 9q33 86 48 151.5t15 139.5q0 35 -8 70.5t-23.5 65.5t-39 48.5 t-54.5 18.5zM348 358q0 63 18.5 129t50.5 124.5t73.5 104.5t89.5 68q-23 -45 -34 -114.5t-11 -122.5q0 -41 5 -86t17 -92q-29 -70 -63.5 -105t-71.5 -35q-29 0 -51.5 26.5t-22.5 102.5z" />
<glyph unicode="&#xf4;" horiz-adv-x="843" d="M674 1128q0 -53 19.5 -79.5t66.5 -26.5t88 23.5t59 56.5q-2 25 -3 48.5t-1 39.5q0 106 -6 180t-24.5 118t-51.5 63.5t-84 19.5q-76 0 -146.5 -51.5t-124.5 -123t-87 -147t-33 -123.5q0 -45 22.5 -67.5t53.5 -22.5q23 0 41 8q47 150 97 223.5t81 73.5q20 0 26.5 -43 t6.5 -170zM692 877q-25 0 -40 -6.5t-31 -22.5q-2 51 -41 70.5t-80 19.5q-82 0 -161 -54.5t-141.5 -145.5t-101.5 -209.5t-39 -245.5q0 -76 20.5 -131.5t55.5 -92t82 -55t102 -18.5q109 0 193 53t158 154q16 -10 34.5 -15.5t47.5 -5.5q66 0 122 32t98 76t66.5 91t24.5 80 t-25.5 53t-54.5 20q-51 -82 -96 -118.5t-90 -36.5q-16 0 -26.5 5t-14.5 9q33 86 48 151.5t15 139.5q0 35 -8 70.5t-23.5 65.5t-39 48.5t-54.5 18.5zM348 358q0 63 18.5 129t50.5 124.5t73.5 104.5t89.5 68q-23 -45 -34 -114.5t-11 -122.5q0 -41 5 -86t17 -92 q-29 -70 -63.5 -105t-71.5 -35q-29 0 -51.5 26.5t-22.5 102.5z" />
<glyph unicode="&#xf5;" horiz-adv-x="843" d="M586 1337q-129 -43 -180.5 -88t-51.5 -112q0 -57 33 -81t68 -24q14 18 34.5 30.5t49 23t70.5 21.5t104 23q184 41 263 92.5t79 141.5q0 53 -35 96t-105 51q-20 -27 -40.5 -46t-55.5 -37.5t-90 -39t-143 -51.5zM692 877q-25 0 -40 -6.5t-31 -22.5q-2 51 -41 70.5t-80 19.5 q-82 0 -161 -54.5t-141.5 -145.5t-101.5 -209.5t-39 -245.5q0 -76 20.5 -131.5t55.5 -92t82 -55t102 -18.5q109 0 193 53t158 154q16 -10 34.5 -15.5t47.5 -5.5q66 0 122 32t98 76t66.5 91t24.5 80t-25.5 53t-54.5 20q-51 -82 -96 -118.5t-90 -36.5q-16 0 -26.5 5t-14.5 9 q33 86 48 151.5t15 139.5q0 35 -8 70.5t-23.5 65.5t-39 48.5t-54.5 18.5zM348 358q0 63 18.5 129t50.5 124.5t73.5 104.5t89.5 68q-23 -45 -34 -114.5t-11 -122.5q0 -41 5 -86t17 -92q-29 -70 -63.5 -105t-71.5 -35q-29 0 -51.5 26.5t-22.5 102.5z" />
<glyph unicode="&#xf6;" horiz-adv-x="843" d="M371 1192q0 -78 33.5 -115t76.5 -37q74 90 101.5 140.5t27.5 87.5q0 23 -12 48t-31.5 46.5t-46 36t-57.5 14.5q-45 0 -68.5 -52t-23.5 -169zM725 1223q0 -92 37 -135.5t100 -43.5q74 92 105.5 152.5t31.5 97.5q0 25 -15 51.5t-40.5 49t-56.5 38t-62 15.5q-49 0 -74.5 -50 t-25.5 -175zM692 877q-25 0 -40 -6.5t-31 -22.5q-2 51 -41 70.5t-80 19.5q-82 0 -161 -54.5t-141.5 -145.5t-101.5 -209.5t-39 -245.5q0 -76 20.5 -131.5t55.5 -92t82 -55t102 -18.5q109 0 193 53t158 154q16 -10 34.5 -15.5t47.5 -5.5q66 0 122 32t98 76t66.5 91t24.5 80 t-25.5 53t-54.5 20q-51 -82 -96 -118.5t-90 -36.5q-16 0 -26.5 5t-14.5 9q33 86 48 151.5t15 139.5q0 35 -8 70.5t-23.5 65.5t-39 48.5t-54.5 18.5zM348 358q0 63 18.5 129t50.5 124.5t73.5 104.5t89.5 68q-23 -45 -34 -114.5t-11 -122.5q0 -41 5 -86t17 -92 q-29 -70 -63.5 -105t-71.5 -35q-29 0 -51.5 26.5t-22.5 102.5z" />
<glyph unicode="&#xf7;" horiz-adv-x="1124" d="M559 324q-49 0 -82 -35q-35 -33 -33 -82q0 -49 35 -82q35 -35 82 -35q49 0 82 35q33 33 33 82q-4 53 -35 84q-33 33 -82 33zM1032 414l-2 139h-948l2 -139h948zM555 874q-47 0 -82 -34q-35 -33 -35 -82t37 -82q35 -35 82 -35t82 35q31 31 31 82q0 49 -33 82 q-35 34 -82 34z" />
<glyph unicode="&#xf8;" horiz-adv-x="843" d="M754 383q33 86 48 151.5t15 139.5q0 35 -8 70.5t-23.5 65.5t-39 48.5t-54.5 18.5q-25 0 -40 -6.5t-31 -22.5q47 68 73.5 126t26.5 107q0 55 -34 92t-89 37q-12 0 -27.5 -2t-27.5 -6q-4 -31 -16.5 -100.5t-53.5 -179.5q-82 -6 -157.5 -62.5t-133 -144.5t-91.5 -201 t-34 -231q0 -96 31 -160t84 -98q-33 -51 -44 -92.5t-11 -75.5q0 -53 32.5 -83t79.5 -32q10 0 28.5 2t29.5 6q4 25 16 89.5t41 148.5q98 6 176 58t148 147q16 -10 34.5 -15.5t47.5 -5.5q66 0 122 32t98 76t66.5 91t24.5 80t-25.5 53t-54.5 20q-51 -82 -96 -118.5t-90 -36.5 q-16 0 -26.5 5t-14.5 9zM348 358q0 63 18.5 129t50.5 124.5t73.5 104.5t89.5 68q-23 -45 -34 -114.5t-11 -122.5q0 -41 5 -86t17 -92q-29 -70 -63.5 -105t-71.5 -35q-29 0 -51.5 26.5t-22.5 102.5z" />
<glyph unicode="&#xf9;" horiz-adv-x="927" d="M641 915q-4 -66 -11 -127t-20.5 -125.5t-32 -135t-45.5 -152.5q-31 -33 -72.5 -62.5t-68.5 -29.5q-41 0 -41 53q0 25 8.5 69t24.5 99q158 256 158 358q0 47 -26 64.5t-73 17.5q-53 0 -113.5 -38t-110.5 -93t-83 -116.5t-33 -108.5q0 -31 5.5 -62.5t21.5 -64.5 q-41 -98 -61.5 -181t-20.5 -130q0 -92 29.5 -142.5t120.5 -50.5q70 0 155.5 65.5t159.5 206.5q-12 -66 -12 -106q0 -80 35.5 -106.5t99.5 -26.5q66 0 142.5 43t148.5 108q45 39 85 82t70.5 85t48 79t17.5 66t-25.5 46t-58.5 17q-98 -139 -170 -202.5t-107 -63.5q-12 0 -20 6 t-8 27q0 14 14 54t33.5 90t42 104.5t39.5 97.5q23 61 31 96t8 63q0 31 -15.5 62t-41 53.5t-62.5 36.5t-80 14q-23 0 -46.5 -9.5t-39.5 -29.5zM582 1550q-25 29 -70 29q-82 0 -126 -52t-44 -118q0 -12 2 -24.5t6 -22.5q53 -147 122 -230t132 -83q35 0 53.5 17t20.5 42 q-35 90 -59.5 209.5t-36.5 232.5z" />
<glyph unicode="&#xfa;" horiz-adv-x="927" d="M641 915q-4 -66 -11 -127t-20.5 -125.5t-32 -135t-45.5 -152.5q-31 -33 -72.5 -62.5t-68.5 -29.5q-41 0 -41 53q0 25 8.5 69t24.5 99q158 256 158 358q0 47 -26 64.5t-73 17.5q-53 0 -113.5 -38t-110.5 -93t-83 -116.5t-33 -108.5q0 -31 5.5 -62.5t21.5 -64.5 q-41 -98 -61.5 -181t-20.5 -130q0 -92 29.5 -142.5t120.5 -50.5q70 0 155.5 65.5t159.5 206.5q-12 -66 -12 -106q0 -80 35.5 -106.5t99.5 -26.5q66 0 142.5 43t148.5 108q45 39 85 82t70.5 85t48 79t17.5 66t-25.5 46t-58.5 17q-98 -139 -170 -202.5t-107 -63.5q-12 0 -20 6 t-8 27q0 14 14 54t33.5 90t42 104.5t39.5 97.5q23 61 31 96t8 63q0 31 -15.5 62t-41 53.5t-62.5 36.5t-80 14q-23 0 -46.5 -9.5t-39.5 -29.5zM831 1585q-68 0 -102 -55q0 -76 -54 -173t-161 -251q0 -53 47 -53t118 42t134 107q158 164 158 254q0 57 -35 93t-105 36z" />
<glyph unicode="&#xfb;" horiz-adv-x="927" d="M641 915q-4 -66 -11 -127t-20.5 -125.5t-32 -135t-45.5 -152.5q-31 -33 -72.5 -62.5t-68.5 -29.5q-41 0 -41 53q0 25 8.5 69t24.5 99q158 256 158 358q0 47 -26 64.5t-73 17.5q-53 0 -113.5 -38t-110.5 -93t-83 -116.5t-33 -108.5q0 -31 5.5 -62.5t21.5 -64.5 q-41 -98 -61.5 -181t-20.5 -130q0 -92 29.5 -142.5t120.5 -50.5q70 0 155.5 65.5t159.5 206.5q-12 -66 -12 -106q0 -80 35.5 -106.5t99.5 -26.5q66 0 142.5 43t148.5 108q45 39 85 82t70.5 85t48 79t17.5 66t-25.5 46t-58.5 17q-98 -139 -170 -202.5t-107 -63.5q-12 0 -20 6 t-8 27q0 14 14 54t33.5 90t42 104.5t39.5 97.5q23 61 31 96t8 63q0 31 -15.5 62t-41 53.5t-62.5 36.5t-80 14q-23 0 -46.5 -9.5t-39.5 -29.5zM715 1153q0 -53 19.5 -79.5t66.5 -26.5t88 23.5t59 55.5q-2 25 -3 48.5t-1 39.5q0 106 -6 180t-24.5 118t-51.5 63.5t-84 19.5 q-76 0 -146.5 -51t-124.5 -122.5t-87 -147.5t-33 -123q0 -45 22.5 -67.5t53.5 -22.5q23 0 41 8q47 150 97 223.5t81 73.5q20 0 26.5 -43t6.5 -170z" />
<glyph unicode="&#xfc;" horiz-adv-x="927" d="M641 915q-4 -66 -11 -127t-20.5 -125.5t-32 -135t-45.5 -152.5q-31 -33 -72.5 -62.5t-68.5 -29.5q-41 0 -41 53q0 25 8.5 69t24.5 99q158 256 158 358q0 47 -26 64.5t-73 17.5q-53 0 -113.5 -38t-110.5 -93t-83 -116.5t-33 -108.5q0 -31 5.5 -62.5t21.5 -64.5 q-41 -98 -61.5 -181t-20.5 -130q0 -92 29.5 -142.5t120.5 -50.5q70 0 155.5 65.5t159.5 206.5q-12 -66 -12 -106q0 -80 35.5 -106.5t99.5 -26.5q66 0 142.5 43t148.5 108q45 39 85 82t70.5 85t48 79t17.5 66t-25.5 46t-58.5 17q-98 -139 -170 -202.5t-107 -63.5q-12 0 -20 6 t-8 27q0 14 14 54t33.5 90t42 104.5t39.5 97.5q23 61 31 96t8 63q0 31 -15.5 62t-41 53.5t-62.5 36.5t-80 14q-23 0 -46.5 -9.5t-39.5 -29.5zM377 1219q0 -78 33.5 -115t76.5 -37q74 90 101.5 140t27.5 87q0 23 -12 48.5t-31.5 47t-46 36t-57.5 14.5q-45 0 -68.5 -52 t-23.5 -169zM731 1249q0 -92 37 -135t100 -43q74 92 106 152.5t32 97.5q0 25 -15.5 51.5t-41 49t-56.5 38t-62 15.5q-49 0 -74.5 -50.5t-25.5 -175.5z" />
<glyph unicode="&#xfd;" horiz-adv-x="888" d="M238 -88q-90 -96 -123 -170t-33 -121q0 -53 28.5 -87t102.5 -34q72 0 130 34t100 90.5t64.5 130t22.5 153.5q0 31 -4 85t-12 105q29 27 65.5 63t57.5 64q27 -33 64.5 -45t80.5 -12q55 0 112.5 26.5t106 68.5t78 91t29.5 97q0 33 -24.5 53t-53.5 20q-41 -66 -89 -117 t-97 -51q-18 0 -37 17.5t-29 42.5q57 88 82 155.5t25 122.5q0 33 -14.5 70t-39 68.5t-56.5 52t-64 20.5q-41 0 -64.5 -26.5t-46.5 -90.5q-23 -66 -35 -150.5t-12 -158.5q0 -20 1 -37.5t3 -33.5q-10 -18 -36.5 -52t-55.5 -63q-31 115 -45 195.5t-14 119.5q0 82 23.5 138.5 t98.5 109.5q0 49 -28.5 77t-96.5 28q-53 0 -110 -27t-103.5 -74t-76 -111.5t-29.5 -140.5q0 -41 3 -77.5t11 -75.5t18.5 -83t26.5 -100q23 -86 38.5 -141t25.5 -94t17.5 -67.5t13.5 -57.5zM889 1567q-68 0 -103 -56q0 -76 -54 -173t-161 -251q0 -53 47 -53t118 42t134 108 q158 164 158 254q0 57 -34.5 93t-104.5 36z" />
<glyph unicode="&#xfe;" horiz-adv-x="952" d="M213 -526q47 0 80 68.5t56.5 194.5t36.5 301t24 390q59 63 90.5 88t52.5 25q20 0 30.5 -12.5t10.5 -45.5q0 -35 -17.5 -82t-46.5 -100q-41 -12 -57 -40t-16 -64q0 -33 9 -68t30.5 -64.5t56.5 -48t88 -18.5q47 0 104.5 24.5t116 63.5t113.5 89t98 99.5t68.5 95.5t25.5 79 q0 31 -25.5 49t-54.5 18q-51 -74 -100 -125t-90 -83t-72.5 -47t-50.5 -15q-25 0 -42 6t-34 16q102 119 164 236t62 213q0 82 -43 133t-119 51q-66 0 -158 -72.5t-190 -220.5q14 154 29.5 254.5t39 167t61.5 111.5t99 90q2 6 2 12v12q0 45 -42 79t-114 34q-84 0 -146 -44 t-105 -124t-67 -190.5t-30 -241.5l-41 -813q-57 -104 -81.5 -180t-24.5 -119q0 -39 20.5 -72t53 -57.5t70.5 -38.5t75 -14z" />
<glyph unicode="&#xff;" horiz-adv-x="888" d="M238 -88q-90 -96 -123 -170t-33 -121q0 -53 28.5 -87t102.5 -34q72 0 130 34t100 90.5t64.5 130t22.5 153.5q0 31 -4 85t-12 105q29 27 65.5 63t57.5 64q27 -33 64.5 -45t80.5 -12q55 0 112.5 26.5t106 68.5t78 91t29.5 97q0 33 -24.5 53t-53.5 20q-41 -66 -89 -117 t-97 -51q-18 0 -37 17.5t-29 42.5q57 88 82 155.5t25 122.5q0 33 -14.5 70t-39 68.5t-56.5 52t-64 20.5q-41 0 -64.5 -26.5t-46.5 -90.5q-23 -66 -35 -150.5t-12 -158.5q0 -20 1 -37.5t3 -33.5q-10 -18 -36.5 -52t-55.5 -63q-31 115 -45 195.5t-14 119.5q0 82 23.5 138.5 t98.5 109.5q0 49 -28.5 77t-96.5 28q-53 0 -110 -27t-103.5 -74t-76 -111.5t-29.5 -140.5q0 -41 3 -77.5t11 -75.5t18.5 -83t26.5 -100q23 -86 38.5 -141t25.5 -94t17.5 -67.5t13.5 -57.5zM383 1217q0 -78 34 -115t77 -37q74 90 101.5 140t27.5 87q0 23 -12.5 48.5t-32 47 t-46 36t-57.5 14.5q-45 0 -68.5 -52t-23.5 -169zM737 1247q0 -92 37 -135t100 -43q74 92 106 152.5t32 97.5q0 25 -15.5 51.5t-41 49t-56.5 38t-61 15.5q-49 0 -75 -50.5t-26 -175.5z" />
<glyph unicode="&#x152;" horiz-adv-x="1714" d="M1145 -111q106 0 206.5 33t188.5 86t161 117.5t124 128t79.5 119t28.5 88.5q0 37 -22.5 51t-55.5 14q-45 -68 -111.5 -133t-144 -116.5t-158.5 -83t-153 -31.5q-92 0 -134 45t-42 123q0 43 25.5 101t66.5 101q33 -25 71 -40t66 -15q37 0 73 19.5t63.5 52.5t44 75t16.5 85 q0 23 -19.5 37t-78.5 14q-29 0 -73 -4t-79 -13q-16 41 -26.5 96.5t-10.5 108.5q0 59 14.5 113.5t37 96.5t50 67.5t56.5 25.5q25 0 42 -22.5t17 -81.5q0 -78 -41 -164q6 -16 22.5 -26.5t51.5 -10.5q43 0 86 18.5t77 55.5t55.5 93t21.5 132q0 117 -65.5 180.5t-209.5 63.5 q-90 0 -169.5 -34t-145.5 -89q-43 55 -108.5 88t-149.5 33q-164 0 -308.5 -94.5t-253 -247t-172 -345t-63.5 -388.5q0 -129 34 -225.5t95.5 -162t144.5 -98t181 -32.5q92 0 164.5 21.5t140.5 61.5q53 -41 125 -64.5t164 -23.5zM643 178q-78 0 -129 73t-51 232 q0 158 24.5 292t68.5 231.5t103.5 151.5t131.5 54q53 0 105 -23.5t87 -60.5q-35 -88 -35 -176q0 -92 29 -164.5t74 -119.5q-82 -39 -141.5 -89.5t-99.5 -106.5t-59.5 -113.5t-19.5 -112.5v-23q0 -10 2 -22q-49 -23 -90 -23z" />
<glyph unicode="&#x153;" horiz-adv-x="1226" d="M541 948q-90 0 -176 -53t-155 -143t-111 -212t-42 -257q0 -76 20.5 -131.5t55.5 -92t82 -55t102 -18.5q80 0 147.5 29.5t127.5 88.5q70 -123 244 -122q66 0 137 24.5t139 65.5t128 92t105.5 104.5t72 103.5t26.5 87q0 25 -20.5 45t-57.5 22q-43 -68 -97.5 -122 t-112.5 -93t-116.5 -60.5t-109.5 -21.5q-59 0 -79 37t-20 107q104 25 177 60.5t118 82.5t65.5 103.5t20.5 121.5q0 109 -56 160t-163 51q-57 0 -117.5 -31.5t-115.5 -86.5q-33 51 -83 82.5t-136 31.5zM543 328v-54q-23 -27 -53.5 -43t-63.5 -16q-35 0 -59.5 34t-24.5 109 q0 74 17.5 140.5t43 116t56 78t59.5 28.5q35 0 64.5 -22.5t44.5 -47.5q-41 -78 -62.5 -166.5t-21.5 -156.5zM983 670q0 -47 -26.5 -88t-112.5 -58q10 109 43 161t55 52q41 1 41 -67z" />
<glyph unicode="&#x178;" horiz-adv-x="1486" d="M1268 152q12 41 25.5 90t23.5 96q8 43 23.5 113.5t33 156.5t35.5 182.5t37 190.5q61 113 89 178.5t28 118.5q0 29 -18.5 62.5t-49.5 62.5t-68.5 47t-76.5 18q-49 0 -89 -49t-73 -154.5t-61.5 -273.5t-55.5 -407q-61 -68 -138 -105t-142 -37q-29 0 -47.5 17.5t-18.5 52.5 q0 18 3 36.5t11.5 46.5t24.5 67.5t43 99.5q78 172 123 274.5t67.5 160.5t27.5 88t5 58q0 168 -209 168q-61 0 -137 -22.5t-155.5 -61t-156.5 -93t-136.5 -118t-96.5 -134t-37 -142.5q0 -66 28 -119t74 -92t108.5 -60.5t131.5 -23.5q-35 -92 -49 -156.5t-14 -119.5 q0 -115 64.5 -185.5t183.5 -70.5q109 0 217 63.5t192 177.5q-20 -90 -37.5 -169t-39.5 -132q-231 -117 -334 -192.5t-103 -139.5q0 -41 22.5 -73.5t56.5 -56t74 -37t75 -13.5q72 0 136 29t119.5 77t100.5 111.5t78 132.5q82 51 171 125t164.5 153t125 154.5t49.5 133.5 q0 35 -21.5 50t-50.5 17q-86 -129 -172 -214.5t-184 -157.5zM377 991q0 55 34.5 104.5t82 87.5t92.5 60.5t67 22.5q20 0 29.5 -9.5t9.5 -35.5q0 -29 -15 -68t-41 -89t-57.5 -110.5t-64.5 -132.5q-80 41 -108.5 80t-28.5 90zM913 1757q0 -78 34 -114.5t77 -36.5 q74 90 101.5 140t27.5 87q0 23 -12.5 48.5t-31.5 47t-46 35.5t-57 14q-45 0 -69 -52t-24 -169zM1268 1788q0 -92 36.5 -135t100.5 -43q74 92 105.5 152.5t31.5 97.5q0 25 -15.5 51t-41 48.5t-56 38t-61.5 15.5q-49 0 -74.5 -50t-25.5 -175z" />
<glyph unicode="&#x2c6;" horiz-adv-x="819" d="M432 1153q0 -53 19.5 -79.5t66.5 -26.5t88 23.5t60 55.5q-2 25 -3 48.5t-1 39.5q0 106 -6.5 180t-25 118t-51 63.5t-83.5 19.5q-76 0 -146.5 -51t-125 -122.5t-87.5 -147.5t-33 -123q0 -45 23 -67.5t53 -22.5q23 0 41 8q47 150 97.5 223.5t80.5 73.5q20 0 26.5 -43 t6.5 -170z" />
<glyph unicode="&#x2dc;" horiz-adv-x="1024" d="M444 1386q-129 -43 -180 -88t-51 -112q0 -57 33 -81t67 -24q14 18 35 30.5t49.5 23t70.5 21.5t103 24q184 41 263 92t79 141q0 53 -34.5 96t-104.5 52q-20 -27 -40.5 -46.5t-55.5 -38t-90.5 -39t-143.5 -51.5z" />
<glyph unicode="&#x2000;" horiz-adv-x="1078" />
<glyph unicode="&#x2001;" horiz-adv-x="2157" />
<glyph unicode="&#x2002;" horiz-adv-x="1078" />
<glyph unicode="&#x2003;" horiz-adv-x="2157" />
<glyph unicode="&#x2004;" horiz-adv-x="719" />
<glyph unicode="&#x2005;" horiz-adv-x="539" />
<glyph unicode="&#x2006;" horiz-adv-x="359" />
<glyph unicode="&#x2007;" horiz-adv-x="359" />
<glyph unicode="&#x2008;" horiz-adv-x="269" />
<glyph unicode="&#x2009;" horiz-adv-x="431" />
<glyph unicode="&#x200a;" horiz-adv-x="119" />
<glyph unicode="&#x2010;" horiz-adv-x="946" d="M440 520q-74 -27 -100.5 -53.5t-26.5 -69.5q0 -29 15.5 -50t38.5 -30q272 33 399 90.5t127 159.5q0 49 -34 87t-75 40q-45 -33 -82.5 -56.5t-76.5 -44t-83.5 -38t-101.5 -35.5z" />
<glyph unicode="&#x2011;" horiz-adv-x="946" d="M440 520q-74 -27 -100.5 -53.5t-26.5 -69.5q0 -29 15.5 -50t38.5 -30q272 33 399 90.5t127 159.5q0 49 -34 87t-75 40q-45 -33 -82.5 -56.5t-76.5 -44t-83.5 -38t-101.5 -35.5z" />
<glyph unicode="&#x2012;" horiz-adv-x="946" d="M440 520q-74 -27 -100.5 -53.5t-26.5 -69.5q0 -29 15.5 -50t38.5 -30q272 33 399 90.5t127 159.5q0 49 -34 87t-75 40q-45 -33 -82.5 -56.5t-76.5 -44t-83.5 -38t-101.5 -35.5z" />
<glyph unicode="&#x2013;" horiz-adv-x="1382" d="M489 541q-88 -4 -121.5 -36t-33.5 -79q0 -12 5 -27.5t15 -25.5q20 -2 64.5 -3t99.5 -2t116.5 -2t117 -2.5t98.5 -1.5h65q195 0 294.5 47.5t99.5 143.5q0 72 -64 88q-47 -20 -109.5 -35.5t-152.5 -28t-211 -21.5t-283 -15z" />
<glyph unicode="&#x2014;" horiz-adv-x="1382" d="M166 524q-117 -4 -167 -42t-50 -85q0 -29 16 -41q31 -2 66 -2h75q96 0 213 5.5t245 13.5t264.5 19t271.5 24q25 -2 46 -3t44 -1q154 0 231.5 45t77.5 123q0 39 -16.5 63.5t-38.5 34.5q-47 -18 -173 -42t-301 -46.5t-383 -41t-421 -24.5z" />
<glyph unicode="&#x2018;" horiz-adv-x="671" d="M715 1305q6 20 6 38q0 39 -24.5 61.5t-71.5 22.5q-55 0 -120 -38.5t-120 -102t-93 -144.5t-38 -167q0 -47 14.5 -89t42 -75t66.5 -51.5t88 -18.5q82 0 130 51.5t48 127.5q0 39 -16 69q-59 25 -81 56.5t-22 66.5q0 20 16.5 46t42 51.5t60.5 51.5t72 44z" />
<glyph unicode="&#x2019;" horiz-adv-x="671" d="M276 864q-6 -23 -6 -39q0 -39 24.5 -61.5t72.5 -22.5q55 0 119.5 39t120 102.5t93 144.5t37.5 167q0 47 -14 89t-42 75t-67 51t-88 18q-82 0 -130 -51t-48 -127q0 -39 17 -69q59 -25 80.5 -56.5t21.5 -66.5q0 -20 -16.5 -46t-42 -51.5t-60.5 -51.5t-72 -44z" />
<glyph unicode="&#x201a;" horiz-adv-x="776" d="M203 -211q-6 -23 -6 -39q0 -39 24.5 -61.5t71.5 -22.5q55 0 119.5 39t120 102.5t93.5 144.5t38 167q0 47 -14.5 89t-42 74.5t-66.5 51t-88 18.5q-82 0 -130.5 -51t-48.5 -127q0 -39 17 -70q59 -25 80.5 -56.5t21.5 -65.5q0 -20 -16.5 -46t-42 -51.5t-60 -51.5t-71.5 -44z " />
<glyph unicode="&#x201c;" horiz-adv-x="1212" d="M1255 1305q6 20 7 38q0 39 -25 61.5t-72 22.5q-55 0 -119.5 -38.5t-120 -102t-93 -144.5t-37.5 -167q0 -47 14 -89t42 -75t66.5 -51.5t88.5 -18.5q82 0 130 51.5t48 127.5q0 39 -17 69q-59 25 -80.5 56.5t-21.5 66.5q0 20 16.5 46t42 51.5t60 51.5t71.5 44zM715 1294 q6 20 6 39q0 39 -24.5 61.5t-71.5 22.5q-55 0 -120 -39t-120 -102.5t-93 -144t-38 -166.5q0 -47 14.5 -92.5t42 -81t66.5 -58t88 -22.5q82 0 130 51t48 127q0 39 -16 69q-59 25 -81 60t-22 69q0 47 51.5 103.5t139.5 103.5z" />
<glyph unicode="&#x201d;" horiz-adv-x="1212" d="M276 864q-6 -23 -6 -39q0 -39 24.5 -61.5t72.5 -22.5q55 0 119.5 39t120 102.5t93 144.5t37.5 167q0 47 -14 89t-42 75t-67 51t-88 18q-82 0 -130 -51t-48 -127q0 -39 17 -69q59 -25 80.5 -56.5t21.5 -66.5q0 -20 -16.5 -46t-42 -51.5t-60.5 -51.5t-72 -44zM817 874 q-6 -23 -6 -38q0 -39 24.5 -61.5t71.5 -22.5q55 0 120 38.5t120 102t93 144.5t38 167q0 47 -14.5 92t-42 81t-66.5 58.5t-88 22.5q-82 0 -130 -51t-48 -127q0 -39 16 -70q59 -25 81 -59.5t22 -69.5q0 -47 -51.5 -103.5t-139.5 -103.5z" />
<glyph unicode="&#x201e;" horiz-adv-x="1316" d="M203 -211q-6 -23 -6 -39q0 -39 24.5 -61.5t71.5 -22.5q55 0 119.5 39t120 102.5t93.5 144.5t38 167q0 47 -14.5 89t-42 74.5t-66.5 51t-88 18.5q-82 0 -130.5 -51t-48.5 -127q0 -39 17 -70q59 -25 80.5 -56.5t21.5 -65.5q0 -20 -16.5 -46t-42 -51.5t-60 -51.5t-71.5 -44z M743 -201q-6 -23 -6 -39q0 -39 24.5 -61.5t72.5 -22.5q55 0 119.5 39t119.5 102.5t93 144.5t38 167q0 47 -14 92t-42 81t-67 58.5t-88 22.5q-82 0 -130 -51t-48 -127q0 -39 16 -70q59 -25 81 -59.5t22 -69.5q0 -47 -51.5 -103.5t-139.5 -103.5z" />
<glyph unicode="&#x2022;" horiz-adv-x="997" d="M610 201q55 0 102.5 27.5t83 72.5t55 103.5t19.5 117.5q0 33 -16 64.5t-50 57.5t-85 41t-121 15q-115 0 -162 -62.5t-47 -164.5q0 -53 16.5 -102t45 -87t69.5 -60.5t90 -22.5z" />
<glyph unicode="&#x2026;" horiz-adv-x="2158" d="M463 -35q41 0 76.5 27.5t61.5 70.5t41 93.5t15 95.5q0 39 -35.5 63.5t-107.5 24.5q-43 0 -82 -12.5t-68.5 -35t-48 -54t-18.5 -68.5q0 -41 12.5 -78t34 -65.5t52 -45t67.5 -16.5zM1159 -35q41 0 77 24.5t61.5 63.5t41 86t15.5 92q0 43 -47 76t-138 33q-86 0 -131 -47 t-45 -123q0 -41 12.5 -78t34 -65.5t52 -45t67.5 -16.5zM1876 -35q41 0 77 27.5t61.5 70.5t41 93.5t15.5 95.5q0 39 -26 63.5t-97 24.5q-43 0 -86 -15.5t-77 -43t-54.5 -66.5t-20.5 -86q0 -82 46 -123t120 -41z" />
<glyph unicode="&#x202f;" horiz-adv-x="431" />
<glyph unicode="&#x2039;" horiz-adv-x="1228" d="M963 918q-82 -102 -171.5 -186.5t-199.5 -162.5q-90 -29 -140.5 -78t-50.5 -108q0 -49 50 -49q37 0 81 10q66 -70 109 -118t70.5 -85t43 -65.5t25.5 -57.5q14 -6 29 -6q25 0 50.5 15.5t45 40t31.5 57.5t12 68q0 66 -34.5 129t-122.5 147q76 61 125 110.5t77.5 90.5 t39.5 74.5t11 66.5q0 39 -22 71t-59 36z" />
<glyph unicode="&#x203a;" horiz-adv-x="1228" d="M483 8q82 102 171 186.5t200 161.5q90 29 140 78t50 109q0 49 -49 49q-37 0 -82 -10q-66 70 -108.5 118t-70 84.5t-43 65.5t-25.5 57q-16 6 -29 6q-25 0 -50.5 -15t-45 -39.5t-31.5 -57.5t-12 -68q0 -66 33.5 -129t123.5 -147q-76 -61 -125 -110.5t-77.5 -90.5t-40 -75 t-11.5 -66q0 -39 22.5 -71t59.5 -36z" />
<glyph unicode="&#x205f;" horiz-adv-x="539" />
<glyph unicode="&#x20ac;" horiz-adv-x="1071" d="M580 -53q92 0 169.5 32.5t136 78.5t91.5 100.5t33 97.5q0 35 -14.5 60.5t-47.5 31.5q-59 -66 -134 -115t-146 -49q-84 0 -116 51.5t-32 139.5v4q176 10 256 58t80 116q0 35 -12.5 52.5t-34.5 27.5q-41 -18 -103.5 -28.5t-166.5 -18.5q27 121 75 169t99 48q57 0 108 -12.5 t86 -28.5q61 45 62 117q0 66 -47.5 112.5t-151.5 46.5q-78 0 -155.5 -34.5t-146.5 -96t-123 -147.5t-87 -189q-98 -10 -142 -42.5t-44 -77.5q0 -12 4 -27.5t14 -26.5q23 -4 57.5 -6t73.5 -4q-2 -16 -2 -35v-33q0 -190 97.5 -281t263.5 -91z" />
<glyph unicode="&#x2122;" horiz-adv-x="1867" d="M893 1270q0 43 -23 76q-14 0 -35.5 -1.5t-45 -2.5t-45 -2t-33.5 -1h-203q-102 0 -146.5 -28.5t-44.5 -83.5q0 -35 17 -56l147 -14l-73 -319q-4 -29 -5.5 -43.5t-1.5 -32.5q0 -37 14.5 -63.5t38 -44t50 -25.5t51.5 -8q45 0 76 18l80 496q88 0 135 38t47 97zM1575 1032 q-10 -68 -16.5 -115t-9.5 -80.5t-4 -57t-1 -42.5q0 -47 31 -79.5t84 -32.5q23 0 37 3t30 9l89 524q2 10 3 19.5t1 15.5q0 29 -17.5 55.5t-45 48t-63.5 34t-73 12.5q-43 0 -65.5 -23t-41.5 -63l-135 -295l-59 262q-12 57 -44 88t-116 31q-115 0 -174 -34t-59 -104 q0 -23 10 -37l55 -6l-35 -209q-10 -55 -14 -90t-7 -57.5t-3 -36.5v-24q0 -51 27.5 -87t78.5 -36q23 0 35 2t25 10q0 2 4 36t11 89t14.5 109.5t12.5 100.5t7 62q8 -31 16 -70.5t16.5 -77.5t15.5 -70t13 -46q16 -53 40 -78.5t77 -25.5q29 0 45 5t33 15q18 33 40.5 81t47.5 98 t46.5 95t37.5 72z" />
<glyph unicode="&#x25fc;" horiz-adv-x="1003" d="M0 1004h1004v-1004h-1004v1004z" />
<glyph unicode="&#xfb01;" horiz-adv-x="1222" d="M412 532q29 -23 45 -74.5t16 -123.5q0 -84 -23.5 -171t-57.5 -160t-70.5 -119t-61.5 -46q-23 0 -22 21q0 6 4 18q14 41 35.5 108.5t46 153.5t48.5 186.5t40 206.5zM1087 924q-51 0 -126.5 -5.5t-158.5 -12.5t-164 -17t-142 -21q61 102 97 172t36 107q0 49 -21.5 95 t-55.5 82t-76 57.5t-83 21.5q-39 0 -65.5 -10.5t-45 -44t-31.5 -97t-24 -170.5q-6 -63 -14 -124.5t-14 -114.5q-35 -4 -61.5 -42t-26.5 -81q0 -49 57 -51q-10 -47 -26.5 -116t-36 -142.5t-41 -145t-39.5 -127.5q-33 -98 -51.5 -160.5t-29 -103.5t-13.5 -69.5t-3 -55.5 q0 -86 50.5 -132t154.5 -46q68 0 134.5 34t128 93t112.5 137t90 168t60.5 185.5t21.5 187.5q0 109 -42 193.5t-116 121.5q33 4 77 9.5t89 9.5t84 6t62 2q29 0 38 -5t9 -16q0 -4 -4 -20q-29 -104 -54.5 -190.5t-48.5 -157.5q-16 -53 -24.5 -99.5t-8.5 -89.5q0 -82 38 -124 t124 -42q47 0 105.5 27t118 69t114.5 94t99 105.5t71 100.5t27 80q0 31 -26 52t-54 21q-51 -74 -97.5 -123t-83 -79.5t-62 -44t-36.5 -13.5q-29 0 -28 31q0 51 84 254q12 33 26.5 71.5t25.5 75.5t18 70t7 53q0 66 -29.5 86.5t-95.5 20.5zM1057 1219q0 -90 39 -134.5 t98 -44.5q74 92 105.5 152.5t31.5 97.5q0 25 -15.5 51.5t-41 49t-56 38t-61.5 15.5q-49 0 -74.5 -50t-25.5 -175z" />
<glyph unicode="&#xfb02;" horiz-adv-x="1247" d="M203 854q-35 -4 -61.5 -42t-26.5 -81q0 -27 14 -38t41 -21q-18 -96 -49 -218t-68 -233q-43 -129 -67.5 -208t-38 -128t-16.5 -78.5t-3 -58.5q0 -86 50.5 -132t154.5 -46q88 0 179 60.5t165 158.5t121 224t47 259q0 109 -21.5 195t-68.5 131q31 -10 71 -15t81 -5 q61 0 92 8q-8 -57 -21.5 -117.5t-26 -119t-21.5 -113t-9 -97.5q0 -86 35 -126t127 -40q78 0 178 52.5t189 128t150.5 156.5t61.5 141q0 31 -24.5 50t-53.5 19q-41 -61 -88 -109.5t-93 -81t-85 -50t-59 -17.5q-29 0 -29 31q0 18 9.5 57t21.5 91.5t25.5 114.5t19.5 128 q170 129 264 268.5t94 272.5q0 274 -247 274q-61 0 -122 -30.5t-111 -87t-87 -138.5t-51 -186q-10 -61 -13.5 -142t-9.5 -153q-27 -4 -50 -6t-64 -2q-47 0 -112 11t-128 38q78 127 119 216t41 128q0 49 -21.5 95t-55.5 82t-76 57.5t-83 21.5q-39 0 -65.5 -10.5t-45 -44 t-31.5 -97t-24 -170.5q-6 -63 -12 -118.5t-12 -108.5zM399 471q39 -72 39 -219q0 -78 -19.5 -151.5t-48 -132t-59 -94.5t-51.5 -36q-23 0 -22 21q0 6 4 18q10 31 31.5 97.5t45 151.5t46 176t34.5 169zM1110 891l1 29q1 30 3 71t4 85t4 73q4 59 14.5 93t37.5 34q35 0 52 -37 t17 -90q0 -57 -31.5 -130t-101.5 -128z" />
</font>
</defs>
</svg>
